<svg width="30" height="33" viewBox="0 0 30 33" fill="none" xmlns="http://www.w3.org/2000/svg">
<path d="M21.8182 8.65967H8.18182C7.72974 8.65967 7.29619 8.83925 6.97652 9.15892C6.65686 9.47858 6.47727 9.91214 6.47727 10.3642V15.3756C6.47727 23.2472 13.1335 25.8585 14.4682 26.3C14.8133 26.4159 15.1867 26.4159 15.5318 26.3C16.8665 25.8568 23.5227 23.2472 23.5227 15.3756V10.3642C23.5227 9.91214 23.3431 9.47858 23.0235 9.15892C22.7038 8.83925 22.2703 8.65967 21.8182 8.65967ZM21.4773 15.3756C21.4773 21.6449 16.3185 23.8582 15 24.3244C13.6815 23.8625 8.52273 21.6492 8.52273 15.3798V10.7051H21.4773V15.3756ZM10.8673 17.906C10.7722 17.8108 10.6967 17.6979 10.6452 17.5736C10.5938 17.4493 10.5673 17.3161 10.5673 17.1815C10.5673 17.047 10.5938 16.9138 10.6452 16.7895C10.6967 16.6652 10.7722 16.5522 10.8673 16.4571C10.9625 16.362 11.0754 16.2865 11.1997 16.235C11.324 16.1835 11.4572 16.157 11.5918 16.157C11.7263 16.157 11.8595 16.1835 11.9838 16.235C12.1081 16.2865 12.2211 16.362 12.3162 16.4571L13.6364 17.779L17.6855 13.7298C17.8776 13.5377 18.1382 13.4298 18.4099 13.4298C18.6817 13.4298 18.9422 13.5377 19.1344 13.7298C19.3265 13.922 19.4344 14.1826 19.4344 14.4543C19.4344 14.726 19.3265 14.9866 19.1344 15.1787L14.3616 19.9514C14.2666 20.0468 14.1537 20.1224 14.0294 20.174C13.9051 20.2257 13.7718 20.2522 13.6372 20.2522C13.5026 20.2522 13.3693 20.2257 13.245 20.174C13.1207 20.1224 13.0078 20.0468 12.9128 19.9514L10.8673 17.906Z" fill="white"/>
</svg>
