<svg width="30" height="33" viewBox="0 0 30 33" fill="none" xmlns="http://www.w3.org/2000/svg">
<path d="M23.1818 9.34131H6.81818C6.54694 9.34131 6.2868 9.44906 6.09501 9.64086C5.90321 9.83266 5.79546 10.0928 5.79546 10.364V21.9549C5.79546 22.407 5.97504 22.8406 6.29471 23.1602C6.61437 23.4799 7.04793 23.6595 7.5 23.6595H22.5C22.9521 23.6595 23.3856 23.4799 23.7053 23.1602C24.025 22.8406 24.2045 22.407 24.2045 21.9549V10.364C24.2045 10.0928 24.0968 9.83266 23.905 9.64086C23.7132 9.44906 23.4531 9.34131 23.1818 9.34131ZM15 16.4765L9.44744 11.3868H20.5526L15 16.4765ZM11.9991 16.5004L7.84091 20.3118V12.689L11.9991 16.5004ZM13.5128 17.8879L14.3088 18.6183C14.4974 18.7913 14.7441 18.8872 15 18.8872C15.2559 18.8872 15.5026 18.7913 15.6912 18.6183L16.4872 17.8879L20.5526 21.614H9.44744L13.5128 17.8879ZM18.0009 16.5004L22.1591 12.689V20.3118L18.0009 16.5004Z" fill="white"/>
</svg>
