<svg width="30" height="33" viewBox="0 0 30 33" fill="none" xmlns="http://www.w3.org/2000/svg">
<path d="M24.0665 23.4892C22.898 21.4384 21.0734 19.8404 18.8864 18.9525C19.9739 18.1369 20.7773 16.9997 21.1826 15.702C21.588 14.4044 21.5748 13.0121 21.1449 11.7224C20.715 10.4327 19.8902 9.31099 18.7873 8.51609C17.6845 7.7212 16.3595 7.29346 15 7.29346C13.6405 7.29346 12.3155 7.7212 11.2127 8.51609C10.1098 9.31099 9.28502 10.4327 8.85512 11.7224C8.42522 13.0121 8.41201 14.4044 8.81736 15.702C9.22271 16.9997 10.0261 18.1369 11.1136 18.9525C8.92664 19.8404 7.10203 21.4384 5.93353 23.4892C5.86112 23.6056 5.81286 23.7354 5.79162 23.8709C5.77038 24.0063 5.77659 24.1446 5.80988 24.2776C5.84317 24.4106 5.90286 24.5356 5.9854 24.6451C6.06795 24.7545 6.17166 24.8463 6.29037 24.9149C6.40908 24.9834 6.54037 25.0275 6.67643 25.0443C6.8125 25.0611 6.95056 25.0504 7.08241 25.0128C7.21425 24.9753 7.3372 24.9115 7.44393 24.8255C7.55066 24.7394 7.639 24.6328 7.7037 24.5119C9.24802 21.8426 11.9753 20.2506 15 20.2506C18.0247 20.2506 20.752 21.8435 22.2963 24.5119C22.4365 24.7374 22.6589 24.8995 22.9165 24.9639C23.174 25.0284 23.4465 24.9902 23.6764 24.8574C23.9063 24.7245 24.0755 24.5075 24.1483 24.2522C24.2211 23.9969 24.1918 23.7233 24.0665 23.4892ZM10.5682 13.7733C10.5682 12.8968 10.8281 12.0399 11.3151 11.3111C11.8021 10.5823 12.4942 10.0143 13.304 9.67882C14.1138 9.34339 15.0049 9.25562 15.8646 9.42662C16.7243 9.59763 17.514 10.0197 18.1338 10.6395C18.7536 11.2593 19.1757 12.049 19.3467 12.9087C19.5177 13.7684 19.4299 14.6595 19.0945 15.4693C18.759 16.2791 18.191 16.9712 17.4622 17.4582C16.7334 17.9452 15.8765 18.2051 15 18.2051C13.825 18.2038 12.6986 17.7364 11.8677 16.9056C11.0369 16.0747 10.5695 14.9483 10.5682 13.7733Z" fill="white"/>
</svg>
