<svg width="31" height="31" viewBox="0 0 31 31" fill="none" xmlns="http://www.w3.org/2000/svg">
<path d="M28.7 15.8125C28.7 14.8375 28.6125 13.9 28.45 13H15.5V18.3187H22.9C22.5813 20.0375 21.6125 21.4938 20.1563 22.4688V25.9187H24.6C27.2 23.525 28.7 20 28.7 15.8125Z" fill="#4285F4"/>
<path d="M15.5 29.2498C19.2125 29.2498 22.325 28.0186 24.6 25.9186L20.1562 22.4686C18.925 23.2936 17.35 23.7811 15.5 23.7811C11.9187 23.7811 8.88747 21.3623 7.80622 18.1123H3.21247V21.6748C5.47497 26.1686 10.125 29.2498 15.5 29.2498Z" fill="#34A853"/>
<path d="M7.80625 18.1127C7.53125 17.2877 7.375 16.4064 7.375 15.5002C7.375 14.5939 7.53125 13.7127 7.80625 12.8877V9.3252H3.2125C2.25 11.2413 1.74915 13.356 1.75 15.5002C1.75 17.7189 2.28125 19.8189 3.2125 21.6752L7.80625 18.1127Z" fill="#FBBC05"/>
<path d="M15.5 7.21875C17.5187 7.21875 19.3312 7.9125 20.7562 9.275L24.7 5.33125C22.3187 3.1125 19.2062 1.75 15.5 1.75C10.125 1.75 5.47497 4.83125 3.21247 9.325L7.80622 12.8875C8.88747 9.6375 11.9187 7.21875 15.5 7.21875Z" fill="#EA4335"/>
</svg>
