<svg width="30" height="32" viewBox="0 0 30 32" fill="none" xmlns="http://www.w3.org/2000/svg">
<path d="M21.8182 8.41309H8.18184C7.72977 8.41309 7.29621 8.59267 6.97654 8.91234C6.65688 9.232 6.47729 9.66556 6.47729 10.1176V15.129C6.47729 23.0006 13.1335 25.6119 14.4682 26.0534C14.8133 26.1693 15.1868 26.1693 15.5318 26.0534C16.8665 25.6102 23.5227 23.0006 23.5227 15.129V10.1176C23.5227 9.66556 23.3432 9.232 23.0235 8.91234C22.7038 8.59267 22.2703 8.41309 21.8182 8.41309ZM21.4773 15.129C21.4773 21.3983 16.3185 23.6117 15 24.0779C13.6816 23.6159 8.52275 21.4026 8.52275 15.1333V10.4585H21.4773V15.129ZM10.8674 17.6594C10.7722 17.5643 10.6968 17.4513 10.6453 17.327C10.5938 17.2027 10.5673 17.0695 10.5673 16.935C10.5673 16.8004 10.5938 16.6672 10.6453 16.5429C10.6968 16.4186 10.7722 16.3057 10.8674 16.2105C10.9625 16.1154 11.0754 16.0399 11.1997 15.9884C11.324 15.937 11.4572 15.9105 11.5918 15.9105C11.7263 15.9105 11.8595 15.937 11.9838 15.9884C12.1081 16.0399 12.2211 16.1154 12.3162 16.2105L13.6364 17.5324L17.6855 13.4833C17.8777 13.2911 18.1383 13.1832 18.41 13.1832C18.6817 13.1832 18.9423 13.2911 19.1344 13.4833C19.3265 13.6754 19.4345 13.936 19.4345 14.2077C19.4345 14.4794 19.3265 14.74 19.1344 14.9321L14.3617 19.7048C14.2667 19.8002 14.1538 19.8758 14.0294 19.9275C13.9051 19.9791 13.7718 20.0057 13.6372 20.0057C13.5026 20.0057 13.3694 19.9791 13.245 19.9275C13.1207 19.8758 13.0078 19.8002 12.9128 19.7048L10.8674 17.6594Z" fill="white"/>
</svg>
