<svg width="140" height="43" viewBox="0 0 140 43" fill="none" xmlns="http://www.w3.org/2000/svg">
<path d="M1.95325 33.4424L13.4275 12.7676L18.0807 21.1221L10.5193 34.8172L10.1492 35.5046H0.842834L1.95325 33.4424Z" fill="url(#paint0_linear_105_180)"/>
<path d="M40.1304 33.4424L41.2408 35.5046H31.9344L31.5643 34.8172L21.1476 16.0459L21.0418 15.8344L16.3886 7.42699L16.7588 6.73959L19.7728 1.2404L20.1429 0.500122H21.9407L22.258 1.2404L25.3248 6.73959L40.1304 33.4424Z" fill="url(#paint1_linear_105_180)"/>
<path d="M20.2812 40.4419C19.9677 40.1325 19.9643 39.6275 20.2737 39.3139C20.583 39.0004 21.088 38.997 21.4016 39.3064L23.0046 40.888C23.3182 41.1974 23.3216 41.7024 23.0122 42.0159C22.7028 42.3295 22.1978 42.3329 21.8843 42.0235L20.2812 40.4419Z" fill="url(#paint2_linear_105_180)"/>
<path d="M22.1 38.2234C21.7201 38.6084 21.7242 39.2286 22.1093 39.6085L23.6863 41.1644C24.0714 41.5444 24.6915 41.5402 25.0714 41.1551C25.4513 40.7701 25.4471 40.15 25.0621 39.77L23.4851 38.2141C23.1 37.8342 22.4799 37.8383 22.1 38.2234Z" fill="url(#paint3_linear_105_180)"/>
<path d="M23.9349 38.2648C23.5499 37.8849 23.5457 37.2648 23.9256 36.8797C24.3055 36.4946 24.9257 36.4905 25.3107 36.8704L26.8877 38.4264C27.2728 38.8063 27.2769 39.4264 26.897 39.8115C26.5171 40.1965 25.897 40.2007 25.5119 39.8208L23.9349 38.2648Z" fill="url(#paint4_linear_105_180)"/>
<path d="M25.5173 35.3631C25.1374 35.7481 25.1415 36.3682 25.5266 36.7482L27.1036 38.3041C27.4887 38.684 28.1088 38.6799 28.4887 38.2948C28.8686 37.9098 28.8645 37.2896 28.4794 36.9097L26.9024 35.3538C26.5173 34.9738 25.8972 34.978 25.5173 35.3631Z" fill="url(#paint5_linear_105_180)"/>
<path fill-rule="evenodd" clip-rule="evenodd" d="M18.5888 33.4335C17.218 35.6245 16.327 36.6727 14.4847 38.1738C12.0798 36.4988 11.2373 35.1372 10.1033 32.4001C9.03402 27.198 9.57669 24.7193 12.4975 21.0498L14.4106 21.5336C11.885 25.7143 12.3433 27.6641 14.0044 30.9647L15.6242 30.5747C17.7413 29.9264 18.5546 30.0169 19.9361 30.1704L20.0651 30.1848C21.4657 30.6452 22.1932 30.9827 23.5135 31.8358L24.1252 32.5474C24.4528 33.9362 23.3859 34.815 22.0029 34.5696L18.5888 33.4335Z" fill="url(#paint6_linear_105_180)"/>
<path d="M14.9428 38.3127C15.8479 37.3996 17.6685 35.5628 18.8104 33.936L22.2713 35.069C23.0879 35.1124 23.4675 34.8934 24.1064 34.3825C24.6154 33.7133 24.6665 33.2603 24.5371 32.379C23.0034 30.8203 21.9529 30.2657 19.7562 29.7822L22.1436 29.6232C25.4748 30.4786 26.9581 31.4368 28.7501 34.2142C28.3944 32.4624 27.7309 31.6706 26.2381 30.3848C29.1062 28.6398 29.5532 25.3924 28.6131 22.462L32.3861 29.505C32.1145 31.7801 30.9877 34.5233 28.8281 36.7951L26.5312 34.7852C25.1972 34.7998 24.9669 35.2384 24.7929 36.2176C23.6881 36.2941 23.3752 36.6206 23.1887 37.547C21.9586 37.4595 21.6186 37.8212 21.2974 38.8014C19.6933 38.7202 19.4319 39.5311 20.1052 40.6676C19.0737 41.331 18.5098 41.4031 17.5149 41.3104C18.651 40.3242 19.111 39.7215 19.8275 38.6173C18.7076 39.8163 18.0559 40.3569 16.8346 40.9796C16.0285 40.9704 15.6634 40.9114 15.7579 40.346C16.832 39.5118 17.302 38.9705 17.9457 37.8963L15.4521 39.9902C14.4846 40.2898 14.0852 39.2349 14.4347 38.8355C14.4651 38.8008 14.512 38.751 14.5735 38.6875C14.6653 38.5928 14.7893 38.4676 14.9385 38.3171L14.9424 38.3132L14.9428 38.3127Z" fill="url(#paint7_linear_105_180)"/>
<path d="M59.198 7.52913L65.9355 27.2748C66.1357 27.9085 66.3691 28.4088 66.6693 28.7424C66.9362 29.1093 67.3698 29.4094 67.9701 29.6096V30.3767H60.2653V29.6096C61.5995 29.3427 62.0665 28.5756 61.6329 27.2748L60.0986 22.7053H52.7273L51.2931 27.2748C51.093 27.9085 51.093 28.4088 51.3598 28.7424C51.6266 29.1093 52.3271 29.4094 53.4611 29.6096V30.3767H47.0905V29.6096C47.891 29.2093 48.458 28.8091 48.7915 28.4088C49.1251 28.0086 49.4586 27.3748 49.7254 26.5076L55.7959 7.52913H59.198ZM59.5649 21.0376L56.2962 11.2648L53.2276 21.0376H59.5649ZM82.3893 16.6682C82.3893 17.2018 82.2225 17.6354 81.889 17.969C81.5554 18.3025 81.1218 18.4693 80.6549 18.4693C80.0545 18.4693 79.5875 18.3359 79.254 18.0023C78.9205 17.6688 78.7537 17.2685 78.7537 16.7682C78.7537 16.2012 78.9872 15.6675 79.4875 15.1672C78.9205 14.7003 78.1533 14.4668 77.1527 14.4668C75.7518 14.4668 74.6511 15.0672 73.8506 16.2346C73.0501 17.402 72.6499 19.0363 72.6499 21.171C72.6499 25.7071 74.4844 27.9419 78.1533 27.9419C79.9544 27.9419 81.4554 27.4082 82.6561 26.3075V27.108C81.6555 29.5095 79.6209 30.7103 76.619 30.7103C74.2175 30.7103 72.3163 29.9431 70.9488 28.4088C69.5479 26.8745 68.8809 24.8399 68.8809 22.2717C68.8809 19.67 69.6147 17.5354 71.1489 15.8677C72.6499 14.2 74.6845 13.3661 77.2194 13.3661C78.5536 13.3661 79.721 13.6663 80.7883 14.2667C81.8556 14.867 82.3893 15.6675 82.3893 16.6682ZM95.8529 34.3792V27.9419C94.7855 28.9425 93.8516 29.6429 93.1178 30.0765C92.3841 30.5101 91.5502 30.7103 90.6163 30.7103C88.7485 30.7103 87.2809 30.0432 86.2802 28.6423C85.2463 27.2414 84.746 25.1735 84.746 22.3717C84.746 19.3365 85.413 17.0684 86.7472 15.6008C88.0814 14.1333 89.7824 13.3661 91.9171 13.3661C93.5848 13.3661 95.0857 13.8664 96.3865 14.8003L98.5212 13.3661H99.4218V34.3792C99.4218 34.8128 99.4218 35.113 99.4551 35.3131C99.4551 35.5132 99.5218 35.7467 99.6553 36.0136C99.7553 36.2804 99.9554 36.4805 100.222 36.6139C100.489 36.7473 100.823 36.8808 101.29 36.9475V37.7146H93.418V36.9475C93.9851 36.8808 94.452 36.7473 94.8189 36.6139C95.1524 36.4805 95.4193 36.2804 95.5527 36.0136C95.6861 35.7467 95.7528 35.5132 95.7862 35.3131C95.8195 35.113 95.8529 34.8128 95.8529 34.3792ZM95.8529 26.8412V15.8343C95.0524 15.4674 94.0518 15.2673 92.851 15.2673C90.0159 15.2673 88.615 17.5354 88.615 22.0382C88.615 24.3063 88.8819 25.8739 89.4822 26.8078C90.0493 27.7417 90.9498 28.2087 92.1839 28.2087C93.3513 28.2087 94.5854 27.7751 95.8529 26.8412ZM104.183 9.96398C104.183 9.33026 104.383 8.79659 104.816 8.39634C105.217 7.99609 105.784 7.79597 106.451 7.79597C107.084 7.79597 107.618 7.99609 108.085 8.39634C108.519 8.79659 108.752 9.33026 108.752 9.96398C108.752 10.6311 108.519 11.1314 108.085 11.5316C107.618 11.9319 107.084 12.132 106.451 12.132C105.784 12.132 105.217 11.9652 104.816 11.565C104.383 11.1647 104.183 10.6311 104.183 9.96398ZM108.285 13.3661V27.0413C108.285 27.4749 108.285 27.7751 108.318 27.9752C108.318 28.1753 108.385 28.4088 108.519 28.6756C108.619 28.9425 108.819 29.1426 109.086 29.276C109.352 29.4094 109.719 29.5429 110.186 29.6096V30.3767H102.848V29.6096C103.716 29.4761 104.249 29.2093 104.449 28.8424C104.65 28.4755 104.75 27.8751 104.75 27.0413V18.3692C104.75 18.0357 104.716 17.8022 104.716 17.6021C104.683 17.402 104.616 17.2018 104.516 16.935C104.383 16.6682 104.183 16.468 103.916 16.3013C103.649 16.1679 103.282 16.0344 102.848 15.9344V15.1339L108.285 13.3661ZM114 13.6996V12.3988C114 10.2642 114.534 8.66317 115.634 7.59584C116.735 6.56186 118.003 6.0282 119.437 6.0282C120.337 6.0282 121.105 6.26168 121.705 6.72863C122.305 7.19559 122.605 7.76261 122.605 8.46305C122.605 9.03007 122.439 9.46367 122.105 9.79721C121.772 10.1308 121.371 10.2975 120.871 10.2975C120.304 10.2975 119.87 10.1641 119.537 9.83057C119.203 9.53038 119.07 9.16349 119.07 8.69653C119.07 8.16286 119.303 7.66255 119.837 7.22895C119.637 7.16224 119.37 7.12888 119.037 7.12888C118.503 7.12888 118.069 7.32901 117.669 7.72926C117.269 8.12951 117.102 8.76324 117.102 9.59709C117.102 10.3642 117.235 11.7318 117.569 13.6996H121.238V15.2673H117.569V27.0413C117.569 27.4749 117.569 27.7751 117.602 27.9752C117.636 28.1753 117.736 28.4088 117.869 28.6756C118.003 28.9425 118.269 29.1426 118.636 29.276C119.003 29.4094 119.504 29.5429 120.137 29.6096V30.3767H112.132V29.6096C112.566 29.5429 112.933 29.4094 113.2 29.276C113.466 29.1426 113.633 28.9425 113.767 28.6756C113.867 28.4088 113.933 28.1753 113.967 27.9752C113.967 27.7751 114 27.4749 114 27.0413V15.2673H112.132V14.4668L114 13.6996ZM138.858 13.6996V14.4668C137.891 15.1339 137.19 16.0344 136.79 17.2018L133.088 26.9412C132.354 28.8091 131.653 30.4434 130.986 31.7776C130.319 33.1451 129.685 34.2124 129.152 35.0129C128.618 35.8134 128.051 36.4138 127.484 36.8808C126.917 37.3477 126.417 37.6813 125.983 37.8147C125.516 37.9814 125.049 38.0482 124.549 38.0482C123.848 38.0482 123.281 37.8814 122.881 37.4811C122.448 37.1142 122.247 36.6473 122.247 36.1136C122.247 35.58 122.414 35.113 122.781 34.7795C123.115 34.4459 123.548 34.2791 124.015 34.2791C124.382 34.2791 124.716 34.4126 125.049 34.646C125.383 34.8795 125.55 35.2798 125.55 35.8134C125.55 36.1136 125.483 36.3805 125.416 36.6139C126.65 36.4805 128.151 34.546 129.886 30.877L124.082 17.1351C123.748 16.4013 123.415 15.8677 123.148 15.5008C122.848 15.1339 122.448 14.8003 121.947 14.4668V13.6996H128.885V14.4668C128.385 14.7003 128.051 14.9004 127.851 15.1005C127.651 15.3006 127.551 15.5008 127.551 15.7676C127.551 16.0344 127.651 16.4347 127.851 16.935L131.687 26.4409L134.789 16.935C134.922 16.468 134.989 16.1011 134.989 15.8677C134.989 15.5675 134.855 15.3006 134.622 15.1005C134.355 14.9004 133.921 14.7003 133.288 14.4668V13.6996H138.858Z" fill="white"/>
<defs>
<linearGradient id="paint0_linear_105_180" x1="21.0418" y1="0.500122" x2="21.0418" y2="42.2533" gradientUnits="userSpaceOnUse">
<stop stop-color="white"/>
<stop offset="1" stop-color="#DEDEDE"/>
</linearGradient>
<linearGradient id="paint1_linear_105_180" x1="21.0418" y1="0.500122" x2="21.0418" y2="42.2533" gradientUnits="userSpaceOnUse">
<stop stop-color="white"/>
<stop offset="1" stop-color="white"/>
</linearGradient>
<linearGradient id="paint2_linear_105_180" x1="21.0418" y1="0.500122" x2="21.0418" y2="42.2533" gradientUnits="userSpaceOnUse">
<stop stop-color="white"/>
<stop offset="1" stop-color="#DEDEDE"/>
</linearGradient>
<linearGradient id="paint3_linear_105_180" x1="21.0418" y1="0.500122" x2="21.0418" y2="42.2533" gradientUnits="userSpaceOnUse">
<stop stop-color="white"/>
<stop offset="1" stop-color="#DEDEDE"/>
</linearGradient>
<linearGradient id="paint4_linear_105_180" x1="21.0418" y1="0.500122" x2="21.0418" y2="42.2533" gradientUnits="userSpaceOnUse">
<stop stop-color="white"/>
<stop offset="1" stop-color="#DEDEDE"/>
</linearGradient>
<linearGradient id="paint5_linear_105_180" x1="21.0418" y1="0.500122" x2="21.0418" y2="42.2533" gradientUnits="userSpaceOnUse">
<stop stop-color="white"/>
<stop offset="1" stop-color="#DEDEDE"/>
</linearGradient>
<linearGradient id="paint6_linear_105_180" x1="21.0418" y1="0.500122" x2="21.0418" y2="42.2533" gradientUnits="userSpaceOnUse">
<stop stop-color="white"/>
<stop offset="1" stop-color="#DEDEDE"/>
</linearGradient>
<linearGradient id="paint7_linear_105_180" x1="21.0418" y1="0.500122" x2="21.0418" y2="42.2533" gradientUnits="userSpaceOnUse">
<stop stop-color="white"/>
<stop offset="1" stop-color="white"/>
</linearGradient>
</defs>
</svg>
