<svg width="30" height="32" viewBox="0 0 30 32" fill="none" xmlns="http://www.w3.org/2000/svg">
<path d="M23.1819 9.09473H6.81826C6.54702 9.09473 6.28688 9.20248 6.09508 9.39428C5.90328 9.58607 5.79553 9.84621 5.79553 10.1175V21.7084C5.79553 22.1604 5.97512 22.594 6.29478 22.9137C6.61445 23.2333 7.048 23.4129 7.50008 23.4129H22.5001C22.9522 23.4129 23.3857 23.2333 23.7054 22.9137C24.025 22.594 24.2046 22.1604 24.2046 21.7084V10.1175C24.2046 9.84621 24.0969 9.58607 23.9051 9.39428C23.7133 9.20248 23.4531 9.09473 23.1819 9.09473ZM15.0001 16.23L9.44752 11.1402H20.5526L15.0001 16.23ZM11.9992 16.2538L7.84099 20.0652V12.4425L11.9992 16.2538ZM13.5129 17.6413L14.3089 18.3717C14.4975 18.5447 14.7441 18.6406 15.0001 18.6406C15.256 18.6406 15.5026 18.5447 15.6913 18.3717L16.4873 17.6413L20.5526 21.3675H9.44752L13.5129 17.6413ZM18.0009 16.2538L22.1592 12.4425V20.0652L18.0009 16.2538Z" fill="white"/>
</svg>
