<svg width="42" height="43" viewBox="0 0 42 43" fill="none" xmlns="http://www.w3.org/2000/svg">
<path d="M1.95319 33.4428L13.4275 12.7679L18.0806 21.1225L10.5192 34.8176L10.1491 35.505H0.842773L1.95319 33.4428Z" fill="url(#paint0_linear_315_3281)"/>
<path d="M40.1303 33.4428L41.2407 35.505H31.9344L31.5642 34.8176L21.1475 16.0463L21.0417 15.8348L16.3886 7.42736L16.7587 6.73996L19.7727 1.24077L20.1428 0.500488H21.9406L22.2579 1.24077L25.3248 6.73996L40.1303 33.4428Z" fill="url(#paint1_linear_315_3281)"/>
<path d="M20.2812 40.4422C19.9676 40.1329 19.9642 39.6279 20.2736 39.3143C20.583 39.0007 21.088 38.9974 21.4015 39.3067L23.0046 40.8884C23.3181 41.1978 23.3215 41.7027 23.0122 42.0163C22.7028 42.3299 22.1978 42.3333 21.8842 42.0239L20.2812 40.4422Z" fill="url(#paint2_linear_315_3281)"/>
<path d="M22.0999 38.2238C21.72 38.6088 21.7242 39.2289 22.1092 39.6088L23.6862 41.1648C24.0713 41.5447 24.6914 41.5406 25.0713 41.1555C25.4513 40.7705 25.4471 40.1503 25.062 39.7704L23.485 38.2145C23.1 37.8345 22.4798 37.8387 22.0999 38.2238Z" fill="url(#paint3_linear_315_3281)"/>
<path d="M23.9349 38.2652C23.5498 37.8852 23.5456 37.2651 23.9256 36.8801C24.3055 36.495 24.9256 36.4908 25.3106 36.8708L26.8877 38.4267C27.2727 38.8066 27.2769 39.4268 26.897 39.8118C26.517 40.1969 25.8969 40.201 25.5119 39.8211L23.9349 38.2652Z" fill="url(#paint4_linear_315_3281)"/>
<path d="M25.5172 35.3634C25.1373 35.7485 25.1415 36.3686 25.5265 36.7485L27.1035 38.3045C27.4886 38.6844 28.1087 38.6802 28.4886 38.2952C28.8686 37.9101 28.8644 37.29 28.4793 36.9101L26.9023 35.3541C26.5173 34.9742 25.8972 34.9784 25.5172 35.3634Z" fill="url(#paint5_linear_315_3281)"/>
<path fill-rule="evenodd" clip-rule="evenodd" d="M18.5887 33.4338C17.218 35.6249 16.327 36.673 14.4846 38.1742C12.0798 36.4992 11.2373 35.1376 10.1033 32.4005C9.03396 27.1983 9.57663 24.7197 12.4974 21.0502L14.4105 21.534C11.885 25.7147 12.3432 27.6645 14.0044 30.9651L15.6241 30.575C17.7412 29.9268 18.5546 30.0172 19.9361 30.1708L20.065 30.1851C21.4656 30.6455 22.1931 30.9831 23.5135 31.8362L24.1251 32.5478C24.4527 33.9366 23.3858 34.8153 22.0029 34.57L18.5887 33.4338Z" fill="url(#paint6_linear_315_3281)"/>
<path d="M14.9428 38.3131C15.8478 37.4 17.6684 35.5632 18.8103 33.9363L22.2712 35.0694C23.0878 35.1127 23.4675 34.8937 24.1063 34.3829C24.6153 33.7137 24.6665 33.2606 24.5371 32.3793C23.0034 30.8207 21.9528 30.266 19.7561 29.7826L22.1435 29.6235C25.4747 30.479 26.9581 31.4372 28.7501 34.2146C28.3944 32.4627 27.7308 31.6709 26.238 30.3852C29.1062 28.6401 29.5532 25.3927 28.613 22.4623L32.3861 29.5054C32.1144 31.7805 30.9877 34.5236 28.828 36.7955L26.5312 34.7856C25.1971 34.8001 24.9668 35.2387 24.7928 36.2179C23.6881 36.2945 23.3751 36.621 23.1886 37.5473C21.9585 37.4599 21.6185 37.8215 21.2974 38.8018C19.6933 38.7206 19.4318 39.5315 20.1051 40.668C19.0737 41.3314 18.5097 41.4034 17.5148 41.3108C18.6509 40.3245 19.111 39.7218 19.8275 38.6176C18.7076 39.8167 18.0559 40.3572 16.8345 40.9799C16.0284 40.9708 15.6633 40.9117 15.7578 40.3464C16.832 39.5122 17.3019 38.9708 17.9456 37.8966L15.452 39.9906C14.4845 40.2901 14.0851 39.2353 14.4347 38.8358C14.465 38.8012 14.512 38.7514 14.5735 38.6879C14.6652 38.5931 14.7893 38.468 14.9384 38.3175L14.9423 38.3136L14.9428 38.3131Z" fill="url(#paint7_linear_315_3281)"/>
<defs>
<linearGradient id="paint0_linear_315_3281" x1="21.0417" y1="0.500488" x2="21.0417" y2="42.2537" gradientUnits="userSpaceOnUse">
<stop stop-color="white"/>
<stop offset="1" stop-color="#DEDEDE"/>
</linearGradient>
<linearGradient id="paint1_linear_315_3281" x1="21.0417" y1="0.500488" x2="21.0417" y2="42.2537" gradientUnits="userSpaceOnUse">
<stop stop-color="white"/>
<stop offset="1" stop-color="white"/>
</linearGradient>
<linearGradient id="paint2_linear_315_3281" x1="21.0417" y1="0.500488" x2="21.0417" y2="42.2537" gradientUnits="userSpaceOnUse">
<stop stop-color="white"/>
<stop offset="1" stop-color="#DEDEDE"/>
</linearGradient>
<linearGradient id="paint3_linear_315_3281" x1="21.0417" y1="0.500488" x2="21.0417" y2="42.2537" gradientUnits="userSpaceOnUse">
<stop stop-color="white"/>
<stop offset="1" stop-color="#DEDEDE"/>
</linearGradient>
<linearGradient id="paint4_linear_315_3281" x1="21.0417" y1="0.500488" x2="21.0417" y2="42.2537" gradientUnits="userSpaceOnUse">
<stop stop-color="white"/>
<stop offset="1" stop-color="#DEDEDE"/>
</linearGradient>
<linearGradient id="paint5_linear_315_3281" x1="21.0417" y1="0.500488" x2="21.0417" y2="42.2537" gradientUnits="userSpaceOnUse">
<stop stop-color="white"/>
<stop offset="1" stop-color="#DEDEDE"/>
</linearGradient>
<linearGradient id="paint6_linear_315_3281" x1="21.0417" y1="0.500488" x2="21.0417" y2="42.2537" gradientUnits="userSpaceOnUse">
<stop stop-color="white"/>
<stop offset="1" stop-color="#DEDEDE"/>
</linearGradient>
<linearGradient id="paint7_linear_315_3281" x1="21.0417" y1="0.500488" x2="21.0417" y2="42.2537" gradientUnits="userSpaceOnUse">
<stop stop-color="white"/>
<stop offset="1" stop-color="white"/>
</linearGradient>
</defs>
</svg>
