<svg width="196" height="217" viewBox="0 0 196 217" fill="none" xmlns="http://www.w3.org/2000/svg">
<rect width="196" height="217" fill="white"/>
<rect x="13.4365" y="14.95" width="168.327" height="118.246" rx="16" fill="#F2F7FF"/>
<mask id="mask0" mask-type="alpha" maskUnits="userSpaceOnUse" x="13" y="15" width="169" height="119">
<rect x="13.437" y="15.009" width="168.327" height="118.246" rx="16" fill="#F2F4FF"/>
</mask>
<g mask="url(#mask0)">
<path d="M43.2331 50.5599C43.421 46.9937 46.2204 43.8967 49.7915 43.8967H64.372C67.8859 43.8967 70.6734 46.8992 70.9245 50.4041C71.158 53.6645 71.7799 57.5262 73.2996 60.4343C76.5093 66.5762 37.145 65.5646 40.7061 60.4343C42.4329 57.9466 43.0528 53.9831 43.2331 50.5599Z" fill="#D7E3F5"/>
<path d="M43.2331 128.516C43.421 132.082 46.2204 135.179 49.7915 135.179H64.372C67.8859 135.179 70.6734 132.177 70.9245 128.672C71.158 125.412 71.7799 121.55 73.2996 118.642C76.5093 112.5 37.145 113.512 40.7061 118.642C42.4329 121.13 43.0528 125.093 43.2331 128.516Z" fill="#D7E3F5"/>
<rect x="36.8579" y="70.1118" width="43.392" height="43.3904" rx="9.94097" fill="#F5FAFF"/>
<path d="M83.8584 75.4041C83.8584 75.0406 84.0028 74.692 84.2598 74.435L84.5537 74.1411C84.8107 73.8841 85.1593 73.7397 85.5228 73.7397H86.1894C86.9462 73.7397 87.5598 74.3533 87.5598 75.1102V83.3361C87.5598 84.093 86.9462 84.7066 86.1894 84.7066H85.6138C85.1975 84.7066 84.8037 84.5173 84.5436 84.1922L84.1587 83.7111C83.9643 83.4681 83.8584 83.1662 83.8584 82.855V75.4041Z" fill="#B6CBEC"/>
<rect x="30.5298" y="60.1682" width="54.2401" height="58.7579" rx="12.8825" fill="#91B5EB"/>
<rect x="36.8579" y="66.4961" width="41.584" height="46.1023" rx="6.85241" fill="#F9FAFF"/>
<path d="M120.346 16.3319C120.534 12.7657 123.333 9.6687 126.904 9.6687H141.485C144.999 9.6687 147.786 12.6712 148.037 16.1761C148.271 19.4364 148.893 23.2982 150.412 26.2063C153.622 32.3482 114.258 31.3365 117.819 26.2063C119.546 23.7186 120.166 19.7551 120.346 16.3319Z" fill="#D7E3F5"/>
<path d="M120.346 94.288C120.534 97.8542 123.333 100.951 126.904 100.951H141.485C144.999 100.951 147.786 97.9487 148.037 94.4438C148.271 91.1834 148.893 87.3217 150.412 84.4136C153.622 78.2717 114.258 79.2833 117.819 84.4136C119.546 86.9013 120.166 90.8648 120.346 94.288Z" fill="#D7E3F5"/>
<rect x="113.97" y="35.8838" width="43.392" height="43.3904" rx="9.94097" fill="#F5FAFF"/>
<path d="M160.971 41.1761C160.971 40.8126 161.115 40.464 161.372 40.207L161.666 39.9131C161.923 39.6561 162.272 39.5117 162.635 39.5117H163.302C164.059 39.5117 164.672 40.1253 164.672 40.8822V49.1081C164.672 49.8649 164.059 50.4785 163.302 50.4785H162.726C162.31 50.4785 161.916 50.2893 161.656 49.9642L161.271 49.4831C161.077 49.2401 160.971 48.9381 160.971 48.6269V41.1761Z" fill="#B6CBEC"/>
<rect x="107.643" y="25.9402" width="54.2401" height="58.7579" rx="12.8825" fill="#91B5EB"/>
<rect x="113.97" y="32.2681" width="41.584" height="46.1023" rx="6.85241" fill="#F9FAFF"/>
</g>
<rect x="14.4414" y="151.142" width="146.021" height="13.1885" rx="6.59424" fill="#D4DDEE"/>
<rect x="14.4414" y="172.333" width="63.7276" height="13.1885" rx="6.59424" fill="#EAECF7"/>
</svg>
