<svg width="26" height="22" viewBox="0 0 26 22" fill="none" xmlns="http://www.w3.org/2000/svg">
<path d="M10.4353 21.422L1.26447 12.5961C1.12199 12.4595 1.00788 12.296 0.928694 12.1152C0.849505 11.9343 0.806794 11.7396 0.803011 11.5423C0.799228 11.3449 0.834448 11.1487 0.906649 10.9649C0.97885 10.7812 1.08661 10.6135 1.22375 10.4715L10.0496 1.3007C10.326 1.01356 10.7051 0.847954 11.1035 0.840318C11.502 0.832682 11.8871 0.983639 12.1743 1.25998C12.4614 1.53632 12.627 1.91541 12.6346 2.31385C12.6423 2.71229 12.4913 3.09745 12.215 3.38459L5.90079 9.94553L24.2724 9.59344C24.6702 9.58582 25.0547 9.73651 25.3413 10.0124C25.6279 10.2882 25.7933 10.6667 25.8009 11.0644C25.8085 11.4622 25.6578 11.8467 25.3819 12.1333C25.1061 12.4199 24.7276 12.5853 24.3299 12.5929L5.95827 12.945L12.5205 19.2591C12.8076 19.5355 12.9732 19.9146 12.9808 20.313C12.9885 20.7115 12.8375 21.0966 12.5612 21.3838C12.2848 21.6709 11.9058 21.8365 11.5073 21.8441C11.1089 21.8518 10.7237 21.7008 10.4366 21.4245L10.4353 21.422Z" fill="#C0C0C0"/>
</svg>
