<svg width="21" height="20" viewBox="0 0 21 20" fill="none" xmlns="http://www.w3.org/2000/svg">
<path d="M19.9493 4.2693C19.8514 4.15206 19.729 4.05774 19.5907 3.99301C19.4523 3.92828 19.3015 3.89471 19.1488 3.89468H5.41573L5.04459 1.84516C4.97172 1.44462 4.76058 1.08237 4.44798 0.82155C4.13539 0.560735 3.74116 0.417907 3.33405 0.417969H1.76518C1.48856 0.417969 1.22326 0.527858 1.02766 0.723461C0.832057 0.919064 0.722168 1.18436 0.722168 1.46098C0.722168 1.73761 0.832057 2.0029 1.02766 2.19851C1.22326 2.39411 1.48856 2.504 1.76518 2.504H3.04374L5.20887 14.4117C5.267 14.728 5.38723 15.0296 5.56262 15.2992C5.25211 15.6625 5.04045 16.0997 4.94808 16.5686C4.8557 17.0376 4.88572 17.5224 5.03524 17.9764C5.18476 18.4303 5.44874 18.8381 5.8017 19.1603C6.15467 19.4826 6.58472 19.7084 7.05037 19.8161C7.51603 19.9238 8.00157 19.9096 8.46017 19.7751C8.91878 19.6405 9.33496 19.39 9.66859 19.0478C10.0022 18.7055 10.242 18.2831 10.3649 17.8212C10.4878 17.3594 10.4895 16.8736 10.3701 16.4109H13.3253C13.1803 16.9724 13.2144 17.5653 13.423 18.1065C13.6316 18.6477 14.0042 19.1102 14.4886 19.4291C14.973 19.7481 15.5451 19.9077 16.1246 19.8855C16.7042 19.8634 17.2624 19.6606 17.721 19.3055C18.1796 18.9504 18.5158 18.4609 18.6824 17.9053C18.8491 17.3498 18.8379 16.756 18.6504 16.2072C18.4629 15.6583 18.1085 15.1818 17.6368 14.8442C17.1651 14.5067 16.5997 14.3251 16.0197 14.3248H7.60346C7.52217 14.3247 7.44349 14.2962 7.38109 14.2441C7.31868 14.192 7.2765 14.1197 7.26187 14.0397L7.06022 12.9341H16.7237C17.2938 12.9341 17.8458 12.734 18.2834 12.3687C18.7211 12.0033 19.0165 11.4959 19.1183 10.935L20.1753 5.1237C20.2024 4.97343 20.1963 4.81902 20.1572 4.67138C20.1182 4.52375 20.0472 4.38649 19.9493 4.2693ZM8.37094 17.1062C8.37094 17.2437 8.33016 17.3782 8.25375 17.4925C8.17735 17.6069 8.06875 17.696 7.94169 17.7486C7.81464 17.8012 7.67483 17.815 7.53994 17.7882C7.40506 17.7614 7.28116 17.6951 7.18392 17.5979C7.08667 17.5006 7.02045 17.3767 6.99362 17.2419C6.96679 17.107 6.98056 16.9672 7.03319 16.8401C7.08581 16.713 7.17494 16.6044 7.28929 16.528C7.40363 16.4516 7.53807 16.4109 7.6756 16.4109C7.86001 16.4109 8.03688 16.4841 8.16728 16.6145C8.29768 16.7449 8.37094 16.9218 8.37094 17.1062ZM16.0197 17.8015C15.8822 17.8015 15.7478 17.7608 15.6334 17.6844C15.5191 17.608 15.4299 17.4994 15.3773 17.3723C15.3247 17.2452 15.3109 17.1054 15.3377 16.9705C15.3646 16.8357 15.4308 16.7118 15.528 16.6145C15.6253 16.5173 15.7492 16.451 15.8841 16.4242C16.0189 16.3974 16.1588 16.4112 16.2858 16.4638C16.4129 16.5164 16.5215 16.6055 16.5979 16.7199C16.6743 16.8342 16.7151 16.9687 16.7151 17.1062C16.7151 17.2906 16.6418 17.4675 16.5114 17.5979C16.381 17.7283 16.2041 17.8015 16.0197 17.8015ZM17.0627 10.563C17.0482 10.6425 17.0064 10.7145 16.9445 10.7665C16.8826 10.8186 16.8046 10.8474 16.7237 10.8481H6.68126L5.79643 5.98071H17.8989L17.0627 10.563Z" fill="#EEF0FE"/>
</svg>
