<svg width="20" height="20" viewBox="0 0 20 20" fill="none" xmlns="http://www.w3.org/2000/svg">
<path d="M7.08689 9.03129C7.24645 8.94279 7.37943 8.81323 7.47204 8.65603C7.56466 8.49882 7.61353 8.31971 7.61359 8.13725V2.56254C7.61361 2.39113 7.57055 2.22247 7.48836 2.07205C7.40618 1.92163 7.2875 1.79428 7.14325 1.7017C6.99899 1.60912 6.83378 1.55429 6.6628 1.54223C6.49182 1.53018 6.32055 1.56129 6.16473 1.63271C4.56439 2.36921 3.20834 3.54846 2.25687 5.0311C1.30539 6.51374 0.798261 8.23779 0.79541 9.99947C0.79541 10.2867 0.809046 10.5756 0.835467 10.8603C0.851301 11.0294 0.90902 11.1919 1.00341 11.3332C1.0978 11.4744 1.22589 11.5899 1.37611 11.6693C1.52633 11.7486 1.69394 11.7893 1.86382 11.7876C2.03369 11.7859 2.20048 11.742 2.3491 11.6597L7.08689 9.03129ZM5.56814 4.37958V7.53299L2.9099 9.00742C3.16967 7.18098 4.12133 5.52419 5.56814 4.37958ZM18.0011 5.45344C17.9917 5.43299 17.9806 5.41339 17.9696 5.39379C17.9585 5.37418 17.9474 5.35714 17.9355 5.34009C17.1231 3.95699 15.9637 2.81005 14.5718 2.01284C13.1799 1.21563 11.604 0.795803 9.99996 0.794922C9.72871 0.794922 9.46858 0.902673 9.27678 1.09447C9.08498 1.28627 8.97723 1.54641 8.97723 1.81765V9.44805L2.43007 13.2611C2.31365 13.3289 2.21177 13.4191 2.13029 13.5264C2.04881 13.6337 1.98933 13.756 1.95528 13.8864C1.92122 14.0167 1.91326 14.1525 1.93185 14.286C1.95044 14.4194 1.99521 14.5479 2.06359 14.664C3.08702 16.406 4.65521 17.763 6.52627 18.5255C8.39733 19.288 10.4673 19.4137 12.4169 18.8831C14.3664 18.3526 16.0873 17.1954 17.3139 15.5899C18.5406 13.9844 19.205 12.0199 19.2045 9.99947C19.2068 8.40509 18.7919 6.83785 18.0011 5.45344ZM11.0227 2.91282C12.8414 3.17729 14.4891 4.13047 15.625 5.57532L11.0227 8.25657V2.91282ZM9.99996 17.1586C8.9273 17.1557 7.86885 16.9131 6.90198 16.4486C5.93511 15.9841 5.08425 15.3094 4.4116 14.4739L10.4985 10.9284L10.5292 10.9114L16.6477 7.34634C17.081 8.43236 17.2417 9.608 17.1158 10.7705C16.9899 11.933 16.5811 13.0469 15.9253 14.0149C15.2695 14.983 14.3865 15.7756 13.3536 16.3236C12.3207 16.8716 11.1692 17.1583 9.99996 17.1586Z" fill="#3C4DF9"/>
</svg>
