<svg width="20" height="20" viewBox="0 0 20 20" fill="none" xmlns="http://www.w3.org/2000/svg">
<path d="M18.9052 17.4583L14.8578 13.4092C16.0713 11.8277 16.6379 9.84392 16.4426 7.86012C16.2472 5.87633 15.3046 4.04111 13.8059 2.72676C12.3073 1.4124 10.3647 0.717322 8.3724 0.782526C6.38008 0.84773 4.48716 1.66833 3.07762 3.07787C1.66809 4.48741 0.847485 6.38033 0.782281 8.37265C0.717077 10.365 1.41215 12.3075 2.72651 13.8062C4.04087 15.3049 5.87609 16.2475 7.85988 16.4428C9.84367 16.6381 11.8275 16.0716 13.4089 14.858L17.4598 18.9097C17.5549 19.0049 17.6678 19.0803 17.7921 19.1318C17.9164 19.1833 18.0497 19.2098 18.1842 19.2098C18.3187 19.2098 18.452 19.1833 18.5763 19.1318C18.7006 19.0803 18.8135 19.0049 18.9086 18.9097C19.0038 18.8146 19.0792 18.7016 19.1307 18.5773C19.1822 18.453 19.2087 18.3198 19.2087 18.1853C19.2087 18.0507 19.1822 17.9175 19.1307 17.7932C19.0792 17.6689 19.0038 17.556 18.9086 17.4609L18.9052 17.4583ZM2.84073 8.63643C2.84073 7.49019 3.18062 6.3697 3.81744 5.41664C4.45425 4.46358 5.35938 3.72077 6.41836 3.28212C7.47734 2.84348 8.64261 2.72871 9.76682 2.95233C10.891 3.17595 11.9237 3.72791 12.7342 4.53842C13.5447 5.34893 14.0967 6.38158 14.3203 7.50579C14.5439 8.63 14.4291 9.79527 13.9905 10.8542C13.5518 11.9132 12.809 12.8184 11.856 13.4552C10.9029 14.092 9.78241 14.4319 8.63618 14.4319C7.09962 14.4303 5.62644 13.8192 4.53992 12.7327C3.4534 11.6462 2.84231 10.173 2.84073 8.63643Z" fill="#3C4DF9"/>
</svg>
