<svg width="10" height="16" viewBox="0 0 10 16" fill="none" xmlns="http://www.w3.org/2000/svg">
<path d="M8.94097 13.8095C9.12413 13.9927 9.22703 14.2411 9.22703 14.5001C9.22703 14.7592 9.12413 15.0076 8.94097 15.1908C8.7578 15.3739 8.50938 15.4768 8.25034 15.4768C7.99131 15.4768 7.74288 15.3739 7.55972 15.1908L1.05972 8.69075C0.968822 8.60017 0.896701 8.49254 0.847491 8.37403C0.798281 8.25551 0.772949 8.12845 0.772949 8.00013C0.772949 7.8718 0.798281 7.74474 0.847491 7.62623C0.896701 7.50772 0.968822 7.40008 1.05972 7.3095L7.55972 0.809504C7.74288 0.626338 7.99131 0.523437 8.25034 0.523438C8.50938 0.523438 8.7578 0.626339 8.94097 0.809504C9.12413 0.992669 9.22703 1.24109 9.22703 1.50013C9.22703 1.75916 9.12413 2.00759 8.94097 2.19075L3.13241 7.99932L8.94097 13.8095Z" fill="#EEF0FE"/>
</svg>
