<svg width="14" height="20" viewBox="0 0 14 20" fill="none" xmlns="http://www.w3.org/2000/svg">
<path d="M13.4773 13.4087C13.4759 14.5837 13.0085 15.7102 12.1777 16.541C11.3469 17.3718 10.2204 17.8392 9.04543 17.8406H8.02271V18.8633C8.02271 19.1345 7.91495 19.3947 7.72315 19.5865C7.53136 19.7783 7.27122 19.886 6.99998 19.886C6.72873 19.886 6.4686 19.7783 6.2768 19.5865C6.085 19.3947 5.97725 19.1345 5.97725 18.8633V17.8406H4.95452C3.77955 17.8392 2.65308 17.3718 1.82225 16.541C0.991415 15.7102 0.524058 14.5837 0.522705 13.4087C0.522705 13.1375 0.630456 12.8774 0.822255 12.6856C1.01405 12.4938 1.27419 12.386 1.54543 12.386C1.81668 12.386 2.07681 12.4938 2.26861 12.6856C2.46041 12.8774 2.56816 13.1375 2.56816 13.4087C2.56816 14.0416 2.81958 14.6486 3.26711 15.0962C3.71464 15.5437 4.32162 15.7951 4.95452 15.7951H9.04543C9.67834 15.7951 10.2853 15.5437 10.7328 15.0962C11.1804 14.6486 11.4318 14.0416 11.4318 13.4087C11.4318 12.7758 11.1804 12.1689 10.7328 11.7213C10.2853 11.2738 9.67834 11.0224 9.04543 11.0224H5.63634C4.46095 11.0224 3.3337 10.5555 2.50257 9.72432C1.67145 8.8932 1.20452 7.76595 1.20452 6.59055C1.20452 5.41516 1.67145 4.28791 2.50257 3.45679C3.3337 2.62566 4.46095 2.15874 5.63634 2.15874H5.97725V1.13601C5.97725 0.864764 6.085 0.60463 6.2768 0.412831C6.4686 0.221033 6.72873 0.113281 6.99998 0.113281C7.27122 0.113281 7.53136 0.221033 7.72315 0.412831C7.91495 0.60463 8.02271 0.864764 8.02271 1.13601V2.15874H8.36361C9.53859 2.16009 10.6651 2.62745 11.4959 3.45828C12.3267 4.28911 12.7941 5.41558 12.7954 6.59055C12.7954 6.8618 12.6877 7.12193 12.4959 7.31373C12.3041 7.50553 12.0439 7.61328 11.7727 7.61328C11.5015 7.61328 11.2413 7.50553 11.0495 7.31373C10.8577 7.12193 10.75 6.8618 10.75 6.59055C10.75 5.95765 10.4986 5.35067 10.051 4.90314C9.6035 4.45561 8.99652 4.20419 8.36361 4.20419H5.63634C5.00344 4.20419 4.39646 4.45561 3.94893 4.90314C3.5014 5.35067 3.24998 5.95765 3.24998 6.59055C3.24998 7.22346 3.5014 7.83044 3.94893 8.27797C4.39646 8.7255 5.00344 8.97692 5.63634 8.97692H9.04543C10.2204 8.97827 11.3469 9.44563 12.1777 10.2765C13.0085 11.1073 13.4759 12.2338 13.4773 13.4087Z" fill="#3C4DF9"/>
</svg>
