<svg width="16" height="9" viewBox="0 0 16 9" fill="none" xmlns="http://www.w3.org/2000/svg">
<path d="M14.9132 2.16354L8.66325 8.41354C8.57615 8.50094 8.47266 8.57029 8.3587 8.6176C8.24475 8.66492 8.12257 8.68928 7.99918 8.68928C7.8758 8.68928 7.75362 8.66492 7.63967 8.6176C7.52571 8.57029 7.42222 8.50094 7.33512 8.41354L1.08512 2.16354C0.909002 1.98742 0.810059 1.74855 0.810059 1.49948C0.810059 1.25041 0.909002 1.01154 1.08512 0.835415C1.26124 0.659295 1.50011 0.560352 1.74918 0.560352C1.99826 0.560352 2.23713 0.659295 2.41325 0.835415L7.99997 6.42213L13.5867 0.834634C13.7628 0.658514 14.0017 0.55957 14.2507 0.55957C14.4998 0.55957 14.7387 0.658514 14.9148 0.834634C15.0909 1.01075 15.1899 1.24963 15.1899 1.4987C15.1899 1.74777 15.0909 1.98664 14.9148 2.16276L14.9132 2.16354Z" fill="#3C4DF9"/>
</svg>
