<svg width="10" height="16" viewBox="0 0 10 16" fill="none" xmlns="http://www.w3.org/2000/svg">
<path d="M1.05903 13.8095C0.875866 13.9927 0.772965 14.2411 0.772965 14.5001C0.772965 14.7592 0.875866 15.0076 1.05903 15.1908C1.2422 15.3739 1.49062 15.4768 1.74966 15.4768C2.00869 15.4768 2.25712 15.3739 2.44028 15.1908L8.94028 8.69075C9.03118 8.60017 9.1033 8.49254 9.15251 8.37403C9.20172 8.25551 9.22705 8.12845 9.22705 8.00013C9.22705 7.8718 9.20172 7.74474 9.15251 7.62623C9.1033 7.50772 9.03118 7.40008 8.94028 7.3095L2.44028 0.809504C2.25712 0.626338 2.00869 0.523437 1.74966 0.523438C1.49062 0.523438 1.2422 0.626339 1.05903 0.809504C0.875866 0.992669 0.772965 1.24109 0.772965 1.50013C0.772965 1.75916 0.875866 2.00759 1.05903 2.19075L6.86759 7.99932L1.05903 13.8095Z" fill="#EEF0FE"/>
</svg>
