<svg width="15" height="16" viewBox="0 0 15 16" fill="none" xmlns="http://www.w3.org/2000/svg">
<path d="M14.684 13.6693C14.8852 13.8706 14.9982 14.1434 14.9982 14.428C14.9982 14.7125 14.8852 14.9854 14.684 15.1866C14.4828 15.3879 14.2099 15.5009 13.9253 15.5009C13.6408 15.5009 13.3679 15.3879 13.1667 15.1866L7.5 9.51819L1.83154 15.1849C1.63034 15.3861 1.35744 15.4991 1.07289 15.4991C0.788345 15.4991 0.51545 15.3861 0.314243 15.1849C0.113037 14.9837 4.24011e-09 14.7108 0 14.4262C-4.24011e-09 14.1417 0.113037 13.8688 0.314243 13.6676L5.9827 8.00089L0.316028 2.33244C0.114822 2.13123 0.0017851 1.85834 0.0017851 1.57379C0.0017851 1.28924 0.114822 1.01634 0.316028 0.815136C0.517235 0.613929 0.790129 0.500892 1.07468 0.500892C1.35923 0.500892 1.63212 0.613929 1.83333 0.815136L7.5 6.48359L13.1685 0.814243C13.3697 0.613036 13.6426 0.5 13.9271 0.5C14.2117 0.5 14.4845 0.613036 14.6858 0.814243C14.887 1.01545 15 1.28834 15 1.57289C15 1.85744 14.887 2.13034 14.6858 2.33154L9.0173 8.00089L14.684 13.6693Z" fill="#636363"/>
</svg>
