<svg width="16" height="20" viewBox="0 0 16 20" fill="none" xmlns="http://www.w3.org/2000/svg">
<path d="M7.99984 4.20419C7.25816 4.20419 6.53314 4.42412 5.91646 4.83618C5.29977 5.24824 4.81913 5.8339 4.5353 6.51913C4.25147 7.20435 4.17721 7.95835 4.3219 8.68578C4.46659 9.41321 4.82375 10.0814 5.34819 10.6058C5.87264 11.1303 6.54083 11.4874 7.26826 11.6321C7.99568 11.7768 8.74969 11.7026 9.43491 11.4187C10.1201 11.1349 10.7058 10.6543 11.1179 10.0376C11.5299 9.42089 11.7498 8.69587 11.7498 7.95419C11.7487 6.95998 11.3533 6.0068 10.6502 5.30379C9.94723 4.60077 8.99406 4.20532 7.99984 4.20419ZM7.99984 9.65874C7.66272 9.65874 7.33316 9.55877 7.05285 9.37147C6.77254 9.18417 6.55406 8.91796 6.42505 8.60649C6.29604 8.29503 6.26228 7.9523 6.32805 7.62165C6.39382 7.291 6.55616 6.98728 6.79455 6.7489C7.03293 6.51051 7.33665 6.34817 7.6673 6.2824C7.99795 6.21663 8.34068 6.25038 8.65215 6.3794C8.96361 6.50841 9.22983 6.72689 9.41712 7.0072C9.60442 7.28751 9.70439 7.61706 9.70439 7.95419C9.70439 8.40626 9.52481 8.83982 9.20514 9.15949C8.88548 9.47915 8.45192 9.65874 7.99984 9.65874ZM7.99984 0.113281C5.921 0.115537 3.92794 0.942355 2.45798 2.41232C0.988009 3.88229 0.161191 5.87534 0.158936 7.95419C0.158936 14.5474 7.11689 19.494 7.41348 19.7011C7.58536 19.8213 7.79006 19.8859 7.99984 19.8859C8.20963 19.8859 8.41433 19.8213 8.58621 19.7011C9.90405 18.7298 11.1098 17.615 12.1811 16.3772C14.5751 13.6278 15.8408 10.713 15.8408 7.95419C15.8385 5.87534 15.0117 3.88229 13.5417 2.41232C12.0717 0.942355 10.0787 0.115537 7.99984 0.113281ZM10.6675 15.0033C9.85485 15.9368 8.96225 16.7974 7.99984 17.5755C7.03744 16.7974 6.14484 15.9368 5.33223 15.0033C3.90894 13.355 2.20439 10.7931 2.20439 7.95419C2.20439 6.41714 2.81498 4.94304 3.90184 3.85619C4.9887 2.76933 6.46279 2.15874 7.99984 2.15874C9.53689 2.15874 11.011 2.76933 12.0979 3.85619C13.1847 4.94304 13.7953 6.41714 13.7953 7.95419C13.7953 10.7931 12.0908 13.355 10.6675 15.0033Z" fill="#3C4DF9"/>
</svg>
