<svg width="19" height="19" viewBox="0 0 19 19" fill="none" xmlns="http://www.w3.org/2000/svg">
<path d="M9.85156 0.0078125C7.4281 0.0103717 5.10464 0.974221 3.39099 2.68787C1.67735 4.40151 0.713497 6.72498 0.710938 9.14844V16.5603C0.711403 17.0186 0.893694 17.4581 1.21781 17.7822C1.54192 18.1063 1.98138 18.2886 2.43975 18.2891H9.85156C12.2758 18.2891 14.6008 17.326 16.315 15.6118C18.0292 13.8976 18.9922 11.5727 18.9922 9.14844C18.9922 6.72419 18.0292 4.39924 16.315 2.68504C14.6008 0.97084 12.2758 0.0078125 9.85156 0.0078125ZM9.85156 16.1797H2.82031V9.14844C2.82031 7.75779 3.23269 6.39837 4.00529 5.24208C4.7779 4.0858 5.87603 3.18459 7.16082 2.65241C8.44561 2.12023 9.85936 1.98099 11.2233 2.25229C12.5872 2.52359 13.8401 3.19325 14.8234 4.17659C15.8067 5.15993 16.4764 6.41278 16.7477 7.77671C17.019 9.14064 16.8798 10.5544 16.3476 11.8392C15.8154 13.124 14.9142 14.2221 13.7579 14.9947C12.6016 15.7673 11.2422 16.1797 9.85156 16.1797ZM9.14844 9.5C9.14844 9.77813 9.06596 10.05 8.91144 10.2813C8.75692 10.5125 8.53729 10.6928 8.28034 10.7992C8.02338 10.9056 7.74063 10.9335 7.46784 10.8792C7.19506 10.825 6.94449 10.691 6.74782 10.4944C6.55115 10.2977 6.41722 10.0471 6.36296 9.77435C6.3087 9.50156 6.33655 9.21881 6.44298 8.96185C6.54942 8.70489 6.72966 8.48527 6.96092 8.33075C7.19217 8.17623 7.46406 8.09375 7.74219 8.09375C8.11515 8.09375 8.47283 8.24191 8.73656 8.50563C9.00028 8.76935 9.14844 9.12704 9.14844 9.5ZM13.3672 9.5C13.3672 9.77813 13.2847 10.05 13.1302 10.2813C12.9757 10.5125 12.756 10.6928 12.4991 10.7992C12.2421 10.9056 11.9594 10.9335 11.6866 10.8792C11.4138 10.825 11.1632 10.691 10.9666 10.4944C10.7699 10.2977 10.636 10.0471 10.5817 9.77435C10.5274 9.50156 10.5553 9.21881 10.6617 8.96185C10.7682 8.70489 10.9484 8.48527 11.1797 8.33075C11.4109 8.17623 11.6828 8.09375 11.9609 8.09375C12.3339 8.09375 12.6916 8.24191 12.9553 8.50563C13.219 8.76935 13.3672 9.12704 13.3672 9.5Z" fill="#3C4DF9"/>
</svg>
