<svg width="27" height="23" viewBox="0 0 27 23" fill="none" xmlns="http://www.w3.org/2000/svg">
<path d="M27 21.5C27 21.8978 26.842 22.2794 26.5607 22.5607C26.2794 22.842 25.8978 23 25.5 23H1.5C1.10218 23 0.720644 22.842 0.43934 22.5607C0.158035 22.2794 0 21.8978 0 21.5V1.5C0 1.10218 0.158035 0.720644 0.43934 0.43934C0.720644 0.158035 1.10218 0 1.5 0C1.89782 0 2.27936 0.158035 2.56066 0.43934C2.84196 0.720644 3 1.10218 3 1.5V13.875L8.43875 8.435C8.57811 8.29516 8.7437 8.18421 8.92602 8.1085C9.10835 8.03279 9.30383 7.99382 9.50125 7.99382C9.69867 7.99382 9.89415 8.03279 10.0765 8.1085C10.2588 8.18421 10.4244 8.29516 10.5638 8.435L13.5 11.375L18.875 6H17.5C17.1022 6 16.7206 5.84196 16.4393 5.56066C16.158 5.27936 16 4.89782 16 4.5C16 4.10218 16.158 3.72064 16.4393 3.43934C16.7206 3.15804 17.1022 3 17.5 3H22.5C22.8978 3 23.2794 3.15804 23.5607 3.43934C23.842 3.72064 24 4.10218 24 4.5V9.5C24 9.89782 23.842 10.2794 23.5607 10.5607C23.2794 10.842 22.8978 11 22.5 11C22.1022 11 21.7206 10.842 21.4393 10.5607C21.158 10.2794 21 9.89782 21 9.5V8.125L14.5613 14.565C14.4219 14.7048 14.2563 14.8158 14.074 14.8915C13.8917 14.9672 13.6962 15.0062 13.4987 15.0062C13.3013 15.0062 13.1058 14.9672 12.9235 14.8915C12.7412 14.8158 12.5756 14.7048 12.4362 14.565L9.5 11.625L3 18.125V20H25.5C25.8978 20 26.2794 20.158 26.5607 20.4393C26.842 20.7206 27 21.1022 27 21.5Z" fill="#3C4DF9"/>
</svg>
