<svg width="24" height="27" viewBox="0 0 24 27" fill="none" xmlns="http://www.w3.org/2000/svg">
<path d="M23.0613 7.43875L16.0613 0.438751C15.9218 0.299499 15.7564 0.189078 15.5743 0.113796C15.3922 0.0385136 15.197 -0.000154479 15 4.63799e-07H3C2.33696 4.63799e-07 1.70107 0.263393 1.23223 0.732234C0.763392 1.20107 0.5 1.83696 0.5 2.5V24.5C0.5 25.163 0.763392 25.7989 1.23223 26.2678C1.70107 26.7366 2.33696 27 3 27H21C21.663 27 22.2989 26.7366 22.7678 26.2678C23.2366 25.7989 23.5 25.163 23.5 24.5V8.5C23.5002 8.30296 23.4615 8.10782 23.3862 7.92573C23.3109 7.74363 23.2005 7.57816 23.0613 7.43875ZM16 4.625L18.875 7.5H16V4.625ZM3.5 24V3H13V9C13 9.39782 13.158 9.77936 13.4393 10.0607C13.7206 10.342 14.1022 10.5 14.5 10.5H20.5V24H3.5ZM16.5 16.5C16.5 16.8978 16.342 17.2794 16.0607 17.5607C15.7794 17.842 15.3978 18 15 18H13.5V19.5C13.5 19.8978 13.342 20.2794 13.0607 20.5607C12.7794 20.842 12.3978 21 12 21C11.6022 21 11.2206 20.842 10.9393 20.5607C10.658 20.2794 10.5 19.8978 10.5 19.5V18H9C8.60218 18 8.22064 17.842 7.93934 17.5607C7.65804 17.2794 7.5 16.8978 7.5 16.5C7.5 16.1022 7.65804 15.7206 7.93934 15.4393C8.22064 15.158 8.60218 15 9 15H10.5V13.5C10.5 13.1022 10.658 12.7206 10.9393 12.4393C11.2206 12.158 11.6022 12 12 12C12.3978 12 12.7794 12.158 13.0607 12.4393C13.342 12.7206 13.5 13.1022 13.5 13.5V15H15C15.3978 15 15.7794 15.158 16.0607 15.4393C16.342 15.7206 16.5 16.1022 16.5 16.5Z" fill="white"/>
</svg>
