<svg width="20" height="21" viewBox="0 0 20 21" fill="none" xmlns="http://www.w3.org/2000/svg">
<path d="M16.9132 9.07223L10.6632 15.3222C10.5762 15.4096 10.4727 15.479 10.3587 15.5263C10.2447 15.5736 10.1226 15.598 9.99918 15.598C9.8758 15.598 9.75362 15.5736 9.63967 15.5263C9.52571 15.479 9.42222 15.4096 9.33512 15.3222L3.08512 9.07223C2.909 8.89611 2.81006 8.65724 2.81006 8.40817C2.81006 8.1591 2.909 7.92023 3.08512 7.74411C3.26124 7.56799 3.50011 7.46904 3.74918 7.46904C3.99826 7.46904 4.23713 7.56799 4.41325 7.74411L9.99997 13.3308L15.5867 7.74333C15.7628 7.56721 16.0017 7.46826 16.2507 7.46826C16.4998 7.46826 16.7387 7.56721 16.9148 7.74333C17.0909 7.91945 17.1899 8.15832 17.1899 8.40739C17.1899 8.65646 17.0909 8.89533 16.9148 9.07145L16.9132 9.07223Z" fill="white"/>
</svg>
