<svg width="20" height="21" viewBox="0 0 20 21" fill="none" xmlns="http://www.w3.org/2000/svg">
<path d="M16.9132 8.25387L10.6632 14.5039C10.5762 14.5913 10.4727 14.6606 10.3587 14.7079C10.2447 14.7553 10.1226 14.7796 9.99918 14.7796C9.8758 14.7796 9.75362 14.7553 9.63967 14.7079C9.52571 14.6606 9.42222 14.5913 9.33512 14.5039L3.08512 8.25387C2.909 8.07775 2.81006 7.83888 2.81006 7.58981C2.81006 7.34074 2.909 7.10187 3.08512 6.92575C3.26124 6.74963 3.50011 6.65068 3.74918 6.65068C3.99826 6.65068 4.23713 6.74963 4.41325 6.92575L9.99997 12.5125L15.5867 6.92497C15.7628 6.74885 16.0017 6.6499 16.2507 6.6499C16.4998 6.6499 16.7387 6.74885 16.9148 6.92497C17.0909 7.10109 17.1899 7.33996 17.1899 7.58903C17.1899 7.8381 17.0909 8.07697 16.9148 8.25309L16.9132 8.25387Z" fill="white"/>
</svg>
