<svg width="30" height="32" viewBox="0 0 30 32" fill="none" xmlns="http://www.w3.org/2000/svg">
<g clip-path="url(#clip0_555_1388)">
<path d="M14.7597 18.3761C15.6163 17.6561 16.2307 16.6901 16.5196 15.609C16.8085 14.528 16.758 13.3842 16.3748 12.3329C15.9917 11.2816 15.2944 10.3735 14.3777 9.73187C13.4609 9.09024 12.369 8.74609 11.25 8.74609C10.131 8.74609 9.03911 9.09024 8.12236 9.73187C7.20561 10.3735 6.50837 11.2816 6.12521 12.3329C5.74205 13.3842 5.6915 14.528 5.98043 15.609C6.26935 16.6901 6.88377 17.6561 7.74035 18.3761C6.40278 18.9809 5.24363 19.9202 4.37473 21.1034C4.21424 21.3221 4.1472 21.5955 4.18836 21.8637C4.22952 22.1318 4.3755 22.3726 4.59419 22.533C4.81288 22.6935 5.08636 22.7606 5.35448 22.7194C5.6226 22.6783 5.86339 22.5323 6.02387 22.3136C6.62536 21.4921 7.41202 20.824 8.32005 20.3634C9.22807 19.9029 10.2319 19.6629 11.25 19.6629C12.2682 19.6629 13.272 19.9029 14.18 20.3634C15.088 20.824 15.8747 21.4921 16.4761 22.3136C16.6366 22.5324 16.8775 22.6785 17.1457 22.7197C17.4139 22.761 17.6875 22.694 17.9063 22.5335C18.1251 22.373 18.2712 22.1322 18.3124 21.864C18.3536 21.5958 18.2866 21.3222 18.1261 21.1034C17.2567 19.9203 16.0974 18.9811 14.7597 18.3761ZM7.84092 14.2051C7.84092 13.5308 8.04086 12.8717 8.41546 12.3111C8.79005 11.7505 9.32248 11.3135 9.94541 11.0555C10.5683 10.7974 11.2538 10.7299 11.9151 10.8615C12.5764 10.993 13.1838 11.3177 13.6606 11.7945C14.1374 12.2712 14.4621 12.8787 14.5936 13.54C14.7251 14.2013 14.6576 14.8867 14.3996 15.5097C14.1416 16.1326 13.7046 16.665 13.144 17.0396C12.5834 17.4142 11.9243 17.6142 11.25 17.6142C10.3459 17.6142 9.47875 17.255 8.83942 16.6157C8.20009 15.9763 7.84092 15.1092 7.84092 14.2051ZM25.4063 22.5292C25.298 22.6088 25.1751 22.6662 25.0446 22.6983C24.9141 22.7303 24.7786 22.7363 24.6458 22.716C24.513 22.6957 24.3855 22.6494 24.2706 22.5797C24.1557 22.5101 24.0556 22.4185 23.9761 22.3102C23.3732 21.4903 22.5862 20.8233 21.6785 20.363C20.7708 19.9026 19.7678 19.6617 18.75 19.6596C18.4788 19.6596 18.2186 19.5519 18.0268 19.3601C17.835 19.1683 17.7273 18.9081 17.7273 18.6369C17.7273 18.3656 17.835 18.1055 18.0268 17.9137C18.2186 17.7219 18.4788 17.6142 18.75 17.6142C19.252 17.6136 19.7476 17.5021 20.2015 17.2878C20.6554 17.0735 21.0564 16.7616 21.3758 16.3744C21.6952 15.9872 21.9252 15.5342 22.0493 15.0479C22.1734 14.5615 22.1885 14.0537 22.0937 13.5608C21.9988 13.0679 21.7963 12.602 21.5005 12.1964C21.2048 11.7908 20.8231 11.4556 20.3828 11.2146C19.9424 10.9736 19.4543 10.8328 18.9533 10.8023C18.4523 10.7718 17.9507 10.8523 17.4844 11.038C17.3595 11.0892 17.2257 11.1151 17.0907 11.1143C16.9557 11.1135 16.8222 11.0859 16.6979 11.0333C16.5737 10.9806 16.461 10.9039 16.3665 10.8075C16.272 10.7111 16.1976 10.597 16.1474 10.4717C16.0972 10.3464 16.0724 10.2124 16.0742 10.0774C16.0761 9.94244 16.1047 9.80918 16.1583 9.68531C16.2119 9.56143 16.2895 9.4494 16.3866 9.35566C16.4837 9.26193 16.5985 9.18834 16.7242 9.13915C17.9278 8.65723 19.2638 8.61984 20.4926 9.03368C21.7213 9.44753 22.7625 10.2855 23.4293 11.3975C24.0962 12.5094 24.3452 13.8225 24.1316 15.1014C23.918 16.3802 23.2559 17.5412 22.2639 18.3761C23.6015 18.9809 24.7607 19.9202 25.6296 21.1034C25.7884 21.3222 25.8542 21.5952 25.8123 21.8624C25.7705 22.1296 25.6245 22.3694 25.4063 22.5292Z" fill="white"/>
</g>
<defs>
<clipPath id="clip0_555_1388">
<rect width="21.8182" height="21.8182" fill="white" transform="translate(4.09091 5.00049)"/>
</clipPath>
</defs>
</svg>
