<svg width="30" height="32" viewBox="0 0 30 32" fill="none" xmlns="http://www.w3.org/2000/svg">
<path d="M15 10.296C14.2583 10.296 13.5333 10.5159 12.9166 10.928C12.2999 11.34 11.8193 11.9257 11.5354 12.6109C11.2516 13.2961 11.1774 14.0501 11.3221 14.7776C11.4667 15.505 11.8239 16.1732 12.3483 16.6976C12.8728 17.2221 13.541 17.5792 14.2684 17.7239C14.9958 17.8686 15.7498 17.7944 16.4351 17.5105C17.1203 17.2267 17.706 16.7461 18.118 16.1294C18.5301 15.5127 18.75 14.7877 18.75 14.046C18.7489 13.0518 18.3534 12.0986 17.6504 11.3956C16.9474 10.6926 15.9942 10.2971 15 10.296ZM15 15.7505C14.6629 15.7505 14.3333 15.6506 14.053 15.4633C13.7727 15.276 13.5542 15.0098 13.4252 14.6983C13.2962 14.3868 13.2624 14.0441 13.3282 13.7134C13.394 13.3828 13.5563 13.0791 13.7947 12.8407C14.0331 12.6023 14.3368 12.44 14.6675 12.3742C14.9981 12.3084 15.3408 12.3422 15.6523 12.4712C15.9638 12.6002 16.23 12.8187 16.4173 13.099C16.6046 13.3793 16.7045 13.7089 16.7045 14.046C16.7045 14.4981 16.525 14.9316 16.2053 15.2513C15.8856 15.5709 15.4521 15.7505 15 15.7505ZM15 6.20508C12.9212 6.20733 10.9281 7.03415 9.45813 8.50412C7.98816 9.97409 7.16134 11.9671 7.15909 14.046C7.15909 20.6392 14.117 25.5858 14.4136 25.7929C14.5855 25.9131 14.7902 25.9776 15 25.9776C15.2098 25.9776 15.4145 25.9131 15.5864 25.7929C16.9042 24.8216 18.1099 23.7068 19.1812 22.469C21.5753 19.7196 22.8409 16.8048 22.8409 14.046C22.8387 11.9671 22.0118 9.97409 20.5419 8.50412C19.0719 7.03415 17.0788 6.20733 15 6.20508ZM17.6676 21.0951C16.855 22.0286 15.9624 22.8892 15 23.6673C14.0376 22.8892 13.145 22.0286 12.3324 21.0951C10.9091 19.4468 9.20454 16.8849 9.20454 14.046C9.20454 12.5089 9.81513 11.0348 10.902 9.94798C11.9889 8.86112 13.4629 8.25053 15 8.25053C16.537 8.25053 18.0111 8.86112 19.098 9.94798C20.1849 11.0348 20.7955 12.5089 20.7955 14.046C20.7955 16.8849 19.0909 19.4468 17.6676 21.0951Z" fill="white"/>
</svg>
