<svg width="115" height="35" viewBox="0 0 115 35" fill="none" xmlns="http://www.w3.org/2000/svg">
<path d="M0.911408 27.0384L10.3293 10.0689L14.1485 16.9262L7.94227 28.1669L7.63847 28.7311H0L0.911408 27.0384Z" fill="url(#paint0_linear_315_9309)"/>
<path d="M32.2465 27.0384L33.1579 28.7311H25.5194L25.2156 28.1669L16.6657 12.7597L16.5789 12.5861L12.7597 5.68545L13.0635 5.12125L15.5373 0.607608L15.8411 0H17.3168L17.5772 0.607608L20.0944 5.12125L32.2465 27.0384Z" fill="url(#paint1_linear_315_9309)"/>
<path d="M15.9547 32.7835C15.6973 32.5295 15.6946 32.115 15.9485 31.8577C16.2024 31.6003 16.6169 31.5975 16.8743 31.8515L18.19 33.1497C18.4474 33.4036 18.4502 33.8181 18.1962 34.0754C17.9423 34.3328 17.5278 34.3356 17.2705 34.0817L15.9547 32.7835Z" fill="url(#paint2_linear_315_9309)"/>
<path d="M17.4475 30.9626C17.1357 31.2786 17.1391 31.7876 17.4551 32.0994L18.7495 33.3765C19.0656 33.6884 19.5745 33.685 19.8864 33.3689C20.1982 33.0529 20.1948 32.5439 19.8787 32.232L18.5844 30.9549C18.2683 30.6431 17.7593 30.6465 17.4475 30.9626Z" fill="url(#paint3_linear_315_9309)"/>
<path d="M18.9536 30.9966C18.6375 30.6847 18.6341 30.1758 18.9459 29.8597C19.2578 29.5437 19.7667 29.5402 20.0828 29.8521L21.3772 31.1292C21.6932 31.441 21.6966 31.95 21.3848 32.266C21.073 32.5821 20.564 32.5855 20.2479 32.2737L18.9536 30.9966Z" fill="url(#paint4_linear_315_9309)"/>
<path d="M20.2524 28.6149C19.9405 28.9309 19.9439 29.4399 20.26 29.7517L21.5544 31.0288C21.8704 31.3407 22.3794 31.3373 22.6912 31.0212C23.0031 30.7052 22.9997 30.1962 22.6836 29.8843L21.3892 28.6072C21.0732 28.2954 20.5642 28.2988 20.2524 28.6149Z" fill="url(#paint5_linear_315_9309)"/>
<path fill-rule="evenodd" clip-rule="evenodd" d="M14.5656 27.0311C13.4405 28.8295 12.7092 29.6898 11.197 30.9219C9.22312 29.5471 8.53161 28.4295 7.60084 26.183C6.72318 21.9131 7.1686 19.8787 9.56595 16.8668L11.1362 17.2639C9.06325 20.6953 9.43938 22.2957 10.8028 25.0048L12.1322 24.6846C13.87 24.1526 14.5375 24.2268 15.6714 24.3529L15.7773 24.3646C16.9269 24.7425 17.524 25.0196 18.6077 25.7198L19.1097 26.3038C19.3786 27.4437 18.5029 28.165 17.3678 27.9636L14.5656 27.0311Z" fill="url(#paint6_linear_315_9309)"/>
<path d="M11.573 31.0359C12.3159 30.2864 13.8102 28.7788 14.7474 27.4436L17.5881 28.3735C18.2583 28.4091 18.57 28.2293 19.0943 27.81C19.5121 27.2608 19.5541 26.8889 19.4479 26.1656C18.189 24.8863 17.3267 24.431 15.5237 24.0342L17.4833 23.9037C20.2175 24.6058 21.435 25.3923 22.9058 27.6719C22.6138 26.234 22.0692 25.5841 20.844 24.5288C23.1981 23.0965 23.565 20.4311 22.7933 18.0259L25.8902 23.8067C25.6672 25.6741 24.7424 27.9256 22.9698 29.7903L21.0846 28.1406C19.9896 28.1525 19.8006 28.5125 19.6578 29.3162C18.751 29.3791 18.4942 29.6471 18.3411 30.4074C17.3314 30.3356 17.0524 30.6324 16.7888 31.437C15.4721 31.3704 15.2576 32.036 15.8102 32.9688C14.9636 33.5133 14.5007 33.5724 13.6841 33.4964C14.6166 32.6868 14.9942 32.1922 15.5823 31.2859C14.6631 32.27 14.1282 32.7137 13.1257 33.2248C12.4641 33.2173 12.1644 33.1688 12.242 32.7048C13.1236 32.0201 13.5094 31.5758 14.0377 30.6941L11.991 32.4128C11.1969 32.6586 10.8691 31.7928 11.156 31.465C11.1809 31.4365 11.2194 31.3956 11.2699 31.3435C11.3452 31.2658 11.447 31.163 11.5695 31.0395L11.5727 31.0363L11.573 31.0359Z" fill="url(#paint7_linear_315_9309)"/>
<path d="M47.8969 5.88189L53.4269 22.0888C53.5912 22.6089 53.7828 23.0196 54.0292 23.2933C54.2482 23.5945 54.6041 23.8408 55.0969 24.0051V24.6348H48.7729V24.0051C49.868 23.7861 50.2513 23.1564 49.8954 22.0888L48.636 18.3382H42.5858L41.4087 22.0888C41.2444 22.6089 41.2444 23.0196 41.4634 23.2933C41.6824 23.5945 42.2573 23.8408 43.1881 24.0051V24.6348H37.9592V24.0051C38.6163 23.6766 39.0817 23.3481 39.3554 23.0196C39.6292 22.691 39.903 22.1709 40.122 21.4591L45.1045 5.88189H47.8969ZM48.198 16.9694L45.5151 8.94805L42.9965 16.9694H48.198ZM66.9319 13.383C66.9319 13.8211 66.795 14.177 66.5212 14.4507C66.2475 14.7245 65.8916 14.8614 65.5083 14.8614C65.0155 14.8614 64.6322 14.7519 64.3585 14.4781C64.0847 14.2043 63.9478 13.8758 63.9478 13.4652C63.9478 12.9998 64.1395 12.5617 64.5501 12.1511C64.0847 11.7678 63.4551 11.5762 62.6338 11.5762C61.4839 11.5762 60.5805 12.069 59.9235 13.0271C59.2665 13.9853 58.9379 15.3268 58.9379 17.0789C58.9379 20.8021 60.4436 22.6363 63.4551 22.6363C64.9334 22.6363 66.1653 22.1983 67.1509 21.2948V21.9519C66.3296 23.923 64.6596 24.9085 62.1957 24.9085C60.2246 24.9085 58.6642 24.2789 57.5417 23.0196C56.3919 21.7602 55.8444 20.0903 55.8444 17.9823C55.8444 15.8469 56.4467 14.0948 57.706 12.726C58.9379 11.3572 60.6079 10.6728 62.6885 10.6728C63.7836 10.6728 64.7417 10.9192 65.6178 11.4119C66.4938 11.9047 66.9319 12.5617 66.9319 13.383ZM77.9825 27.9199V22.6363C77.1065 23.4576 76.34 24.0325 75.7377 24.3884C75.1354 24.7443 74.451 24.9085 73.6844 24.9085C72.1514 24.9085 70.9468 24.361 70.1255 23.2112C69.2768 22.0614 68.8662 20.364 68.8662 18.0644C68.8662 15.5732 69.4137 13.7116 70.5088 12.507C71.6038 11.3024 73 10.6728 74.7521 10.6728C76.1209 10.6728 77.3529 11.0834 78.4206 11.85L80.1727 10.6728H80.9118V27.9199C80.9118 28.2758 80.9118 28.5222 80.9392 28.6865C80.9392 28.8507 80.994 29.0424 81.1035 29.2614C81.1856 29.4804 81.3499 29.6447 81.5689 29.7542C81.7879 29.8637 82.0616 29.9732 82.4449 30.0279V30.6576H75.9841V30.0279C76.4495 29.9732 76.8327 29.8637 77.1339 29.7542C77.4076 29.6447 77.6267 29.4804 77.7362 29.2614C77.8457 29.0424 77.9004 28.8507 77.9278 28.6865C77.9552 28.5222 77.9825 28.2758 77.9825 27.9199ZM77.9825 21.7329V12.6986C77.3255 12.3975 76.5042 12.2332 75.5187 12.2332C73.1917 12.2332 72.0419 14.0948 72.0419 17.7906C72.0419 19.6522 72.2609 20.9389 72.7536 21.7055C73.219 22.472 73.9582 22.8553 74.9711 22.8553C75.9293 22.8553 76.9422 22.4994 77.9825 21.7329ZM84.8194 7.88037C84.8194 7.36022 84.9836 6.92219 85.3395 6.59367C85.6681 6.26516 86.1335 6.1009 86.681 6.1009C87.2011 6.1009 87.6392 6.26516 88.0224 6.59367C88.3783 6.92219 88.57 7.36022 88.57 7.88037C88.57 8.4279 88.3783 8.83854 88.0224 9.16706C87.6392 9.49558 87.2011 9.65984 86.681 9.65984C86.1335 9.65984 85.6681 9.52296 85.3395 9.19444C84.9836 8.86592 84.8194 8.4279 84.8194 7.88037ZM88.1867 10.6728V21.8971C88.1867 22.253 88.1867 22.4994 88.2141 22.6637C88.2141 22.8279 88.2688 23.0196 88.3783 23.2386C88.4605 23.4576 88.6247 23.6218 88.8437 23.7313C89.0627 23.8408 89.3639 23.9504 89.7472 24.0051V24.6348H83.7243V24.0051C84.4361 23.8956 84.8741 23.6766 85.0384 23.3754C85.2027 23.0743 85.2848 22.5815 85.2848 21.8971V14.7792C85.2848 14.5055 85.2574 14.3138 85.2574 14.1496C85.23 13.9853 85.1753 13.8211 85.0932 13.602C84.9836 13.383 84.8194 13.2188 84.6004 13.0819C84.3814 12.9724 84.0802 12.8629 83.7243 12.7808V12.1237L88.1867 10.6728ZM92.8775 10.9465V9.87885C92.8775 8.12676 93.3155 6.81269 94.2189 5.93664C95.1224 5.08797 96.1627 4.64995 97.3398 4.64995C98.079 4.64995 98.7087 4.84158 99.2014 5.22485C99.6942 5.60812 99.9406 6.07352 99.9406 6.64843C99.9406 7.11383 99.8037 7.46972 99.53 7.74349C99.2562 8.01725 98.9277 8.15413 98.517 8.15413C98.0516 8.15413 97.6957 8.04463 97.422 7.77086C97.1482 7.52448 97.0387 7.22333 97.0387 6.84006C97.0387 6.40204 97.2303 5.99139 97.6684 5.6355C97.5041 5.58075 97.2851 5.55337 97.0113 5.55337C96.5733 5.55337 96.2174 5.71763 95.8889 6.04615C95.5604 6.37466 95.4235 6.89482 95.4235 7.57923C95.4235 8.20889 95.533 9.33132 95.8068 10.9465H98.8182V12.2332H95.8068V21.8971C95.8068 22.253 95.8068 22.4994 95.8341 22.6637C95.8615 22.8279 95.9436 23.0196 96.0532 23.2386C96.1627 23.4576 96.3817 23.6218 96.6828 23.7313C96.984 23.8408 97.3946 23.9504 97.9148 24.0051V24.6348H91.3444V24.0051C91.7003 23.9504 92.0014 23.8408 92.2204 23.7313C92.4395 23.6218 92.5763 23.4576 92.6858 23.2386C92.768 23.0196 92.8227 22.8279 92.8501 22.6637C92.8501 22.4994 92.8775 22.253 92.8775 21.8971V12.2332H91.3444V11.5762L92.8775 10.9465ZM113.28 10.9465V11.5762C112.486 12.1237 111.911 12.8629 111.583 13.8211L108.544 21.815C107.942 23.3481 107.367 24.6895 106.819 25.7846C106.272 26.907 105.752 27.7831 105.314 28.4401C104.876 29.0971 104.41 29.5899 103.945 29.9732C103.479 30.3564 103.069 30.6302 102.713 30.7397C102.33 30.8766 101.946 30.9314 101.536 30.9314C100.961 30.9314 100.495 30.7945 100.167 30.466C99.811 30.1648 99.6467 29.7815 99.6467 29.3435C99.6467 28.9055 99.7836 28.5222 100.085 28.2485C100.359 27.9747 100.714 27.8378 101.098 27.8378C101.399 27.8378 101.673 27.9473 101.946 28.139C102.22 28.3306 102.357 28.6591 102.357 29.0971C102.357 29.3435 102.302 29.5625 102.248 29.7542C103.26 29.6447 104.492 28.0568 105.916 25.0454L101.152 13.7663C100.879 13.164 100.605 12.726 100.386 12.4249C100.14 12.1237 99.811 11.85 99.4004 11.5762V10.9465H105.095V11.5762C104.684 11.7678 104.41 11.9321 104.246 12.0963C104.082 12.2606 104 12.4249 104 12.6439C104 12.8629 104.082 13.1914 104.246 13.602L107.394 21.4043L109.94 13.602C110.05 13.2188 110.105 12.9176 110.105 12.726C110.105 12.4796 109.995 12.2606 109.803 12.0963C109.584 11.9321 109.229 11.7678 108.708 11.5762V10.9465H113.28Z" fill="white"/>
<defs>
<linearGradient id="paint0_linear_315_9309" x1="16.5789" y1="0" x2="16.5789" y2="34.2703" gradientUnits="userSpaceOnUse">
<stop stop-color="white"/>
<stop offset="1" stop-color="#DEDEDE"/>
</linearGradient>
<linearGradient id="paint1_linear_315_9309" x1="16.5789" y1="0" x2="16.5789" y2="34.2703" gradientUnits="userSpaceOnUse">
<stop stop-color="white"/>
<stop offset="1" stop-color="white"/>
</linearGradient>
<linearGradient id="paint2_linear_315_9309" x1="16.5789" y1="0" x2="16.5789" y2="34.2703" gradientUnits="userSpaceOnUse">
<stop stop-color="white"/>
<stop offset="1" stop-color="#DEDEDE"/>
</linearGradient>
<linearGradient id="paint3_linear_315_9309" x1="16.5789" y1="0" x2="16.5789" y2="34.2703" gradientUnits="userSpaceOnUse">
<stop stop-color="white"/>
<stop offset="1" stop-color="#DEDEDE"/>
</linearGradient>
<linearGradient id="paint4_linear_315_9309" x1="16.5789" y1="0" x2="16.5789" y2="34.2703" gradientUnits="userSpaceOnUse">
<stop stop-color="white"/>
<stop offset="1" stop-color="#DEDEDE"/>
</linearGradient>
<linearGradient id="paint5_linear_315_9309" x1="16.5789" y1="0" x2="16.5789" y2="34.2703" gradientUnits="userSpaceOnUse">
<stop stop-color="white"/>
<stop offset="1" stop-color="#DEDEDE"/>
</linearGradient>
<linearGradient id="paint6_linear_315_9309" x1="16.5789" y1="0" x2="16.5789" y2="34.2703" gradientUnits="userSpaceOnUse">
<stop stop-color="white"/>
<stop offset="1" stop-color="#DEDEDE"/>
</linearGradient>
<linearGradient id="paint7_linear_315_9309" x1="16.5789" y1="0" x2="16.5789" y2="34.2703" gradientUnits="userSpaceOnUse">
<stop stop-color="white"/>
<stop offset="1" stop-color="white"/>
</linearGradient>
</defs>
</svg>
