<svg width="28" height="30" viewBox="0 0 28 30" fill="none" xmlns="http://www.w3.org/2000/svg">
<path d="M26.2 6.82966L15.2 0.808411C14.8324 0.606091 14.4196 0.5 14 0.5C13.5804 0.5 13.1676 0.606091 12.8 0.808411L1.8 6.82966C1.4064 7.04502 1.078 7.36234 0.849271 7.74833C0.620538 8.13431 0.499896 8.57474 0.5 9.02341V20.9759C0.499896 21.4246 0.620538 21.865 0.849271 22.251C1.078 22.637 1.4064 22.9543 1.8 23.1697L12.8 29.1909C13.1675 29.3935 13.5804 29.4997 14 29.4997C14.4196 29.4997 14.8325 29.3935 15.2 29.1909L26.2 23.1697C26.5936 22.9543 26.922 22.637 27.1507 22.251C27.3795 21.865 27.5001 21.4246 27.5 20.9759V9.02341C27.5001 8.57474 27.3795 8.13431 27.1507 7.74833C26.922 7.36234 26.5936 7.04502 26.2 6.82966ZM14 3.57091L23 8.49966L20.3213 9.96591L11.3212 5.03841L14 3.57091ZM14 13.4247L5 8.49966L8.195 6.74966L17.195 11.6759L14 13.4247ZM3.5 11.0984L12.5 16.0234V25.6072L3.5 20.6797V11.0984ZM15.5 25.6072V16.0234L18.5 14.3822V17.9997C18.5 18.3975 18.658 18.779 18.9393 19.0603C19.2206 19.3416 19.6022 19.4997 20 19.4997C20.3978 19.4997 20.7794 19.3416 21.0607 19.0603C21.342 18.779 21.5 18.3975 21.5 17.9997V12.7397L24.5 11.0984V20.6797L15.5 25.6072Z" fill="#C0C0C0"/>
</svg>
