<svg width="24" height="28" viewBox="0 0 24 28" fill="none" xmlns="http://www.w3.org/2000/svg">
<path d="M23.0613 7.93875L16.0613 0.938751C15.9218 0.799499 15.7564 0.689078 15.5743 0.613796C15.3922 0.538514 15.197 0.499846 15 0.5H3C2.33696 0.5 1.70107 0.763393 1.23223 1.23223C0.763392 1.70107 0.5 2.33696 0.5 3V25C0.5 25.663 0.763392 26.2989 1.23223 26.7678C1.70107 27.2366 2.33696 27.5 3 27.5H21C21.663 27.5 22.2989 27.2366 22.7678 26.7678C23.2366 26.2989 23.5 25.663 23.5 25V9C23.5002 8.80296 23.4615 8.60782 23.3862 8.42573C23.3109 8.24363 23.2005 8.07816 23.0613 7.93875ZM16 5.125L18.875 8H16V5.125ZM3.5 24.5V3.5H13V9.5C13 9.89782 13.158 10.2794 13.4393 10.5607C13.7206 10.842 14.1022 11 14.5 11H20.5V24.5H3.5ZM16.5 17C16.5 17.3978 16.342 17.7794 16.0607 18.0607C15.7794 18.342 15.3978 18.5 15 18.5H9C8.60218 18.5 8.22064 18.342 7.93934 18.0607C7.65804 17.7794 7.5 17.3978 7.5 17C7.5 16.6022 7.65804 16.2206 7.93934 15.9393C8.22064 15.658 8.60218 15.5 9 15.5H15C15.3978 15.5 15.7794 15.658 16.0607 15.9393C16.342 16.2206 16.5 16.6022 16.5 17Z" fill="#C0C0C0"/>
</svg>
