<svg width="18" height="18" viewBox="0 0 18 18" fill="none" xmlns="http://www.w3.org/2000/svg">
<path d="M9.71318 14.0736C9.80852 14.1686 9.88418 14.2815 9.93579 14.4058C9.98741 14.5301 10.014 14.6634 10.014 14.798C10.014 14.9326 9.98741 15.0659 9.93579 15.1902C9.88418 15.3145 9.80852 15.4274 9.71318 15.5225L9.20693 16.0287C8.24763 16.988 6.94654 17.5269 5.58988 17.5269C4.23323 17.5269 2.93214 16.988 1.97284 16.0287C1.01354 15.0694 0.474609 13.7683 0.474609 12.4117C0.474609 11.055 1.01354 9.75392 1.97284 8.79462L4.02852 6.73979C4.95024 5.81579 6.19038 5.27918 7.4949 5.23989C8.79943 5.20059 10.0696 5.66158 11.0453 6.52842C11.146 6.61796 11.2281 6.72646 11.2869 6.84773C11.3457 6.969 11.3801 7.10067 11.388 7.2352C11.3959 7.36974 11.3772 7.50452 11.333 7.63185C11.2889 7.75918 11.22 7.87656 11.1305 7.97729C11.041 8.07802 10.9325 8.16013 10.8112 8.21892C10.6899 8.27772 10.5583 8.31206 10.4237 8.31997C10.2892 8.32788 10.1544 8.30922 10.0271 8.26505C9.89975 8.22087 9.78238 8.15205 9.68165 8.06251C9.09658 7.54291 8.33508 7.26648 7.55294 7.28976C6.77079 7.31305 6.02709 7.6343 5.47397 8.1878L3.42 10.2401C2.84451 10.8156 2.5212 11.5961 2.5212 12.41C2.5212 13.2238 2.84451 14.0044 3.42 14.5798C3.99549 15.1553 4.77602 15.4786 5.58988 15.4786C6.40375 15.4786 7.18428 15.1553 7.75977 14.5798L8.26602 14.0736C8.361 13.9785 8.4738 13.9031 8.59796 13.8516C8.72211 13.8001 8.8552 13.7736 8.9896 13.7736C9.124 13.7736 9.25709 13.8001 9.38124 13.8516C9.5054 13.9031 9.6182 13.9785 9.71318 14.0736ZM16.0268 1.97132C15.0667 1.0135 13.7659 0.475586 12.4098 0.475586C11.0536 0.475586 9.75281 1.0135 8.79273 1.97132L8.28648 2.47757C8.09434 2.6697 7.98641 2.93029 7.98641 3.202C7.98641 3.47372 8.09434 3.7343 8.28648 3.92644C8.47861 4.11857 8.73919 4.2265 9.01091 4.2265C9.28262 4.2265 9.54321 4.11857 9.73534 3.92644L10.2416 3.42019C10.8171 2.8447 11.5976 2.52139 12.4115 2.52139C13.2253 2.52139 14.0059 2.8447 14.5814 3.42019C15.1569 3.99567 15.4802 4.77621 15.4802 5.59007C15.4802 6.40394 15.1569 7.18447 14.5814 7.75996L12.5265 9.81564C11.9729 10.3689 11.2288 10.6897 10.4465 10.7123C9.66413 10.735 8.9027 10.4578 8.31801 9.93752C8.21728 9.84798 8.0999 9.77916 7.97257 9.73498C7.84525 9.69081 7.71047 9.67214 7.57593 9.68006C7.44139 9.68797 7.30972 9.72231 7.18845 9.78111C7.06718 9.8399 6.95868 9.92201 6.86915 10.0227C6.77961 10.1235 6.71079 10.2409 6.66661 10.3682C6.62244 10.4955 6.60378 10.6303 6.61169 10.7648C6.6196 10.8994 6.65394 11.031 6.71274 11.1523C6.77153 11.2736 6.85364 11.3821 6.95437 11.4716C7.92936 12.3383 9.19869 12.7995 10.5026 12.761C11.8065 12.7225 13.0464 12.1872 13.9686 11.2645L16.0243 9.20967C16.9832 8.24983 17.5221 6.94867 17.5225 5.59188C17.523 4.23509 16.9851 2.93355 16.0268 1.97303V1.97132Z" fill="#3C4DF9"/>
</svg>
