<svg width="32" height="24" viewBox="0 0 32 24" fill="none" xmlns="http://www.w3.org/2000/svg">
<path d="M20.5473 17.637C21.47 16.7336 22.1027 15.5757 22.3647 14.3111C22.6266 13.0465 22.5059 11.7326 22.018 10.5369C21.5301 9.34121 20.6971 8.31795 19.6252 7.59765C18.5533 6.87735 17.2912 6.49267 15.9998 6.49267C14.7084 6.49267 13.4462 6.87735 12.3743 7.59765C11.3025 8.31795 10.4694 9.34121 9.98154 10.5369C9.49363 11.7326 9.37296 13.0465 9.6349 14.3111C9.89685 15.5757 10.5295 16.7336 11.4523 17.637C9.88997 18.4675 8.59105 19.7184 7.70228 21.2483C7.51195 21.5922 7.46423 21.9971 7.56939 22.3759C7.67455 22.7547 7.92418 23.077 8.26459 23.2736C8.60499 23.4701 9.00896 23.5252 9.38957 23.427C9.77019 23.3288 10.097 23.0851 10.2998 22.7483C10.8859 21.758 11.7199 20.9374 12.7196 20.3674C13.7193 19.7974 14.8503 19.4977 16.001 19.4977C17.1518 19.4977 18.2827 19.7974 19.2825 20.3674C20.2822 20.9374 21.1161 21.758 21.7023 22.7483C21.7988 22.9227 21.9291 23.0761 22.0855 23.1995C22.2419 23.323 22.4214 23.414 22.6134 23.4673C22.8054 23.5206 23.0062 23.5351 23.2039 23.51C23.4016 23.4849 23.5923 23.4206 23.7648 23.321C23.9374 23.2213 24.0884 23.0882 24.209 22.9296C24.3296 22.7709 24.4173 22.5898 24.4671 22.3968C24.5169 22.2039 24.5278 22.0029 24.499 21.8057C24.4703 21.6085 24.4026 21.419 24.2998 21.2483C23.4103 19.718 22.1105 18.4672 20.5473 17.637ZM12.4998 12.9995C12.4998 12.3073 12.7051 11.6306 13.0896 11.0551C13.4742 10.4795 14.0208 10.0309 14.6604 9.76597C15.2999 9.50106 16.0037 9.43175 16.6826 9.5668C17.3615 9.70185 17.9852 10.0352 18.4747 10.5247C18.9641 11.0142 19.2975 11.6378 19.4325 12.3167C19.5676 12.9957 19.4983 13.6994 19.2334 14.3389C18.9685 14.9785 18.5199 15.5251 17.9443 15.9097C17.3687 16.2943 16.692 16.4995 15.9998 16.4995C15.0715 16.4995 14.1813 16.1308 13.5249 15.4744C12.8685 14.818 12.4998 13.9278 12.4998 12.9995ZM30.901 14.1983C30.7435 14.3167 30.5641 14.403 30.3732 14.4521C30.1823 14.5012 29.9836 14.5122 29.7885 14.4844C29.5933 14.4567 29.4056 14.3907 29.2359 14.2904C29.0663 14.19 28.9181 14.0572 28.7998 13.8995C27.7585 12.5133 26.3185 11.4508 25.1335 11.1945C24.8184 11.1264 24.5337 10.9585 24.3215 10.7159C24.1092 10.4732 23.9809 10.1686 23.9553 9.84723C23.9298 9.52587 24.0085 9.20483 24.1797 8.93169C24.351 8.65855 24.6056 8.44784 24.906 8.3308C25.28 8.18481 25.6133 7.9509 25.8778 7.64886C26.1423 7.34682 26.3301 6.98552 26.4255 6.59553C26.5208 6.20554 26.5208 5.79834 26.4255 5.40835C26.3301 5.01836 26.1423 4.65707 25.8778 4.35502C25.6133 4.05298 25.28 3.81907 24.906 3.67308C24.532 3.5271 24.1284 3.47333 23.7292 3.51632C23.3301 3.55931 22.9471 3.6978 22.6128 3.92007C22.2785 4.14234 22.0026 4.44187 21.8085 4.7933C21.7165 4.97139 21.5897 5.12923 21.4356 5.25748C21.2815 5.38573 21.1033 5.48179 20.9115 5.53999C20.7196 5.59819 20.5181 5.61734 20.3187 5.59632C20.1193 5.57529 19.9262 5.51452 19.7507 5.41759C19.5752 5.32066 19.421 5.18953 19.297 5.03197C19.1731 4.8744 19.082 4.69359 19.0291 4.50021C18.9762 4.30684 18.9627 4.10483 18.9892 3.90612C19.0157 3.70741 19.0818 3.51603 19.1835 3.3433C19.5547 2.68698 20.0569 2.114 20.6588 1.65993C21.2608 1.20586 21.9496 0.88041 22.6827 0.703795C23.4157 0.527179 24.1772 0.50317 24.9199 0.633259C25.6626 0.763348 26.3706 1.04476 27 1.46C27.6293 1.87525 28.1666 2.41547 28.5783 3.0471C28.9901 3.67873 29.2676 4.38828 29.3936 5.13168C29.5196 5.87508 29.4914 6.63644 29.3108 7.36849C29.1301 8.10053 28.8009 8.78761 28.3435 9.38705C29.4441 10.1202 30.4103 11.0373 31.1998 12.0983C31.4386 12.4164 31.5413 12.8163 31.4853 13.2102C31.4293 13.604 31.2191 13.9594 30.901 14.1983ZM6.86603 11.1983C5.68103 11.4545 4.24103 12.517 3.19978 13.9045C2.96026 14.2226 2.60418 14.4326 2.20989 14.4881C1.81559 14.5437 1.41538 14.4403 1.09728 14.2008C0.779188 13.9613 0.569273 13.6052 0.513715 13.2109C0.458158 12.8166 0.561509 12.4164 0.801032 12.0983C1.59083 11.0377 2.55696 10.1206 3.65728 9.38705C3.19991 8.78761 2.87068 8.10053 2.69003 7.36849C2.50938 6.63644 2.48119 5.87508 2.60719 5.13168C2.73319 4.38828 3.0107 3.67873 3.42247 3.0471C3.83425 2.41547 4.37151 1.87525 5.00086 1.46C5.63022 1.04476 6.33823 0.763348 7.08092 0.633259C7.82362 0.50317 8.58513 0.527179 9.31815 0.703795C10.0512 0.88041 10.7401 1.20586 11.342 1.65993C11.944 2.114 12.4461 2.68698 12.8173 3.3433C12.919 3.51603 12.9851 3.70741 13.0116 3.90612C13.0382 4.10483 13.0246 4.30684 12.9717 4.50021C12.9188 4.69359 12.8277 4.8744 12.7038 5.03197C12.5799 5.18953 12.4256 5.32066 12.2501 5.41759C12.0746 5.51452 11.8815 5.57529 11.6821 5.59632C11.4828 5.61734 11.2812 5.59819 11.0894 5.53999C10.8975 5.48179 10.7193 5.38573 10.5652 5.25748C10.4111 5.12923 10.2843 4.97139 10.1923 4.7933C9.99819 4.44187 9.72231 4.14234 9.38799 3.92007C9.05367 3.6978 8.67073 3.55931 8.27157 3.51632C7.87241 3.47333 7.46877 3.5271 7.09478 3.67308C6.7208 3.81907 6.38747 4.05298 6.123 4.35502C5.85852 4.65707 5.67068 5.01836 5.57536 5.40835C5.48003 5.79834 5.48003 6.20554 5.57535 6.59553C5.67068 6.98552 5.85852 7.34682 6.123 7.64886C6.38747 7.9509 6.7208 8.18481 7.09478 8.3308C7.39516 8.44784 7.64985 8.65855 7.82109 8.93169C7.99233 9.20483 8.07101 9.52587 8.04548 9.84723C8.01995 10.1686 7.89156 10.4732 7.67935 10.7159C7.46713 10.9585 7.18238 11.1264 6.86728 11.1945L6.86603 11.1983Z" fill="#C0C0C0"/>
</svg>
