<svg width="31" height="22" viewBox="0 0 31 22" fill="none" xmlns="http://www.w3.org/2000/svg">
<path d="M3 11V17C3 17.3978 2.84196 17.7794 2.56066 18.0607C2.27936 18.342 1.89782 18.5 1.5 18.5C1.10218 18.5 0.720644 18.342 0.43934 18.0607C0.158035 17.7794 0 17.3978 0 17V11C0 10.6022 0.158035 10.2206 0.43934 9.93934C0.720644 9.65804 1.10218 9.5 1.5 9.5C1.89782 9.5 2.27936 9.65804 2.56066 9.93934C2.84196 10.2206 3 10.6022 3 11ZM6.5 6.5C6.10218 6.5 5.72064 6.65804 5.43934 6.93934C5.15804 7.22064 5 7.60218 5 8V20C5 20.3978 5.15804 20.7794 5.43934 21.0607C5.72064 21.342 6.10218 21.5 6.5 21.5C6.89782 21.5 7.27936 21.342 7.56066 21.0607C7.84196 20.7794 8 20.3978 8 20V8C8 7.60218 7.84196 7.22064 7.56066 6.93934C7.27936 6.65804 6.89782 6.5 6.5 6.5ZM11.5 1.5C11.1022 1.5 10.7206 1.65804 10.4393 1.93934C10.158 2.22064 10 2.60218 10 3V20C10 20.3978 10.158 20.7794 10.4393 21.0607C10.7206 21.342 11.1022 21.5 11.5 21.5C11.8978 21.5 12.2794 21.342 12.5607 21.0607C12.842 20.7794 13 20.3978 13 20V3C13 2.60218 12.842 2.22064 12.5607 1.93934C12.2794 1.65804 11.8978 1.5 11.5 1.5ZM26.7925 8.91625C26.3116 6.54117 25.024 4.40554 23.148 2.87156C21.2721 1.33758 18.9233 0.499691 16.5 0.5C16.1022 0.5 15.7206 0.658035 15.4393 0.93934C15.158 1.22064 15 1.60218 15 2C15 2.39782 15.158 2.77936 15.4393 3.06066C15.7206 3.34196 16.1022 3.5 16.5 3.5C18.3597 3.49356 20.155 4.18081 21.535 5.42744C22.915 6.67406 23.7805 8.39047 23.9625 10.2413C23.9948 10.5622 24.1297 10.8642 24.3472 11.1025C24.5648 11.3407 24.8533 11.5025 25.17 11.5638C26.025 11.7292 26.7876 12.2075 27.3089 12.9051C27.8301 13.6028 28.0726 14.4697 27.9888 15.3365C27.9051 16.2034 27.5012 17.0078 26.8561 17.5928C26.2109 18.1778 25.3709 18.5013 24.5 18.5H16.5C16.1022 18.5 15.7206 18.658 15.4393 18.9393C15.158 19.2206 15 19.6022 15 20C15 20.3978 15.158 20.7794 15.4393 21.0607C15.7206 21.342 16.1022 21.5 16.5 21.5H24.5C26.0225 21.5009 27.497 20.9673 28.6664 19.9923C29.8357 19.0174 30.6257 17.6628 30.8986 16.165C31.1715 14.6672 30.9099 13.121 30.1595 11.7963C29.4091 10.4716 28.2175 9.45232 26.7925 8.91625Z" fill="#C0C0C0"/>
</svg>
