<svg width="88" height="66" viewBox="0 0 88 66" fill="none" xmlns="http://www.w3.org/2000/svg">
<path d="M87.3248 33C87.3454 39.9602 85.0861 46.7357 80.8923 52.2905C80.2161 53.1566 79.2269 53.7226 78.1377 53.8669C77.0484 54.0111 75.946 53.7219 75.0678 53.0616C74.1895 52.4013 73.6055 51.4227 73.4415 50.3362C73.2775 49.2497 73.5465 48.1423 74.1907 47.2521C76.4486 44.24 77.9585 40.7345 78.596 37.0245C79.2334 33.3144 78.9802 29.506 77.8571 25.913C76.7341 22.32 74.7734 19.0452 72.1365 16.3586C69.4997 13.6719 66.2622 11.6503 62.6908 10.4602C59.1195 9.27017 55.3164 8.94573 51.5951 9.51367C47.8738 10.0816 44.3406 11.5257 41.2868 13.7268C38.233 15.928 35.7459 18.8233 34.0305 22.1742C32.3151 25.525 31.4204 29.2355 31.4202 33C31.4202 34.112 30.9785 35.1785 30.1922 35.9648C29.4059 36.7511 28.3394 37.1928 27.2274 37.1928C26.1154 37.1928 25.0489 36.7511 24.2626 35.9648C23.4763 35.1785 23.0346 34.112 23.0346 33C23.0325 30.6496 23.2891 28.3061 23.7997 26.0119C19.7224 26.0958 15.8453 27.7959 13.0215 30.7384C10.1976 33.6808 8.65834 37.6245 8.74221 41.7019C8.82607 45.7792 10.5262 49.6563 13.4687 52.4801C16.4111 55.304 20.3548 56.8433 24.4322 56.7594H32.8178C33.9299 56.7594 34.9963 57.2012 35.7826 57.9875C36.5689 58.7738 37.0107 59.8402 37.0107 60.9522C37.0107 62.0643 36.5689 63.1307 35.7826 63.917C34.9963 64.7033 33.9299 65.1451 32.8178 65.1451H24.4322C21.2065 65.149 18.0137 64.4961 15.0485 63.2261C12.0834 61.9561 9.40785 60.0956 7.18505 57.758C4.96226 55.4204 3.23874 52.6547 2.11953 49.6293C1.00032 46.604 0.508876 43.3825 0.675137 40.1611C0.841398 36.9396 1.66189 33.7858 3.08659 30.8918C4.5113 27.9977 6.51039 25.4241 8.96203 23.3278C11.4137 21.2314 14.2665 19.6563 17.3467 18.6983C20.4268 17.7403 23.6698 17.4195 26.878 17.7555C30.272 11.4535 35.6723 6.46453 42.223 3.57943C48.7737 0.694322 56.0999 0.0781248 63.0404 1.82851C69.981 3.57889 76.1387 7.5957 80.5378 13.2423C84.9368 18.8888 87.3253 25.8421 87.3248 33ZM55.3509 30.0335C54.9613 29.6427 54.4985 29.3325 53.9888 29.1209C53.4792 28.9093 52.9328 28.8003 52.3809 28.8003C51.8291 28.8003 51.2827 28.9093 50.773 29.1209C50.2634 29.3325 49.8005 29.6427 49.411 30.0335L38.2301 41.2144C37.8401 41.6045 37.5307 42.0675 37.3196 42.5771C37.1086 43.0866 36.9999 43.6328 36.9999 44.1844C36.9999 44.7359 37.1086 45.2821 37.3196 45.7917C37.5307 46.3013 37.8401 46.7643 38.2301 47.1543C38.6201 47.5443 39.0831 47.8537 39.5927 48.0648C40.1023 48.2759 40.6485 48.3845 41.2 48.3845C41.7516 48.3845 42.2978 48.2759 42.8073 48.0648C43.3169 47.8537 43.7799 47.5443 44.17 47.1543L48.1916 43.1327V60.9522C48.1916 62.0643 48.6333 63.1307 49.4197 63.917C50.206 64.7033 51.2724 65.1451 52.3844 65.1451C53.4964 65.1451 54.5629 64.7033 55.3492 63.917C56.1355 63.1307 56.5773 62.0643 56.5773 60.9522V43.1327L60.5989 47.1578C61.3866 47.9455 62.4549 48.388 63.5688 48.388C64.6828 48.388 65.7511 47.9455 66.5388 47.1578C67.3264 46.3701 67.769 45.3018 67.769 44.1879C67.769 43.0739 67.3264 42.0056 66.5388 41.2179L55.3509 30.0335Z" fill="#C0C0C0"/>
</svg>
