<svg width="28" height="24" viewBox="0 0 28 24" fill="none" xmlns="http://www.w3.org/2000/svg">
<path d="M25 0.5H3C2.33696 0.5 1.70107 0.763392 1.23223 1.23223C0.763392 1.70107 0.5 2.33696 0.5 3V21C0.5 21.663 0.763392 22.2989 1.23223 22.7678C1.70107 23.2366 2.33696 23.5 3 23.5H25C25.663 23.5 26.2989 23.2366 26.7678 22.7678C27.2366 22.2989 27.5 21.663 27.5 21V3C27.5 2.33696 27.2366 1.70107 26.7678 1.23223C26.2989 0.763392 25.663 0.5 25 0.5ZM24.5 3.5V5.5H3.5V3.5H24.5ZM3.5 20.5V8.5H24.5V20.5H3.5ZM20.5 11.5C20.5 13.2239 19.8152 14.8772 18.5962 16.0962C17.3772 17.3152 15.7239 18 14 18C12.2761 18 10.6228 17.3152 9.40381 16.0962C8.18482 14.8772 7.5 13.2239 7.5 11.5C7.5 11.1022 7.65804 10.7206 7.93934 10.4393C8.22064 10.158 8.60218 10 9 10C9.39782 10 9.77936 10.158 10.0607 10.4393C10.342 10.7206 10.5 11.1022 10.5 11.5C10.5 12.4283 10.8687 13.3185 11.5251 13.9749C12.1815 14.6313 13.0717 15 14 15C14.9283 15 15.8185 14.6313 16.4749 13.9749C17.1313 13.3185 17.5 12.4283 17.5 11.5C17.5 11.1022 17.658 10.7206 17.9393 10.4393C18.2206 10.158 18.6022 10 19 10C19.3978 10 19.7794 10.158 20.0607 10.4393C20.342 10.7206 20.5 11.1022 20.5 11.5Z" fill="#C0C0C0"/>
</svg>
