<svg width="29" height="29" viewBox="0 0 29 29" fill="none" xmlns="http://www.w3.org/2000/svg">
<path d="M28.1513 6.03875C28.0105 5.87014 27.8344 5.7345 27.6355 5.6414C27.4366 5.54831 27.2196 5.50004 27 5.5H7.25L6.71625 2.5525C6.61145 1.97647 6.3078 1.45549 5.85824 1.08041C5.40868 0.705318 4.84174 0.499912 4.25625 0.5H2C1.60218 0.5 1.22064 0.658035 0.93934 0.93934C0.658035 1.22064 0.5 1.60218 0.5 2C0.5 2.39782 0.658035 2.77936 0.93934 3.06066C1.22064 3.34196 1.60218 3.5 2 3.5H3.83875L6.9525 20.625C7.0361 21.0799 7.20901 21.5136 7.46125 21.9013C7.01468 22.4238 6.7103 23.0525 6.57745 23.7269C6.4446 24.4013 6.48777 25.0986 6.7028 25.7514C6.91783 26.4042 7.29746 26.9907 7.80508 27.4541C8.31269 27.9175 8.93116 28.2423 9.60084 28.3972C10.2705 28.5521 10.9688 28.5317 11.6283 28.3382C12.2879 28.1447 12.8864 27.7844 13.3662 27.2923C13.846 26.8001 14.1909 26.1926 14.3676 25.5283C14.5443 24.8641 14.5468 24.1655 14.375 23.5H18.625C18.4165 24.3076 18.4656 25.1603 18.7656 25.9386C19.0656 26.7169 19.6014 27.382 20.2981 27.8407C20.9947 28.2995 21.8174 28.529 22.6509 28.4971C23.4844 28.4652 24.2871 28.1735 24.9467 27.6629C25.6062 27.1523 26.0897 26.4482 26.3293 25.6492C26.569 24.8503 26.5529 23.9964 26.2833 23.207C26.0136 22.4177 25.504 21.7324 24.8256 21.247C24.1473 20.7616 23.3341 20.5004 22.5 20.5H10.3962C10.2794 20.4999 10.1662 20.4588 10.0765 20.3839C9.98671 20.309 9.92604 20.205 9.905 20.09L9.615 18.5H23.5125C24.3324 18.5 25.1262 18.2122 25.7555 17.6868C26.3849 17.1614 26.8098 16.4317 26.9562 15.625L28.4762 7.2675C28.5153 7.05138 28.5065 6.82932 28.4503 6.617C28.3942 6.40468 28.2921 6.20728 28.1513 6.03875ZM11.5 24.5C11.5 24.6978 11.4414 24.8911 11.3315 25.0556C11.2216 25.22 11.0654 25.3482 10.8827 25.4239C10.7 25.4996 10.4989 25.5194 10.3049 25.4808C10.1109 25.4422 9.93275 25.347 9.79289 25.2071C9.65304 25.0673 9.5578 24.8891 9.51921 24.6951C9.48063 24.5011 9.50043 24.3 9.57612 24.1173C9.65181 23.9346 9.77998 23.7784 9.94443 23.6685C10.1089 23.5586 10.3022 23.5 10.5 23.5C10.7652 23.5 11.0196 23.6054 11.2071 23.7929C11.3946 23.9804 11.5 24.2348 11.5 24.5ZM22.5 25.5C22.3022 25.5 22.1089 25.4414 21.9444 25.3315C21.78 25.2216 21.6518 25.0654 21.5761 24.8827C21.5004 24.7 21.4806 24.4989 21.5192 24.3049C21.5578 24.1109 21.653 23.9327 21.7929 23.7929C21.9327 23.653 22.1109 23.5578 22.3049 23.5192C22.4989 23.4806 22.7 23.5004 22.8827 23.5761C23.0654 23.6518 23.2216 23.78 23.3315 23.9444C23.4414 24.1089 23.5 24.3022 23.5 24.5C23.5 24.7652 23.3946 25.0196 23.2071 25.2071C23.0196 25.3946 22.7652 25.5 22.5 25.5ZM24 15.09C23.9791 15.2044 23.919 15.3078 23.83 15.3827C23.741 15.4575 23.6288 15.499 23.5125 15.5H9.07L7.7975 8.5H25.2025L24 15.09Z" fill="#3C4DF9"/>
</svg>
