<svg width="21" height="21" viewBox="0 0 21 21" fill="none" xmlns="http://www.w3.org/2000/svg">
<path d="M16.9455 9.89884C16.8562 9.98843 16.7501 10.0595 16.6333 10.108C16.5165 10.1565 16.3913 10.1815 16.2648 10.1815C16.1383 10.1815 16.0131 10.1565 15.8963 10.108C15.7795 10.0595 15.6734 9.98843 15.5841 9.89884L11.4609 5.77562V17.5471C11.4609 17.802 11.3597 18.0464 11.1795 18.2266C10.9992 18.4068 10.7548 18.508 10.5 18.508C10.2451 18.508 10.0007 18.4068 9.82048 18.2266C9.64027 18.0464 9.53903 17.802 9.53903 17.5471V5.77562L5.4142 9.89884C5.23368 10.0794 4.98884 10.1808 4.73354 10.1808C4.47824 10.1808 4.2334 10.0794 4.05288 9.89884C3.87235 9.71832 3.77094 9.47348 3.77094 9.21818C3.77094 8.96288 3.87235 8.71804 4.05288 8.53752L9.8185 2.77189C9.90777 2.68231 10.0139 2.61122 10.1307 2.56272C10.2475 2.51422 10.3727 2.48926 10.4992 2.48926C10.6256 2.48926 10.7509 2.51422 10.8677 2.56272C10.9845 2.61122 11.0906 2.68231 11.1798 2.77189L16.9455 8.53752C17.035 8.62679 17.1061 8.73287 17.1546 8.84967C17.2031 8.96648 17.2281 9.09171 17.2281 9.21818C17.2281 9.34465 17.2031 9.46988 17.1546 9.58669C17.1061 9.70349 17.035 9.80957 16.9455 9.89884Z" fill="#EEF0FE"/>
</svg>
