<svg width="32" height="33" viewBox="0 0 32 33" fill="none" xmlns="http://www.w3.org/2000/svg">
<path d="M28.1612 21.0118C27.0762 19.1455 26.5 16.4668 26.5 13.2705C26.5 10.4857 25.3937 7.81502 23.4246 5.84589C21.4555 3.87675 18.7847 2.77051 16 2.77051C13.2152 2.77051 10.5445 3.87675 8.57535 5.84589C6.60622 7.81502 5.49997 10.4857 5.49997 13.2705C5.49997 16.468 4.92622 19.1455 3.84122 21.0118C3.61983 21.3924 3.50247 21.8246 3.50093 22.265C3.49939 22.7053 3.61374 23.1383 3.83247 23.5205C4.04983 23.9029 4.3653 24.2204 4.74633 24.4401C5.12736 24.6598 5.56014 24.7739 5.99997 24.7705H10.5225C10.6465 26.1375 11.2772 27.4088 12.2908 28.3345C13.3043 29.2602 14.6273 29.7735 16 29.7735C17.3726 29.7735 18.6957 29.2602 19.7092 28.3345C20.7227 27.4088 21.3534 26.1375 21.4775 24.7705H26C26.4392 24.7732 26.8712 24.6589 27.2515 24.4391C27.6318 24.2194 27.9467 23.9023 28.1637 23.5205C28.3834 23.1389 28.4988 22.7062 28.4984 22.2658C28.4979 21.8254 28.3817 21.393 28.1612 21.0118ZM16 26.7705C15.4236 26.7706 14.865 26.5716 14.4185 26.2072C13.9721 25.8427 13.6652 25.3352 13.55 24.7705H18.45C18.3347 25.3352 18.0279 25.8427 17.5814 26.2072C17.135 26.5716 16.5763 26.7706 16 26.7705ZM6.83247 21.7705C7.93872 19.5205 8.49997 16.663 8.49997 13.2705C8.49997 11.2814 9.29015 9.37373 10.6967 7.96721C12.1032 6.56068 14.0109 5.77051 16 5.77051C17.9891 5.77051 19.8968 6.56068 21.3033 7.96721C22.7098 9.37373 23.5 11.2814 23.5 13.2705C23.5 16.6618 24.06 19.5205 25.1662 21.7705H6.83247Z" fill="#EEF0FE"/>
</svg>
