<svg width="18" height="19" viewBox="0 0 18 19" fill="none" xmlns="http://www.w3.org/2000/svg">
<path d="M15.2921 7.65907L9.80917 13.142C9.73276 13.2187 9.64197 13.2795 9.542 13.321C9.44203 13.3625 9.33485 13.3839 9.22661 13.3839C9.11836 13.3839 9.01118 13.3625 8.91121 13.321C8.81124 13.2795 8.72045 13.2187 8.64405 13.142L3.16111 7.65907C3.0066 7.50456 2.9198 7.29501 2.9198 7.07651C2.9198 6.858 3.0066 6.64845 3.16111 6.49394C3.31561 6.33944 3.52516 6.25264 3.74367 6.25264C3.96217 6.25264 4.17172 6.33944 4.32623 6.49394L9.22729 11.395L14.1284 6.49326C14.2829 6.33875 14.4924 6.25195 14.7109 6.25195C14.9294 6.25195 15.139 6.33875 15.2935 6.49326C15.448 6.64776 15.5348 6.85732 15.5348 7.07582C15.5348 7.29432 15.448 7.50388 15.2935 7.65838L15.2921 7.65907Z" fill="#EEF0FE"/>
</svg>
