<svg width="40" height="40" viewBox="0 0 40 40" fill="none" xmlns="http://www.w3.org/2000/svg">
<path d="M20.625 3.125C16.3166 3.12955 12.186 4.84306 9.13954 7.88954C6.09306 10.936 4.37955 15.0666 4.375 19.375V32.5516C4.37583 33.3664 4.6999 34.1477 5.2761 34.7239C5.8523 35.3001 6.63356 35.6242 7.44844 35.625H20.625C24.9348 35.625 29.068 33.913 32.1155 30.8655C35.163 27.818 36.875 23.6848 36.875 19.375C36.875 15.0652 35.163 10.932 32.1155 7.88451C29.068 4.83705 24.9348 3.125 20.625 3.125ZM20.625 31.875H8.125V19.375C8.125 16.9027 8.85811 14.486 10.2316 12.4304C11.6051 10.3748 13.5574 8.7726 15.8415 7.82651C18.1255 6.88041 20.6389 6.63287 23.0636 7.11518C25.4884 7.5975 27.7157 8.78801 29.4638 10.5362C31.212 12.2843 32.4025 14.5116 32.8848 16.9364C33.3671 19.3611 33.1196 21.8745 32.1735 24.1585C31.2274 26.4426 29.6252 28.3949 27.5696 29.7684C25.514 31.1419 23.0973 31.875 20.625 31.875ZM19.375 20C19.375 20.4945 19.2284 20.9778 18.9537 21.3889C18.679 21.8 18.2885 22.1205 17.8317 22.3097C17.3749 22.4989 16.8722 22.5484 16.3873 22.452C15.9023 22.3555 15.4569 22.1174 15.1072 21.7678C14.7576 21.4181 14.5195 20.9727 14.423 20.4877C14.3266 20.0028 14.3761 19.5001 14.5653 19.0433C14.7545 18.5865 15.075 18.196 15.4861 17.9213C15.8972 17.6466 16.3805 17.5 16.875 17.5C17.538 17.5 18.1739 17.7634 18.6428 18.2322C19.1116 18.7011 19.375 19.337 19.375 20ZM26.875 20C26.875 20.4945 26.7284 20.9778 26.4537 21.3889C26.179 21.8 25.7885 22.1205 25.3317 22.3097C24.8749 22.4989 24.3722 22.5484 23.8873 22.452C23.4023 22.3555 22.9569 22.1174 22.6072 21.7678C22.2576 21.4181 22.0195 20.9727 21.923 20.4877C21.8266 20.0028 21.8761 19.5001 22.0653 19.0433C22.2545 18.5865 22.575 18.196 22.9861 17.9213C23.3972 17.6466 23.8805 17.5 24.375 17.5C25.038 17.5 25.6739 17.7634 26.1428 18.2322C26.6116 18.7011 26.875 19.337 26.875 20Z" fill="#636363"/>
</svg>
