<svg width="32" height="32" viewBox="0 0 32 32" fill="none" xmlns="http://www.w3.org/2000/svg">
<path d="M16 12C15.2089 12 14.4355 12.2346 13.7777 12.6741C13.1199 13.1136 12.6072 13.7384 12.3045 14.4693C12.0017 15.2002 11.9225 16.0044 12.0769 16.7804C12.2312 17.5563 12.6122 18.269 13.1716 18.8284C13.731 19.3878 14.4437 19.7688 15.2196 19.9231C15.9956 20.0775 16.7998 19.9983 17.5307 19.6955C18.2616 19.3928 18.8864 18.8801 19.3259 18.2223C19.7654 17.5645 20 16.7911 20 16C20 14.9391 19.5786 13.9217 18.8284 13.1716C18.0783 12.4214 17.0609 12 16 12ZM16 17C15.8022 17 15.6089 16.9414 15.4444 16.8315C15.28 16.7216 15.1518 16.5654 15.0761 16.3827C15.0004 16.2 14.9806 15.9989 15.0192 15.8049C15.0578 15.6109 15.153 15.4327 15.2929 15.2929C15.4327 15.153 15.6109 15.0578 15.8049 15.0192C15.9989 14.9806 16.2 15.0004 16.3827 15.0761C16.5654 15.1518 16.7216 15.28 16.8315 15.4444C16.9414 15.6089 17 15.8022 17 16C17 16.2652 16.8946 16.5196 16.7071 16.7071C16.5196 16.8946 16.2652 17 16 17ZM16 10C16.7911 10 17.5645 9.76541 18.2223 9.32588C18.8801 8.88635 19.3928 8.26164 19.6955 7.53074C19.9983 6.79983 20.0775 5.99556 19.9231 5.21964C19.7688 4.44372 19.3878 3.73098 18.8284 3.17157C18.269 2.61216 17.5563 2.2312 16.7804 2.07686C16.0044 1.92252 15.2002 2.00173 14.4693 2.30448C13.7384 2.60723 13.1136 3.11992 12.6741 3.77772C12.2346 4.43552 12 5.20888 12 6C12 7.06087 12.4214 8.07828 13.1716 8.82843C13.9217 9.57857 14.9391 10 16 10ZM16 5C16.1978 5 16.3911 5.05865 16.5556 5.16853C16.72 5.27841 16.8482 5.43459 16.9239 5.61732C16.9996 5.80004 17.0194 6.00111 16.9808 6.19509C16.9422 6.38907 16.847 6.56726 16.7071 6.70711C16.5673 6.84696 16.3891 6.9422 16.1951 6.98079C16.0011 7.01937 15.8 6.99957 15.6173 6.92388C15.4346 6.84819 15.2784 6.72002 15.1685 6.55557C15.0587 6.39112 15 6.19778 15 6C15 5.73479 15.1054 5.48043 15.2929 5.2929C15.4804 5.10536 15.7348 5 16 5ZM16 22C15.2089 22 14.4355 22.2346 13.7777 22.6741C13.1199 23.1136 12.6072 23.7384 12.3045 24.4693C12.0017 25.2002 11.9225 26.0044 12.0769 26.7804C12.2312 27.5563 12.6122 28.269 13.1716 28.8284C13.731 29.3878 14.4437 29.7688 15.2196 29.9231C15.9956 30.0775 16.7998 29.9983 17.5307 29.6955C18.2616 29.3928 18.8864 28.8801 19.3259 28.2223C19.7654 27.5645 20 26.7911 20 26C20 24.9391 19.5786 23.9217 18.8284 23.1716C18.0783 22.4214 17.0609 22 16 22ZM16 27C15.8022 27 15.6089 26.9414 15.4444 26.8315C15.28 26.7216 15.1518 26.5654 15.0761 26.3827C15.0004 26.2 14.9806 25.9989 15.0192 25.8049C15.0578 25.6109 15.153 25.4327 15.2929 25.2929C15.4327 25.153 15.6109 25.0578 15.8049 25.0192C15.9989 24.9806 16.2 25.0004 16.3827 25.0761C16.5654 25.1518 16.7216 25.28 16.8315 25.4444C16.9414 25.6089 17 25.8022 17 26C17 26.2652 16.8946 26.5196 16.7071 26.7071C16.5196 26.8946 16.2652 27 16 27Z" fill="#636363"/>
</svg>
