<svg width="32" height="33" viewBox="0 0 32 33" fill="none" xmlns="http://www.w3.org/2000/svg">
<path d="M27 8.77052H16.6737L13.4237 5.10927C13.1884 4.84464 12.8996 4.63303 12.5764 4.48843C12.2531 4.34384 11.9029 4.26956 11.5487 4.27052H5C4.33696 4.27052 3.70107 4.53391 3.23223 5.00275C2.76339 5.47159 2.5 6.10748 2.5 6.77052V25.348C2.50099 25.9902 2.75654 26.6058 3.21063 27.0599C3.66472 27.514 4.28032 27.7695 4.9225 27.7705H27.1112C27.7446 27.7699 28.3518 27.518 28.7996 27.0701C29.2475 26.6223 29.4993 26.0151 29.5 25.3818V11.2705C29.5 10.6075 29.2366 9.97159 28.7678 9.50275C28.2989 9.03391 27.663 8.77052 27 8.77052ZM5.5 7.27052H11.3263L12.66 8.77052H5.5V7.27052ZM26.5 24.7705H5.5V11.7705H26.5V24.7705Z" fill="#EEF0FE"/>
</svg>
