<svg width="32" height="33" viewBox="0 0 32 33" fill="none" xmlns="http://www.w3.org/2000/svg">
<path d="M16 9.77028C14.7144 9.77028 13.4577 10.1515 12.3888 10.8657C11.3199 11.58 10.4867 12.5951 9.99476 13.7828C9.50279 14.9706 9.37407 16.2775 9.62488 17.5384C9.87568 18.7992 10.4947 19.9574 11.4038 20.8665C12.3128 21.7755 13.471 22.3946 14.7319 22.6454C15.9928 22.8962 17.2997 22.7675 18.4874 22.2755C19.6751 21.7835 20.6903 20.9504 21.4045 19.8815C22.1188 18.8126 22.5 17.5559 22.5 16.2703C22.498 14.547 21.8125 12.8948 20.594 11.6763C19.3754 10.4577 17.7233 9.77226 16 9.77028ZM16 19.7703C15.3077 19.7703 14.6311 19.565 14.0555 19.1804C13.4799 18.7958 13.0313 18.2492 12.7664 17.6097C12.5015 16.9701 12.4322 16.2664 12.5672 15.5875C12.7023 14.9085 13.0356 14.2849 13.5251 13.7954C14.0146 13.3059 14.6382 12.9726 15.3172 12.8375C15.9961 12.7025 16.6998 12.7718 17.3394 13.0367C17.9789 13.3016 18.5255 13.7502 18.9101 14.3258C19.2947 14.9014 19.5 15.578 19.5 16.2703C19.5 17.1985 19.1312 18.0888 18.4749 18.7452C17.8185 19.4015 16.9282 19.7703 16 19.7703ZM27.5 16.369V16.1715L29.25 13.9828C29.3969 13.7994 29.4986 13.584 29.5471 13.3541C29.5955 13.1242 29.5892 12.8861 29.5287 12.659C29.2129 11.4679 28.7409 10.3238 28.125 9.25653C28.0063 9.053 27.8414 8.88029 27.6436 8.75238C27.4457 8.62447 27.2205 8.54495 26.9862 8.52028L24.2012 8.20778L24.0625 8.06903L23.75 5.28278C23.7251 5.04871 23.6455 4.82377 23.5176 4.62616C23.3897 4.42855 23.2171 4.26382 23.0137 4.14528C21.9464 3.52739 20.8018 3.05368 19.61 2.73653C19.3827 2.67695 19.1446 2.67159 18.9149 2.72088C18.6852 2.77016 18.4703 2.87272 18.2875 3.02028L16.0987 4.77028H15.9012L13.7125 3.02028C13.5291 2.87338 13.3137 2.77162 13.0838 2.7232C12.8539 2.67479 12.6158 2.68106 12.3887 2.74153C11.1973 3.05929 10.0532 3.53341 8.98623 4.15153C8.7835 4.26958 8.61128 4.43353 8.48341 4.63021C8.35554 4.8269 8.27559 5.05084 8.24998 5.28403L7.93748 8.06903L7.79873 8.20778L5.01248 8.52028C4.77841 8.54514 4.55347 8.62474 4.35586 8.75265C4.15825 8.88055 3.99352 9.05316 3.87498 9.25653C3.25883 10.3242 2.78681 11.4687 2.47123 12.6603C2.41097 12.8872 2.4048 13.125 2.45321 13.3547C2.50163 13.5844 2.60328 13.7995 2.74998 13.9828L4.49998 16.1715V16.369L2.74998 18.5578C2.60308 18.7412 2.50132 18.9565 2.45291 19.1864C2.40449 19.4164 2.41076 19.6545 2.47123 19.8815C2.78939 21.073 3.26393 22.2171 3.88248 23.284C4.0004 23.4866 4.16416 23.6587 4.36062 23.7866C4.55707 23.9144 4.78076 23.9945 5.01373 24.0203L7.79873 24.3303L7.93748 24.469L8.24998 27.2578C8.27484 27.4919 8.35444 27.7168 8.48235 27.9144C8.61025 28.112 8.78286 28.2767 8.98623 28.3953C10.0536 29.0132 11.1981 29.4869 12.39 29.804C12.6172 29.8636 12.8553 29.869 13.085 29.8197C13.3147 29.7704 13.5297 29.6678 13.7125 29.5203L15.9012 27.7703H16.0987L18.2875 29.5203C18.4709 29.6672 18.6862 29.7689 18.9161 29.8174C19.1461 29.8658 19.3842 29.8595 19.6112 29.799C20.8023 29.4832 21.9464 29.0112 23.0137 28.3953C23.2169 28.2775 23.3896 28.1137 23.518 27.917C23.6463 27.7203 23.7266 27.4962 23.7525 27.2628L24.0625 24.4778L24.2012 24.339L26.9875 24.0203C27.2209 23.9944 27.445 23.9141 27.6417 23.7858C27.8384 23.6574 28.0022 23.4847 28.12 23.2815C28.7379 22.2142 29.2116 21.0696 29.5287 19.8778C29.5886 19.6513 29.5945 19.4139 29.5461 19.1847C29.4977 18.9554 29.3963 18.7407 29.25 18.5578L27.5 16.369ZM24.485 15.7578C24.505 16.0992 24.505 16.4414 24.485 16.7828C24.4626 17.1539 24.5789 17.52 24.8112 17.8103L26.4162 19.8165C26.2647 20.265 26.0839 20.703 25.875 21.1278L23.3212 21.4115C22.9515 21.4538 22.6107 21.632 22.365 21.9115C22.1379 22.1674 21.8958 22.4095 21.64 22.6365C21.3605 22.8822 21.1823 23.223 21.14 23.5928L20.8575 26.1453C20.4328 26.3551 19.9948 26.5367 19.5462 26.689L17.54 25.0828C17.2737 24.8703 16.9431 24.7548 16.6025 24.7553C16.5725 24.7553 16.5425 24.7553 16.5125 24.7553C16.1711 24.7753 15.8289 24.7753 15.4875 24.7553C15.1166 24.7333 14.7507 24.849 14.46 25.0803L12.4537 26.6865C12.0053 26.535 11.5672 26.3542 11.1425 26.1453L10.8587 23.5915C10.8165 23.2218 10.6382 22.881 10.3587 22.6353C10.1029 22.4082 9.86081 22.1661 9.63373 21.9103C9.38804 21.6308 9.04722 21.4526 8.67748 21.4103L6.12498 21.1278C5.91519 20.7031 5.73355 20.2651 5.58123 19.8165L7.18623 17.8103C7.41855 17.52 7.53482 17.1539 7.51248 16.7828C7.49248 16.4414 7.49248 16.0992 7.51248 15.7578C7.53482 15.3867 7.41855 15.0205 7.18623 14.7303L5.58373 12.724C5.73524 12.2756 5.91605 11.8375 6.12498 11.4128L8.67873 11.129C9.04847 11.0868 9.38929 10.9085 9.63498 10.629C9.86206 10.3732 10.1042 10.1311 10.36 9.90403C10.6395 9.65834 10.8177 9.31752 10.86 8.94778L11.1425 6.39528C11.5672 6.18549 12.0052 6.00385 12.4537 5.85153L14.46 7.45778C14.7507 7.68902 15.1166 7.80475 15.4875 7.78278C15.8289 7.76278 16.1711 7.76278 16.5125 7.78278C16.8834 7.80547 17.2496 7.68966 17.54 7.45778L19.5462 5.85153C19.9948 6.00385 20.4328 6.18549 20.8575 6.39528L21.1412 8.94903C21.1835 9.31877 21.3617 9.65959 21.6412 9.90528C21.8971 10.1324 22.1392 10.3744 22.3662 10.6303C22.6119 10.9098 22.9527 11.088 23.3225 11.1303L25.875 11.4128C26.0848 11.8375 26.2664 12.2755 26.4187 12.724L24.8137 14.7303C24.5805 15.0202 24.4633 15.3864 24.485 15.7578Z" fill="#EEF0FE"/>
</svg>
