<svg width="32" height="33" viewBox="0 0 32 33" fill="none" xmlns="http://www.w3.org/2000/svg">
<path d="M28.5 16.2707C28.5 16.6685 28.342 17.05 28.0606 17.3313C27.7793 17.6126 27.3978 17.7707 27 17.7707H14.5C14.1022 17.7707 13.7206 17.6126 13.4393 17.3313C13.158 17.05 13 16.6685 13 16.2707C13 15.8729 13.158 15.4913 13.4393 15.21C13.7206 14.9287 14.1022 14.7707 14.5 14.7707H27C27.3978 14.7707 27.7793 14.9287 28.0606 15.21C28.342 15.4913 28.5 15.8729 28.5 16.2707ZM14.5 9.77068H27C27.3978 9.77068 27.7793 9.61265 28.0606 9.33134C28.342 9.05004 28.5 8.66851 28.5 8.27068C28.5 7.87286 28.342 7.49133 28.0606 7.21002C27.7793 6.92872 27.3978 6.77068 27 6.77068H14.5C14.1022 6.77068 13.7206 6.92872 13.4393 7.21002C13.158 7.49133 13 7.87286 13 8.27068C13 8.66851 13.158 9.05004 13.4393 9.33134C13.7206 9.61265 14.1022 9.77068 14.5 9.77068ZM27 22.7707H14.5C14.1022 22.7707 13.7206 22.9287 13.4393 23.21C13.158 23.4913 13 23.8729 13 24.2707C13 24.6685 13.158 25.05 13.4393 25.3313C13.7206 25.6126 14.1022 25.7707 14.5 25.7707H27C27.3978 25.7707 27.7793 25.6126 28.0606 25.3313C28.342 25.05 28.5 24.6685 28.5 24.2707C28.5 23.8729 28.342 23.4913 28.0606 23.21C27.7793 22.9287 27.3978 22.7707 27 22.7707ZM5.49999 7.68443V13.2707C5.49999 13.6685 5.65803 14.05 5.93933 14.3313C6.22063 14.6126 6.60217 14.7707 6.99999 14.7707C7.39781 14.7707 7.77935 14.6126 8.06065 14.3313C8.34195 14.05 8.49999 13.6685 8.49999 13.2707V5.27068C8.49985 5.01514 8.43444 4.76388 8.30994 4.54071C8.18545 4.31755 8.00601 4.12989 7.78864 3.99554C7.57127 3.86119 7.32318 3.78459 7.0679 3.77302C6.81262 3.76145 6.55862 3.81529 6.32999 3.92943L4.32999 4.92943C3.99892 5.10588 3.74599 5.39998 3.62108 5.75373C3.49617 6.10748 3.50835 6.4952 3.65522 6.84041C3.8021 7.18562 4.07299 7.46326 4.41449 7.61858C4.75598 7.77389 5.14328 7.79561 5.49999 7.67943V7.68443ZM10.4662 19.7919C10.402 19.3294 10.2448 18.8847 10.0042 18.4845C9.76362 18.0843 9.44457 17.7369 9.06624 17.4632C8.31201 16.9158 7.37535 16.6811 6.45212 16.8083C5.5289 16.9355 4.69059 17.4147 4.11249 18.1457C3.89066 18.4308 3.71478 18.7488 3.59124 19.0882C3.461 19.4606 3.48272 19.8693 3.65169 20.2258C3.82066 20.5823 4.12327 20.8579 4.49398 20.9928C4.86469 21.1278 5.27365 21.1113 5.63228 20.9469C5.9909 20.7825 6.27031 20.4834 6.40999 20.1144C6.42798 20.0695 6.4524 20.0274 6.48249 19.9894C6.5794 19.8721 6.71743 19.7961 6.86842 19.7771C7.01941 19.758 7.17198 19.7973 7.29499 19.8869C7.34911 19.9243 7.39493 19.9725 7.42956 20.0284C7.46419 20.0843 7.48689 20.1468 7.49624 20.2119C7.50462 20.2732 7.50041 20.3355 7.48386 20.395C7.46731 20.4545 7.43877 20.5101 7.39999 20.5582L7.38374 20.5794L3.79874 25.3732C3.63225 25.5961 3.53106 25.861 3.50648 26.1382C3.48189 26.4153 3.53489 26.6939 3.65953 26.9426C3.78417 27.1914 3.97556 27.4006 4.21228 27.5468C4.44901 27.6931 4.72174 27.7706 4.99999 27.7707H8.99999C9.39781 27.7707 9.77935 27.6126 10.0607 27.3313C10.342 27.05 10.5 26.6685 10.5 26.2707C10.5 25.8729 10.342 25.4913 10.0607 25.21C9.77935 24.9287 9.39781 24.7707 8.99999 24.7707H7.99999L9.78499 22.3819C10.0662 22.0178 10.2714 21.601 10.3884 21.1561C10.5054 20.7111 10.5319 20.2473 10.4662 19.7919Z" fill="#EEF0FE"/>
</svg>
