<svg width="32" height="33" viewBox="0 0 32 33" fill="none" xmlns="http://www.w3.org/2000/svg">
<path d="M30.7688 16.918L18.3538 4.50302C18.1223 4.27002 17.8469 4.0853 17.5435 3.95955C17.24 3.83381 16.9147 3.76956 16.5863 3.77052H5.00001C4.60219 3.77052 4.22066 3.92855 3.93935 4.20986C3.65805 4.49116 3.50001 4.87269 3.50001 5.27052V16.8568C3.49905 17.1852 3.56331 17.5106 3.68905 17.814C3.81479 18.1174 3.99951 18.3928 4.23251 18.6243L16.6475 31.0393C17.1163 31.5079 17.7521 31.7712 18.415 31.7712C19.0779 31.7712 19.7137 31.5079 20.1825 31.0393L30.7688 20.453C31.2374 19.9842 31.5007 19.3484 31.5007 18.6855C31.5007 18.0226 31.2374 17.3868 30.7688 16.918ZM18.415 28.5643L6.50001 16.6455V6.77052H16.375L28.29 18.6855L18.415 28.5643ZM12.5 10.7705C12.5 11.1661 12.3827 11.5528 12.1629 11.8817C11.9432 12.2106 11.6308 12.4669 11.2654 12.6183C10.8999 12.7697 10.4978 12.8093 10.1098 12.7321C9.72187 12.6549 9.3655 12.4644 9.0858 12.1847C8.80609 11.905 8.61561 11.5487 8.53844 11.1607C8.46127 10.7727 8.50088 10.3706 8.65225 10.0052C8.80363 9.6397 9.05997 9.32734 9.38887 9.10758C9.71777 8.88782 10.1044 8.77052 10.5 8.77052C11.0304 8.77052 11.5392 8.98123 11.9142 9.35631C12.2893 9.73138 12.5 10.2401 12.5 10.7705Z" fill="#EEF0FE"/>
</svg>
