<svg width="80" height="59" viewBox="0 0 80 59" fill="none" xmlns="http://www.w3.org/2000/svg">
<path d="M72.9483 0.669922H7.05172C5.23122 0.669922 3.48528 1.39311 2.19798 2.68041C0.910693 3.9677 0.1875 5.71364 0.1875 7.53415V51.4652C0.1875 53.2857 0.910693 55.0316 2.19798 56.3189C3.48528 57.6062 5.23122 58.3294 7.05172 58.3294H72.9483C74.7688 58.3294 76.5147 57.6062 77.802 56.3189C79.0893 55.0316 79.8125 53.2857 79.8125 51.4652V7.53415C79.8125 5.71364 79.0893 3.9677 77.802 2.68041C76.5147 1.39311 74.7688 0.669922 72.9483 0.669922ZM71.5754 8.90699V15.7712H8.42457V8.90699H71.5754ZM8.42457 50.0923V24.0083H71.5754V50.0923H8.42457ZM67.4569 41.8553C67.4569 42.9476 67.023 43.9951 66.2506 44.7675C65.4782 45.5399 64.4307 45.9738 63.3384 45.9738H52.3556C51.2633 45.9738 50.2157 45.5399 49.4434 44.7675C48.671 43.9951 48.2371 42.9476 48.2371 41.8553C48.2371 40.763 48.671 39.7154 49.4434 38.943C50.2157 38.1707 51.2633 37.7367 52.3556 37.7367H63.3384C64.4307 37.7367 65.4782 38.1707 66.2506 38.943C67.023 39.7154 67.4569 40.763 67.4569 41.8553ZM44.1185 41.8553C44.1185 42.9476 43.6846 43.9951 42.9122 44.7675C42.1399 45.5399 41.0923 45.9738 40 45.9738H35.8815C34.7892 45.9738 33.7416 45.5399 32.9692 44.7675C32.1968 43.9951 31.7629 42.9476 31.7629 41.8553C31.7629 40.763 32.1968 39.7154 32.9692 38.943C33.7416 38.1707 34.7892 37.7367 35.8815 37.7367H40C41.0923 37.7367 42.1399 38.1707 42.9122 38.943C43.6846 39.7154 44.1185 40.763 44.1185 41.8553Z" fill="#fff"/>
</svg>
