<svg width="23" height="28" viewBox="0 0 23 28" fill="none" xmlns="http://www.w3.org/2000/svg">
<path d="M22.5613 8.21026L15.5613 1.21026C15.4219 1.07079 15.2565 0.960135 15.0744 0.884636C14.8923 0.809138 14.6971 0.770273 14.5 0.770264H2.5C1.83696 0.770264 1.20107 1.03366 0.732233 1.5025C0.263392 1.97134 0 2.60722 0 3.27026V25.2703C0 25.9333 0.263392 26.5692 0.732233 27.038C1.20107 27.5069 1.83696 27.7703 2.5 27.7703H20.5C21.163 27.7703 21.7989 27.5069 22.2678 27.038C22.7366 26.5692 23 25.9333 23 25.2703V9.27026C23 8.87275 22.8422 8.4915 22.5613 8.21026ZM15.5 5.39526L18.375 8.27026H15.5V5.39526ZM3 24.7703V3.77026H12.5V9.77026C12.5 10.1681 12.658 10.5496 12.9393 10.8309C13.2206 11.1122 13.6022 11.2703 14 11.2703H20V24.7703H3Z" fill="white"/>
</svg>
