<svg width="23" height="27" viewBox="0 0 23 27" fill="none" xmlns="http://www.w3.org/2000/svg">
<path d="M22.5613 7.44L15.5613 0.44C15.4219 0.300523 15.2565 0.189871 15.0744 0.114373C14.8923 0.0388742 14.6971 9.19071e-06 14.5 0H2.5C1.83696 0 1.20107 0.263392 0.732233 0.732233C0.263392 1.20107 0 1.83696 0 2.5V24.5C0 25.163 0.263392 25.7989 0.732233 26.2678C1.20107 26.7366 1.83696 27 2.5 27H20.5C21.163 27 21.7989 26.7366 22.2678 26.2678C22.7366 25.7989 23 25.163 23 24.5V8.5C23 8.10249 22.8422 7.72124 22.5613 7.44ZM15.5 4.625L18.375 7.5H15.5V4.625ZM3 24V3H12.5V9C12.5 9.39782 12.658 9.77936 12.9393 10.0607C13.2206 10.342 13.6022 10.5 14 10.5H20V24H3Z" fill="#18191A"/>
</svg>
