<svg width="34" height="35" viewBox="0 0 34 35" fill="none" xmlns="http://www.w3.org/2000/svg">
<path d="M0.911408 27.0384L10.3293 10.0689L14.1485 16.9262L7.94227 28.1669L7.63847 28.7311H0L0.911408 27.0384Z" fill="url(#paint0_linear_315_9310)"/>
<path d="M32.2465 27.0384L33.1579 28.7311H25.5194L25.2156 28.1669L16.6657 12.7597L16.5789 12.5861L12.7597 5.68545L13.0635 5.12125L15.5373 0.607608L15.8411 0H17.3168L17.5772 0.607608L20.0944 5.12125L32.2465 27.0384Z" fill="url(#paint1_linear_315_9310)"/>
<path d="M15.9547 32.7835C15.6973 32.5295 15.6946 32.115 15.9485 31.8577C16.2024 31.6003 16.6169 31.5975 16.8743 31.8515L18.19 33.1497C18.4474 33.4036 18.4502 33.8181 18.1962 34.0754C17.9423 34.3328 17.5278 34.3356 17.2705 34.0817L15.9547 32.7835Z" fill="url(#paint2_linear_315_9310)"/>
<path d="M17.4475 30.9626C17.1357 31.2786 17.1391 31.7876 17.4551 32.0994L18.7495 33.3765C19.0656 33.6884 19.5745 33.685 19.8864 33.3689C20.1982 33.0529 20.1948 32.5439 19.8787 32.232L18.5844 30.9549C18.2683 30.6431 17.7593 30.6465 17.4475 30.9626Z" fill="url(#paint3_linear_315_9310)"/>
<path d="M18.9536 30.9966C18.6375 30.6847 18.6341 30.1758 18.9459 29.8597C19.2578 29.5437 19.7667 29.5402 20.0828 29.8521L21.3772 31.1292C21.6932 31.441 21.6966 31.95 21.3848 32.266C21.073 32.5821 20.564 32.5855 20.2479 32.2737L18.9536 30.9966Z" fill="url(#paint4_linear_315_9310)"/>
<path d="M20.2524 28.6149C19.9405 28.9309 19.9439 29.4399 20.26 29.7517L21.5544 31.0288C21.8704 31.3407 22.3794 31.3373 22.6912 31.0212C23.0031 30.7052 22.9997 30.1962 22.6836 29.8843L21.3892 28.6072C21.0732 28.2954 20.5642 28.2988 20.2524 28.6149Z" fill="url(#paint5_linear_315_9310)"/>
<path fill-rule="evenodd" clip-rule="evenodd" d="M14.5656 27.0311C13.4405 28.8295 12.7092 29.6898 11.197 30.9219C9.22312 29.5471 8.53161 28.4295 7.60084 26.183C6.72318 21.9131 7.1686 19.8787 9.56595 16.8668L11.1362 17.2639C9.06325 20.6953 9.43938 22.2957 10.8028 25.0048L12.1322 24.6846C13.87 24.1526 14.5375 24.2268 15.6714 24.3529L15.7773 24.3646C16.9269 24.7425 17.524 25.0196 18.6077 25.7198L19.1097 26.3038C19.3786 27.4437 18.5029 28.165 17.3678 27.9636L14.5656 27.0311Z" fill="url(#paint6_linear_315_9310)"/>
<path d="M11.573 31.0359C12.3159 30.2864 13.8102 28.7788 14.7474 27.4436L17.5881 28.3735C18.2583 28.4091 18.57 28.2293 19.0943 27.81C19.5121 27.2608 19.5541 26.8889 19.4479 26.1656C18.189 24.8863 17.3267 24.431 15.5237 24.0342L17.4833 23.9037C20.2175 24.6058 21.435 25.3923 22.9058 27.6719C22.6138 26.234 22.0692 25.5841 20.844 24.5288C23.1981 23.0965 23.565 20.4311 22.7933 18.0259L25.8902 23.8067C25.6672 25.6741 24.7424 27.9256 22.9698 29.7903L21.0846 28.1406C19.9896 28.1525 19.8006 28.5125 19.6578 29.3162C18.751 29.3791 18.4942 29.6471 18.3411 30.4074C17.3314 30.3356 17.0524 30.6324 16.7888 31.437C15.4721 31.3704 15.2576 32.036 15.8102 32.9688C14.9636 33.5133 14.5007 33.5724 13.6841 33.4964C14.6166 32.6868 14.9942 32.1922 15.5823 31.2859C14.6631 32.27 14.1282 32.7137 13.1257 33.2248C12.4641 33.2173 12.1644 33.1688 12.242 32.7048C13.1236 32.0201 13.5094 31.5758 14.0377 30.6941L11.991 32.4128C11.1969 32.6586 10.8691 31.7928 11.156 31.465C11.1809 31.4365 11.2194 31.3956 11.2699 31.3435C11.3452 31.2658 11.447 31.163 11.5695 31.0395L11.5727 31.0363L11.573 31.0359Z" fill="url(#paint7_linear_315_9310)"/>
<defs>
<linearGradient id="paint0_linear_315_9310" x1="16.5789" y1="0" x2="16.5789" y2="34.2703" gradientUnits="userSpaceOnUse">
<stop stop-color="white"/>
<stop offset="1" stop-color="#DEDEDE"/>
</linearGradient>
<linearGradient id="paint1_linear_315_9310" x1="16.5789" y1="0" x2="16.5789" y2="34.2703" gradientUnits="userSpaceOnUse">
<stop stop-color="white"/>
<stop offset="1" stop-color="white"/>
</linearGradient>
<linearGradient id="paint2_linear_315_9310" x1="16.5789" y1="0" x2="16.5789" y2="34.2703" gradientUnits="userSpaceOnUse">
<stop stop-color="white"/>
<stop offset="1" stop-color="#DEDEDE"/>
</linearGradient>
<linearGradient id="paint3_linear_315_9310" x1="16.5789" y1="0" x2="16.5789" y2="34.2703" gradientUnits="userSpaceOnUse">
<stop stop-color="white"/>
<stop offset="1" stop-color="#DEDEDE"/>
</linearGradient>
<linearGradient id="paint4_linear_315_9310" x1="16.5789" y1="0" x2="16.5789" y2="34.2703" gradientUnits="userSpaceOnUse">
<stop stop-color="white"/>
<stop offset="1" stop-color="#DEDEDE"/>
</linearGradient>
<linearGradient id="paint5_linear_315_9310" x1="16.5789" y1="0" x2="16.5789" y2="34.2703" gradientUnits="userSpaceOnUse">
<stop stop-color="white"/>
<stop offset="1" stop-color="#DEDEDE"/>
</linearGradient>
<linearGradient id="paint6_linear_315_9310" x1="16.5789" y1="0" x2="16.5789" y2="34.2703" gradientUnits="userSpaceOnUse">
<stop stop-color="white"/>
<stop offset="1" stop-color="#DEDEDE"/>
</linearGradient>
<linearGradient id="paint7_linear_315_9310" x1="16.5789" y1="0" x2="16.5789" y2="34.2703" gradientUnits="userSpaceOnUse">
<stop stop-color="white"/>
<stop offset="1" stop-color="white"/>
</linearGradient>
</defs>
</svg>
