<svg width="10" height="8" viewBox="0 0 10 8" fill="none" xmlns="http://www.w3.org/2000/svg">
<path d="M9.07755 2.49522L4.37379 7.19861C4.31937 7.25305 4.25475 7.29623 4.18364 7.32569C4.11252 7.35516 4.0363 7.37032 3.95932 7.37032C3.88234 7.37032 3.80612 7.35516 3.735 7.32569C3.66388 7.29623 3.59927 7.25305 3.54484 7.19861L0.921344 4.56119C0.811625 4.45131 0.75 4.30237 0.75 4.14708C0.75 3.9918 0.811625 3.84286 0.921344 3.73297L1.80048 2.85383C1.91002 2.74427 2.05848 2.68253 2.21341 2.68212C2.36833 2.68171 2.51712 2.74266 2.62724 2.85164L3.96939 4.1436L3.97342 4.14763L7.37019 0.800679C7.48003 0.691295 7.62874 0.629883 7.78375 0.629883C7.93877 0.629883 8.08747 0.691295 8.19732 0.800679L9.07645 1.6637C9.13135 1.7181 9.17494 1.78282 9.20473 1.85413C9.23451 1.92545 9.2499 2.00195 9.25 2.07923C9.2501 2.15651 9.23492 2.23306 9.20532 2.30445C9.17573 2.37584 9.1323 2.44067 9.07755 2.49522Z" fill="#EEF0FE"/>
</svg>
