<svg width="29" height="26" viewBox="0 0 29 26" fill="none" xmlns="http://www.w3.org/2000/svg">
<path d="M20.75 0.77002C18.2388 0.77002 16.01 1.76127 14.5 3.46502C12.99 1.76127 10.7612 0.77002 8.25 0.77002C6.06278 0.772666 3.96589 1.64271 2.41929 3.18931C0.87269 4.73591 0.00264637 6.8328 0 9.02002C0 18.0625 13.2262 25.2875 13.7887 25.5913C14.0073 25.709 14.2517 25.7706 14.5 25.7706C14.7483 25.7706 14.9927 25.709 15.2113 25.5913C15.7738 25.2875 29 18.0625 29 9.02002C28.9974 6.8328 28.1273 4.73591 26.5807 3.18931C25.0341 1.64271 22.9372 0.772666 20.75 0.77002ZM20.0637 18.565C18.3228 20.0423 16.4618 21.3719 14.5 22.54C12.5382 21.3719 10.6772 20.0423 8.93625 18.565C6.2275 16.2413 3 12.6975 3 9.02002C3 7.62763 3.55312 6.29227 4.53769 5.30771C5.52225 4.32314 6.85761 3.77002 8.25 3.77002C10.475 3.77002 12.3375 4.94502 13.1112 6.83752C13.2239 7.1134 13.4161 7.34949 13.6634 7.51568C13.9108 7.68187 14.202 7.77062 14.5 7.77062C14.798 7.77062 15.0892 7.68187 15.3366 7.51568C15.5839 7.34949 15.7761 7.1134 15.8888 6.83752C16.6625 4.94502 18.525 3.77002 20.75 3.77002C22.1424 3.77002 23.4777 4.32314 24.4623 5.30771C25.4469 6.29227 26 7.62763 26 9.02002C26 12.6975 22.7725 16.2413 20.0637 18.565Z" fill="#EEF0FE"/>
</svg>
