<svg width="22" height="23" viewBox="0 0 22 23" fill="none" xmlns="http://www.w3.org/2000/svg">
<path d="M20.3367 8.90981C20.0105 8.5697 19.6741 8.21847 19.5639 7.9525C19.4656 7.71526 19.4582 7.22688 19.4517 6.79688C19.4378 5.87015 19.4202 4.71731 18.601 3.89901C17.7818 3.08071 16.6298 3.06496 15.7031 3.04828C15.2731 3.04179 14.7847 3.03437 14.5475 2.93614C14.2815 2.82586 13.9303 2.48946 13.5902 2.16325C12.9341 1.53401 12.1167 0.75 11 0.75C9.8833 0.75 9.06593 1.53401 8.40981 2.16325C8.0697 2.48946 7.71847 2.82586 7.4525 2.93614C7.21526 3.03437 6.72688 3.04179 6.29688 3.04828C5.37015 3.06681 4.21731 3.07978 3.40086 3.90086C2.58442 4.72194 2.56681 5.87015 2.54828 6.79688C2.54179 7.22688 2.53437 7.71526 2.43614 7.9525C2.32586 8.21847 1.98946 8.5697 1.66325 8.90981C1.03401 9.56593 0.25 10.3879 0.25 11.5C0.25 12.6121 1.03401 13.4341 1.66325 14.0948C1.98946 14.4349 2.32586 14.7862 2.43614 15.0521C2.53437 15.2894 2.54179 15.7778 2.54828 16.2078C2.56218 17.1345 2.57978 18.2873 3.39901 19.1056C4.21823 19.9239 5.37015 19.9397 6.29688 19.9564C6.72688 19.9628 7.21526 19.9703 7.4525 20.0685C7.71847 20.1788 8.0697 20.5152 8.40981 20.8414C9.06593 21.466 9.88793 22.25 11 22.25C12.1121 22.25 12.9341 21.466 13.5902 20.8367C13.9303 20.5105 14.2815 20.1741 14.5475 20.0639C14.7847 19.9656 15.2731 19.9582 15.7031 19.9517C16.6298 19.9378 17.7827 19.9202 18.601 19.101C19.4193 18.2818 19.435 17.1298 19.4517 16.2031C19.4582 15.7731 19.4656 15.2847 19.5639 15.0475C19.6741 14.7815 20.0105 14.4303 20.3367 14.0902C20.966 13.4341 21.75 12.6167 21.75 11.5C21.75 10.3833 20.966 9.56593 20.3367 8.90981ZM18.7317 12.5509C18.285 13.0143 17.779 13.5444 17.5093 14.1968C17.248 14.8269 17.2378 15.509 17.2313 16.1698C17.2239 16.6665 17.2137 17.3476 17.032 17.5283C16.8504 17.7091 16.1702 17.7202 15.6735 17.7276C15.0127 17.7378 14.3306 17.748 13.7005 18.0056C13.0518 18.2753 12.5208 18.7813 12.0546 19.228C11.721 19.5477 11.2224 20.0259 11 20.0259C10.7776 20.0259 10.279 19.5477 9.9491 19.2317C9.48573 18.785 8.95565 18.279 8.30323 18.0093C7.67306 17.748 6.99099 17.7378 6.33024 17.7313C5.83351 17.7239 5.15237 17.7137 4.97166 17.532C4.79095 17.3504 4.77983 16.6702 4.77241 16.1735C4.76222 15.5127 4.75203 14.8306 4.4944 14.2005C4.22472 13.5518 3.71873 13.0208 3.27205 12.5546C2.95233 12.221 2.47414 11.7224 2.47414 11.5C2.47414 11.2776 2.95233 10.779 3.26834 10.4491C3.71502 9.98573 4.22101 9.45565 4.49069 8.80323C4.75203 8.17306 4.76222 7.49099 4.76871 6.83024C4.77983 6.33351 4.79095 5.65237 4.97629 5.47629C5.16164 5.30022 5.83815 5.28446 6.33487 5.27705C6.99563 5.26685 7.67769 5.25666 8.30787 4.99903C8.95657 4.72935 9.48759 4.22336 9.95373 3.77668C10.279 3.45233 10.7776 2.97414 11 2.97414C11.2224 2.97414 11.721 3.45233 12.0509 3.76834C12.5143 4.21502 13.0444 4.72101 13.6968 4.99069C14.3269 5.25203 15.009 5.26222 15.6698 5.26871C16.1665 5.27612 16.8476 5.28631 17.0283 5.46795C17.2091 5.64959 17.2202 6.32981 17.2276 6.82653C17.2378 7.48728 17.248 8.16935 17.5056 8.79953C17.7753 9.44823 18.2813 9.97925 18.728 10.4454C19.044 10.7753 19.5222 11.2739 19.5222 11.4963C19.5222 11.7187 19.0477 12.221 18.7317 12.5509ZM15.4937 8.48907C15.5974 8.59239 15.6796 8.71515 15.7357 8.85033C15.7919 8.9855 15.8208 9.13043 15.8208 9.27679C15.8208 9.42315 15.7919 9.56808 15.7357 9.70325C15.6796 9.83842 15.5974 9.96119 15.4937 10.0645L10.304 15.2542C10.2007 15.3578 10.078 15.4401 9.94278 15.4962C9.8076 15.5524 9.66268 15.5812 9.51631 15.5812C9.36995 15.5812 9.22503 15.5524 9.08985 15.4962C8.95468 15.4401 8.83191 15.3578 8.7286 15.2542L6.50446 13.03C6.40102 12.9266 6.31896 12.8038 6.26298 12.6686C6.20699 12.5335 6.17818 12.3886 6.17818 12.2423C6.17818 12.096 6.20699 11.9512 6.26298 11.816C6.31896 11.6808 6.40102 11.558 6.50446 11.4546C6.60791 11.3511 6.73071 11.2691 6.86587 11.2131C7.00102 11.1571 7.14588 11.1283 7.29218 11.1283C7.43847 11.1283 7.58333 11.1571 7.71849 11.2131C7.85364 11.2691 7.97645 11.3511 8.07989 11.4546L9.51724 12.8901L13.9201 8.48629C14.0236 8.38308 14.1464 8.30127 14.2815 8.24554C14.4166 8.18982 14.5613 8.16127 14.7075 8.16153C14.8536 8.16179 14.9983 8.19085 15.1332 8.24705C15.2681 8.30325 15.3906 8.38549 15.4937 8.48907Z" fill="white"/>
</svg>
