<svg width="9" height="8" viewBox="0 0 9 8" fill="none" xmlns="http://www.w3.org/2000/svg">
<path d="M8.57755 2.49522L3.87379 7.19861C3.81937 7.25305 3.75475 7.29623 3.68364 7.32569C3.61252 7.35516 3.5363 7.37032 3.45932 7.37032C3.38234 7.37032 3.30612 7.35516 3.235 7.32569C3.16388 7.29623 3.09927 7.25305 3.04484 7.19861L0.421344 4.56119C0.311625 4.45131 0.25 4.30237 0.25 4.14708C0.25 3.9918 0.311625 3.84286 0.421344 3.73297L1.30048 2.85383C1.41002 2.74427 1.55848 2.68253 1.71341 2.68212C1.86833 2.68171 2.01712 2.74266 2.12724 2.85164L3.46939 4.1436L3.47342 4.14763L6.87019 0.800679C6.98003 0.691295 7.12874 0.629883 7.28375 0.629883C7.43877 0.629883 7.58747 0.691295 7.69732 0.800679L8.57645 1.6637C8.63135 1.7181 8.67494 1.78282 8.70473 1.85413C8.73451 1.92545 8.7499 2.00195 8.75 2.07923C8.7501 2.15651 8.73492 2.23306 8.70532 2.30445C8.67573 2.37584 8.6323 2.44067 8.57755 2.49522Z" fill="#EEF0FE"/>
</svg>
