<svg width="196" height="217" viewBox="0 0 196 217" fill="none" xmlns="http://www.w3.org/2000/svg">
<rect width="196" height="217" fill="white"/>
<rect x="119.244" y="150.873" width="33.9541" height="13.651" rx="6.82549" fill="#0E8BFF"/>
<rect x="13.4365" y="14.95" width="168.327" height="118.246" rx="16" fill="#F2F7FF"/>
<path d="M28.7402 74.8886C28.7402 71.1656 29.5028 67.8688 31.0279 64.998C32.5979 62.1273 34.7062 59.9069 37.3528 58.337C40.0442 56.7222 43.0048 55.9148 46.2345 55.9148C49.1502 55.9148 51.6846 56.4979 53.8378 57.6642C56.0358 58.7855 57.7852 60.1985 59.086 61.903V56.5203H66.8239V93.5933H59.086V88.0761C57.7852 89.8255 56.0133 91.2833 53.7705 92.4495C51.5276 93.6158 48.9708 94.1989 46.0999 94.1989C42.9151 94.1989 39.9994 93.3915 37.3528 91.7767C34.7062 90.117 32.5979 87.8294 31.0279 84.9138C29.5028 81.9534 28.7402 78.6116 28.7402 74.8886ZM59.086 75.0232C59.086 72.4664 58.5477 70.2461 57.4712 68.3622C56.4395 66.4782 55.0713 65.0429 53.3668 64.056C51.6622 63.0692 49.823 62.5758 47.8493 62.5758C45.8756 62.5758 44.0365 63.0692 42.3319 64.056C40.6274 64.998 39.2368 66.411 38.1602 68.2949C37.1285 70.134 36.6126 72.3319 36.6126 74.8886C36.6126 77.4454 37.1285 79.6882 38.1602 81.6169C39.2368 83.5457 40.6274 85.0259 42.3319 86.0576C44.0813 87.0444 45.9205 87.5378 47.8493 87.5378C49.823 87.5378 51.6622 87.0444 53.3668 86.0576C55.0713 85.0708 56.4395 83.6354 57.4712 81.7515C58.5477 79.8227 59.086 77.58 59.086 75.0232Z" fill="#91B5EB"/>
<path d="M76.4951 74.754C76.4951 70.8964 77.2128 67.5098 78.6483 64.5942C80.1285 61.6786 82.1247 59.4358 84.6367 57.8659C87.1487 56.296 89.9522 55.511 93.0474 55.511C95.6939 55.511 98.0041 56.0493 99.9778 57.1258C101.996 58.2023 103.544 59.6153 104.62 61.3646V56.0493H116.126V93.5932H104.62V88.2779C103.499 90.0272 101.929 91.4402 99.9105 92.5167C97.9368 93.5932 95.6267 94.1315 92.9801 94.1315C89.9298 94.1315 87.1487 93.3465 84.6367 91.7766C82.1247 90.1618 80.1285 87.8966 78.6483 84.981C77.2128 82.0205 76.4951 78.6115 76.4951 74.754ZM104.62 74.8212C104.62 71.9505 103.813 69.6853 102.198 68.0256C100.628 66.366 98.6994 65.5362 96.4117 65.5362C94.1239 65.5362 92.1727 66.366 90.5578 68.0256C88.9878 69.6404 88.2028 71.8832 88.2028 74.754C88.2028 77.6247 88.9878 79.9123 90.5578 81.6168C92.1727 83.2765 94.1239 84.1063 96.4117 84.1063C98.6994 84.1063 100.628 83.2765 102.198 81.6168C103.813 79.9572 104.62 77.692 104.62 74.8212Z" fill="#91B5EB"/>
<path d="M125.797 74.6196C125.797 70.6275 126.47 67.1736 127.816 64.258C129.206 61.2976 131.09 59.0548 133.468 57.5297C135.845 55.9598 138.514 55.1748 141.475 55.1748C143.942 55.1748 146.073 55.6906 147.867 56.7223C149.661 57.7091 151.029 59.0772 151.971 60.8266V55.6458H166.842V93.5935H151.971V88.4127C151.029 90.162 149.661 91.5525 147.867 92.5842C146.073 93.571 143.942 94.0644 141.475 94.0644C138.514 94.0644 135.845 93.3019 133.468 91.7768C131.09 90.2069 129.206 87.9641 127.816 85.0485C126.47 82.0881 125.797 78.6118 125.797 74.6196ZM151.971 74.6196C151.971 72.6011 151.456 71.0312 150.424 69.9098C149.392 68.7884 148.069 68.2277 146.454 68.2277C144.839 68.2277 143.516 68.7884 142.484 69.9098C141.452 71.0312 140.937 72.6011 140.937 74.6196C140.937 76.6381 141.452 78.2081 142.484 79.3294C143.516 80.4508 144.839 81.0115 146.454 81.0115C148.069 81.0115 149.392 80.4508 150.424 79.3294C151.456 78.2081 151.971 76.6381 151.971 74.6196Z" fill="#91B5EB"/>
<rect x="14.4414" y="151.142" width="97.8002" height="13.1885" rx="6.59424" fill="#D4DDEE"/>
<rect x="14.4414" y="172.333" width="78.7279" height="13.1885" rx="6.59424" fill="#EAECF7"/>
</svg>
