<svg width="196" height="217" viewBox="0 0 196 217" fill="none" xmlns="http://www.w3.org/2000/svg">
<rect width="195.94" height="216.942" fill="white"/>
<rect x="13.4326" y="14.946" width="168.276" height="118.215" rx="16" fill="#F2F7FF"/>
<rect x="30.2979" y="82.166" width="38.1874" height="17.5286" rx="8.76432" fill="#DCE9FF"/>
<rect x="30.2979" y="104.077" width="38.1874" height="17.5286" rx="8.76432" fill="#91B5EB"/>
<circle cx="39.688" cy="90.9304" r="6.88625" fill="#91B5EB"/>
<circle cx="59.0947" cy="112.841" r="6.88625" fill="white"/>
<rect x="14.437" y="151.102" width="145.976" height="13.1849" rx="6.59247" fill="#D4DDEE"/>
<rect x="14.437" y="172.287" width="63.7081" height="13.1849" rx="6.59247" fill="#EAECF7"/>
<rect x="29.1816" y="28.7341" width="45.4408" height="17.9918" rx="8.99588" fill="#91B5EB"/>
<rect x="130.063" y="28.7341" width="45.4408" height="17.9918" rx="8.99588" fill="#8CACDC"/>
<rect x="80.5221" y="29.6341" width="43.6408" height="16.1918" rx="8.09589" stroke="#91B5EB" stroke-width="1.8"/>
<rect x="30.2979" y="52.8064" width="124.688" height="19.5108" rx="4" fill="#91B5EB"/>
<rect x="74.6221" y="81.792" width="48.0609" height="39.2334" rx="7" fill="#91B5EB"/>
<rect x="128.063" y="81.792" width="48.0609" height="39.2334" rx="7" fill="#DCE9FF"/>
</svg>
