<svg width="32" height="33" viewBox="0 0 32 33" fill="none" xmlns="http://www.w3.org/2000/svg">
<path d="M26 2.77051H8C7.33696 2.77051 6.70107 3.0339 6.23223 3.50274C5.76339 3.97158 5.5 4.60747 5.5 5.27051V7.77051H4C3.60218 7.77051 3.22064 7.92854 2.93934 8.20985C2.65804 8.49115 2.5 8.87268 2.5 9.27051C2.5 9.66833 2.65804 10.0499 2.93934 10.3312C3.22064 10.6125 3.60218 10.7705 4 10.7705H5.5V14.7705H4C3.60218 14.7705 3.22064 14.9285 2.93934 15.2098C2.65804 15.4912 2.5 15.8727 2.5 16.2705C2.5 16.6683 2.65804 17.0499 2.93934 17.3312C3.22064 17.6125 3.60218 17.7705 4 17.7705H5.5V21.7705H4C3.60218 21.7705 3.22064 21.9285 2.93934 22.2098C2.65804 22.4912 2.5 22.8727 2.5 23.2705C2.5 23.6683 2.65804 24.0499 2.93934 24.3312C3.22064 24.6125 3.60218 24.7705 4 24.7705H5.5V27.2705C5.5 27.9335 5.76339 28.5694 6.23223 29.0383C6.70107 29.5071 7.33696 29.7705 8 29.7705H26C26.663 29.7705 27.2989 29.5071 27.7678 29.0383C28.2366 28.5694 28.5 27.9335 28.5 27.2705V5.27051C28.5 4.60747 28.2366 3.97158 27.7678 3.50274C27.2989 3.0339 26.663 2.77051 26 2.77051ZM25.5 26.7705H8.5V5.77051H25.5V26.7705ZM12.6 21.6918C13.1617 21.0859 13.8424 20.6026 14.5995 20.2721C15.3566 19.9416 16.1739 19.771 17 19.771C17.8261 19.771 18.6434 19.9416 19.4005 20.2721C20.1576 20.6026 20.8383 21.0859 21.4 21.6918C21.6705 21.9835 22.0459 22.1558 22.4434 22.1708C22.841 22.1858 23.2283 22.0423 23.52 21.7718C23.8117 21.5012 23.9841 21.1259 23.9991 20.7283C24.0141 20.3307 23.8705 19.9435 23.6 19.6518C22.9087 18.9091 22.0969 18.2887 21.1987 17.8168C21.876 17.016 22.3102 16.0383 22.4502 14.9989C22.5901 13.9595 22.43 12.9017 21.9886 11.9503C21.5472 10.9989 20.843 10.1936 19.9591 9.6292C19.0751 9.06483 18.0482 8.76496 16.9994 8.76496C15.9506 8.76496 14.9237 9.06483 14.0397 9.6292C13.1557 10.1936 12.4515 10.9989 12.0101 11.9503C11.5688 12.9017 11.4086 13.9595 11.5486 14.9989C11.6885 16.0383 12.1227 17.016 12.8 17.8168C11.9025 18.2891 11.0911 18.9094 10.4 19.6518C10.1295 19.9435 9.98593 20.3307 10.0009 20.7283C10.0159 21.1259 10.1883 21.5012 10.48 21.7718C10.7717 22.0423 11.159 22.1858 11.5566 22.1708C11.9541 22.1558 12.3295 21.9835 12.6 21.6918ZM14.5 14.2705C14.5 13.7761 14.6466 13.2927 14.9213 12.8816C15.196 12.4705 15.5865 12.15 16.0433 11.9608C16.5001 11.7716 17.0028 11.7221 17.4877 11.8185C17.9727 11.915 18.4181 12.1531 18.7678 12.5027C19.1174 12.8524 19.3555 13.2978 19.452 13.7828C19.5484 14.2677 19.4989 14.7704 19.3097 15.2272C19.1205 15.684 18.8 16.0745 18.3889 16.3492C17.9778 16.6239 17.4945 16.7705 17 16.7705C16.337 16.7705 15.7011 16.5071 15.2322 16.0383C14.7634 15.5694 14.5 14.9335 14.5 14.2705Z" fill="#EEF0FE"/>
</svg>
