<svg width="32" height="33" viewBox="0 0 32 33" fill="none" xmlns="http://www.w3.org/2000/svg">
<path d="M16.5 2.77051C13.0533 2.77415 9.74882 4.14496 7.31163 6.58214C4.87445 9.01932 3.50364 12.3238 3.5 15.7705V26.3118C3.50066 26.9637 3.75992 27.5887 4.22088 28.0496C4.68184 28.5106 5.30685 28.7698 5.95875 28.7705H16.5C19.9478 28.7705 23.2544 27.4009 25.6924 24.9629C28.1304 22.5249 29.5 19.2183 29.5 15.7705C29.5 12.3227 28.1304 9.01609 25.6924 6.57812C23.2544 4.14015 19.9478 2.77051 16.5 2.77051ZM16.5 25.7705H6.5V15.7705C6.5 13.7927 7.08649 11.8593 8.1853 10.2148C9.28412 8.57031 10.8459 7.28859 12.6732 6.53171C14.5004 5.77484 16.5111 5.5768 18.4509 5.96266C20.3907 6.34851 22.1725 7.30091 23.5711 8.69944C24.9696 10.098 25.922 11.8798 26.3079 13.8196C26.6937 15.7594 26.4957 17.7701 25.7388 19.5973C24.9819 21.4246 23.7002 22.9864 22.0557 24.0852C20.4112 25.184 18.4778 25.7705 16.5 25.7705ZM15.5 16.2705C15.5 16.6661 15.3827 17.0528 15.1629 17.3816C14.9432 17.7105 14.6308 17.9669 14.2654 18.1183C13.8999 18.2696 13.4978 18.3092 13.1098 18.2321C12.7219 18.1549 12.3655 17.9644 12.0858 17.6847C11.8061 17.405 11.6156 17.0487 11.5384 16.6607C11.4613 16.2727 11.5009 15.8706 11.6522 15.5051C11.8036 15.1397 12.06 14.8273 12.3889 14.6076C12.7178 14.3878 13.1044 14.2705 13.5 14.2705C14.0304 14.2705 14.5391 14.4812 14.9142 14.8563C15.2893 15.2314 15.5 15.7401 15.5 16.2705ZM21.5 16.2705C21.5 16.6661 21.3827 17.0528 21.1629 17.3816C20.9432 17.7105 20.6308 17.9669 20.2654 18.1183C19.8999 18.2696 19.4978 18.3092 19.1098 18.2321C18.7219 18.1549 18.3655 17.9644 18.0858 17.6847C17.8061 17.405 17.6156 17.0487 17.5384 16.6607C17.4613 16.2727 17.5009 15.8706 17.6522 15.5051C17.8036 15.1397 18.06 14.8273 18.3889 14.6076C18.7178 14.3878 19.1044 14.2705 19.5 14.2705C20.0304 14.2705 20.5391 14.4812 20.9142 14.8563C21.2893 15.2314 21.5 15.7401 21.5 16.2705Z" fill="#EEF0FE"/>
</svg>
