<svg width="130" height="40" viewBox="0 0 130 40" fill="none" xmlns="http://www.w3.org/2000/svg">
<path d="M1.0392 31.2914L11.7776 11.9426L16.1323 19.7613L9.05587 32.5781L8.70947 33.2214H0L1.0392 31.2914Z" fill="url(#paint0_linear_315_6398)"/>
<path d="M36.7678 31.2914L37.807 33.2214H29.0975L28.7511 32.5781L19.0025 15.0107L18.9035 14.8127L14.5488 6.94453L14.8952 6.30122L17.7158 1.15472L18.0622 0.461914H19.7448L20.0417 1.15472L22.9118 6.30122L36.7678 31.2914Z" fill="url(#paint1_linear_315_6398)"/>
<path d="M18.1917 37.842C17.8983 37.5524 17.8951 37.0798 18.1846 36.7864C18.4742 36.4929 18.9468 36.4898 19.2402 36.7793L20.7405 38.2595C21.0339 38.5491 21.0371 39.0217 20.7475 39.3151C20.458 39.6086 19.9854 39.6117 19.692 39.3222L18.1917 37.842Z" fill="url(#paint2_linear_315_6398)"/>
<path d="M19.8938 35.7658C19.5383 36.1261 19.5422 36.7065 19.9025 37.0621L21.3784 38.5182C21.7388 38.8738 22.3191 38.8699 22.6747 38.5095C23.0302 38.1492 23.0263 37.5688 22.666 37.2132L21.1901 35.7571C20.8297 35.4015 20.2494 35.4054 19.8938 35.7658Z" fill="url(#paint3_linear_315_6398)"/>
<path d="M21.6111 35.8045C21.2507 35.449 21.2468 34.8686 21.6024 34.5083C21.9579 34.1479 22.5383 34.144 22.8986 34.4996L24.3745 35.9557C24.7349 36.3113 24.7388 36.8916 24.3832 37.252C24.0276 37.6124 23.4473 37.6163 23.0869 37.2607L21.6111 35.8045Z" fill="url(#paint4_linear_315_6398)"/>
<path d="M23.092 33.0889C22.7364 33.4493 22.7403 34.0296 23.1007 34.3852L24.5765 35.8413C24.9369 36.1969 25.5172 36.193 25.8728 35.8326C26.2284 35.4723 26.2245 34.8919 25.8641 34.5364L24.3882 33.0802C24.0279 32.7247 23.4475 32.7285 23.092 33.0889Z" fill="url(#paint5_linear_315_6398)"/>
<path fill-rule="evenodd" clip-rule="evenodd" d="M16.6078 31.2831C15.325 33.3336 14.4911 34.3145 12.7669 35.7194C10.5163 34.1518 9.72783 32.8776 8.66656 30.316C7.66584 25.4475 8.17371 23.1278 10.9072 19.6937L12.6976 20.1464C10.334 24.059 10.7629 25.8837 12.3175 28.9727L13.8333 28.6076C15.8147 28.001 16.5759 28.0856 17.8688 28.2293L17.9894 28.2427C19.3002 28.6736 19.981 28.9895 21.2167 29.7879L21.7891 30.4538C22.0957 31.7536 21.0972 32.576 19.803 32.3463L16.6078 31.2831Z" fill="url(#paint6_linear_315_6398)"/>
<path d="M13.1957 35.8494C14.0427 34.9948 15.7465 33.2758 16.8152 31.7534L20.0541 32.8137C20.8184 32.8543 21.1737 32.6493 21.7715 32.1712C22.2479 31.545 22.2958 31.121 22.1747 30.2962C20.7393 28.8375 19.7561 28.3184 17.7003 27.866L19.9346 27.7171C23.0522 28.5177 24.4404 29.4145 26.1175 32.0137C25.7846 30.3742 25.1636 29.6332 23.7665 28.43C26.4507 26.7968 26.869 23.7577 25.9892 21.0152L29.5203 27.6066C29.2661 29.7358 28.2116 32.303 26.1904 34.4291L24.0409 32.5481C22.7924 32.5617 22.5769 32.9722 22.414 33.8886C21.3801 33.9603 21.0872 34.2658 20.9127 35.1328C19.7615 35.0509 19.4433 35.3894 19.1427 36.3068C17.6415 36.2308 17.3968 36.9897 18.027 38.0533C17.0617 38.6741 16.5339 38.7415 15.6028 38.6548C16.666 37.7318 17.0966 37.1678 17.7671 36.1344C16.719 37.2565 16.1091 37.7624 14.9661 38.3452C14.2117 38.3366 13.87 38.2814 13.9585 37.7523C14.9637 36.9716 15.4036 36.465 16.006 35.4596L13.6723 37.4193C12.7669 37.6996 12.3931 36.7124 12.7202 36.3386C12.7486 36.3062 12.7925 36.2596 12.8501 36.2001C12.9359 36.1115 13.052 35.9943 13.1916 35.8535L13.1953 35.8499L13.1957 35.8494Z" fill="url(#paint7_linear_315_6398)"/>
<path d="M54.6123 7.11776L60.9178 25.597C61.1051 26.1901 61.3236 26.6583 61.6045 26.9705C61.8542 27.3138 62.26 27.5948 62.8219 27.7821V28.5H55.6112V27.7821C56.8598 27.5323 57.2968 26.8144 56.891 25.597L55.4552 21.3206H48.5566L47.2144 25.597C47.0271 26.1901 47.0271 26.6583 47.2768 26.9705C47.5266 27.3138 48.1821 27.5948 49.2434 27.7821V28.5H43.2813V27.7821C44.0305 27.4075 44.5611 27.0329 44.8733 26.6583C45.1854 26.2837 45.4976 25.6907 45.7473 24.8791L51.4284 7.11776H54.6123ZM54.9557 19.7598L51.8966 10.6138L49.0249 19.7598H54.9557ZM76.3162 15.6707C76.3162 16.1701 76.1602 16.5759 75.848 16.888C75.5359 17.2002 75.1301 17.3563 74.6931 17.3563C74.1312 17.3563 73.6942 17.2314 73.382 16.9193C73.0699 16.6071 72.9138 16.2325 72.9138 15.7643C72.9138 15.2336 73.1323 14.7342 73.6005 14.266C73.0699 13.829 72.3519 13.6105 71.4155 13.6105C70.1045 13.6105 69.0744 14.1723 68.3252 15.2649C67.5761 16.3574 67.2015 17.8869 67.2015 19.8847C67.2015 24.1299 68.9183 26.2213 72.3519 26.2213C74.0376 26.2213 75.4422 25.7219 76.566 24.6918V25.4409C75.6295 27.6884 73.7254 28.8121 70.9161 28.8121C68.6686 28.8121 66.8893 28.0942 65.6095 26.6583C64.2985 25.2224 63.6742 23.3183 63.6742 20.9148C63.6742 18.48 64.3609 16.4822 65.7968 14.9215C67.2015 13.3607 69.1056 12.5804 71.4779 12.5804C72.7265 12.5804 73.8191 12.8613 74.8179 13.4232C75.8168 13.985 76.3162 14.7342 76.3162 15.6707ZM88.9164 32.2458V26.2213C87.9175 27.1578 87.0435 27.8133 86.3567 28.2191C85.67 28.6249 84.8896 28.8121 84.0156 28.8121C82.2676 28.8121 80.8941 28.1879 79.9577 26.8768C78.99 25.5658 78.5218 23.6305 78.5218 21.0084C78.5218 18.1679 79.1461 16.0452 80.3947 14.6718C81.6433 13.2983 83.2352 12.5804 85.233 12.5804C86.7937 12.5804 88.1984 13.0486 89.4158 13.9226L91.4136 12.5804H92.2564V32.2458C92.2564 32.6516 92.2564 32.9325 92.2876 33.1198C92.2876 33.3071 92.35 33.5256 92.4749 33.7753C92.5685 34.025 92.7558 34.2123 93.0055 34.3372C93.2552 34.4621 93.5674 34.5869 94.0044 34.6493V35.3673H86.6377V34.6493C87.1683 34.5869 87.6053 34.4621 87.9487 34.3372C88.2608 34.2123 88.5106 34.025 88.6354 33.7753C88.7603 33.5256 88.8227 33.3071 88.8539 33.1198C88.8851 32.9325 88.9164 32.6516 88.9164 32.2458ZM88.9164 25.1912V14.8903C88.1672 14.5469 87.2307 14.3596 86.107 14.3596C83.4537 14.3596 82.1427 16.4822 82.1427 20.6963C82.1427 22.8189 82.3924 24.286 82.9543 25.16C83.485 26.034 84.3278 26.471 85.4827 26.471C86.5752 26.471 87.7302 26.0652 88.9164 25.1912ZM96.7118 9.39645C96.7118 8.80337 96.8991 8.30393 97.3049 7.92935C97.6795 7.55477 98.2101 7.36748 98.8344 7.36748C99.4275 7.36748 99.9269 7.55477 100.364 7.92935C100.77 8.30393 100.988 8.80337 100.988 9.39645C100.988 10.0208 100.77 10.489 100.364 10.8636C99.9269 11.2381 99.4275 11.4254 98.8344 11.4254C98.2101 11.4254 97.6795 11.2693 97.3049 10.8948C96.8991 10.5202 96.7118 10.0208 96.7118 9.39645ZM100.551 12.5804V25.3785C100.551 25.7843 100.551 26.0652 100.582 26.2525C100.582 26.4398 100.645 26.6583 100.77 26.908C100.863 27.1578 101.051 27.345 101.3 27.4699C101.55 27.5948 101.893 27.7196 102.33 27.7821V28.5H95.4632V27.7821C96.2748 27.6572 96.7742 27.4075 96.9615 27.0641C97.1488 26.7207 97.2425 26.1589 97.2425 25.3785V17.2626C97.2425 16.9505 97.2112 16.732 97.2112 16.5447C97.18 16.3574 97.1176 16.1701 97.024 15.9204C96.8991 15.6707 96.7118 15.4834 96.4621 15.3273C96.2124 15.2024 95.869 15.0776 95.4632 14.9839V14.2348L100.551 12.5804ZM105.9 12.8925V11.6751C105.9 9.67738 106.399 8.17907 107.429 7.18019C108.459 6.21253 109.646 5.71309 110.988 5.71309C111.831 5.71309 112.549 5.93159 113.11 6.3686C113.672 6.80561 113.953 7.33626 113.953 7.99178C113.953 8.52243 113.797 8.92823 113.485 9.24038C113.173 9.55252 112.798 9.7086 112.33 9.7086C111.799 9.7086 111.394 9.58374 111.081 9.27159C110.769 8.99066 110.644 8.64729 110.644 8.21028C110.644 7.71084 110.863 7.24262 111.362 6.83683C111.175 6.77439 110.925 6.74318 110.613 6.74318C110.114 6.74318 109.708 6.93047 109.333 7.30505C108.959 7.67963 108.803 8.27271 108.803 9.05309C108.803 9.77103 108.928 11.0508 109.24 12.8925H112.673V14.3596H109.24V25.3785C109.24 25.7843 109.24 26.0652 109.271 26.2525C109.302 26.4398 109.396 26.6583 109.521 26.908C109.646 27.1578 109.895 27.345 110.239 27.4699C110.582 27.5948 111.05 27.7196 111.643 27.7821V28.5H104.152V27.7821C104.557 27.7196 104.901 27.5948 105.151 27.4699C105.4 27.345 105.556 27.1578 105.681 26.908C105.775 26.6583 105.837 26.4398 105.869 26.2525C105.869 26.0652 105.9 25.7843 105.9 25.3785V14.3596H104.152V13.6105L105.9 12.8925ZM129.163 12.8925V13.6105C128.258 14.2348 127.602 15.0776 127.228 16.1701L123.763 25.2849C123.076 27.0329 122.421 28.5624 121.796 29.811C121.172 31.0908 120.579 32.0897 120.08 32.8389C119.58 33.588 119.05 34.1499 118.519 34.5869C117.988 35.0239 117.52 35.3361 117.114 35.4609C116.677 35.617 116.24 35.6794 115.772 35.6794C115.116 35.6794 114.586 35.5234 114.211 35.1488C113.805 34.8054 113.618 34.3684 113.618 33.869C113.618 33.3695 113.774 32.9325 114.118 32.6204C114.43 32.3082 114.835 32.1521 115.273 32.1521C115.616 32.1521 115.928 32.277 116.24 32.4955C116.552 32.714 116.708 33.0886 116.708 33.588C116.708 33.869 116.646 34.1187 116.584 34.3372C117.738 34.2123 119.143 32.4019 120.766 28.9682L115.335 16.1077C115.023 15.4209 114.711 14.9215 114.461 14.5781C114.18 14.2348 113.805 13.9226 113.337 13.6105V12.8925H119.83V13.6105C119.362 13.829 119.05 14.0163 118.862 14.2036C118.675 14.3908 118.581 14.5781 118.581 14.8279C118.581 15.0776 118.675 15.4522 118.862 15.9204L122.452 24.8166L125.355 15.9204C125.48 15.4834 125.542 15.14 125.542 14.9215C125.542 14.6406 125.417 14.3908 125.199 14.2036C124.949 14.0163 124.543 13.829 123.95 13.6105V12.8925H129.163Z" fill="black"/>
<defs>
<linearGradient id="paint0_linear_315_6398" x1="18.9035" y1="0.461914" x2="18.9035" y2="39.5373" gradientUnits="userSpaceOnUse">
<stop stop-color="#323232"/>
<stop offset="1" stop-color="#1A1A1A"/>
</linearGradient>
<linearGradient id="paint1_linear_315_6398" x1="18.9035" y1="0.461914" x2="18.9035" y2="39.5373" gradientUnits="userSpaceOnUse">
<stop/>
<stop offset="1"/>
</linearGradient>
<linearGradient id="paint2_linear_315_6398" x1="18.9035" y1="0.461914" x2="18.9035" y2="39.5373" gradientUnits="userSpaceOnUse">
<stop stop-color="#323232"/>
<stop offset="1" stop-color="#1A1A1A"/>
</linearGradient>
<linearGradient id="paint3_linear_315_6398" x1="18.9035" y1="0.461914" x2="18.9035" y2="39.5373" gradientUnits="userSpaceOnUse">
<stop stop-color="#323232"/>
<stop offset="1" stop-color="#1A1A1A"/>
</linearGradient>
<linearGradient id="paint4_linear_315_6398" x1="18.9035" y1="0.461914" x2="18.9035" y2="39.5373" gradientUnits="userSpaceOnUse">
<stop stop-color="#323232"/>
<stop offset="1" stop-color="#1A1A1A"/>
</linearGradient>
<linearGradient id="paint5_linear_315_6398" x1="18.9035" y1="0.461914" x2="18.9035" y2="39.5373" gradientUnits="userSpaceOnUse">
<stop stop-color="#323232"/>
<stop offset="1" stop-color="#1A1A1A"/>
</linearGradient>
<linearGradient id="paint6_linear_315_6398" x1="18.9035" y1="0.461914" x2="18.9035" y2="39.5373" gradientUnits="userSpaceOnUse">
<stop stop-color="#323232"/>
<stop offset="1" stop-color="#1A1A1A"/>
</linearGradient>
<linearGradient id="paint7_linear_315_6398" x1="18.9035" y1="0.461914" x2="18.9035" y2="39.5373" gradientUnits="userSpaceOnUse">
<stop/>
<stop offset="1"/>
</linearGradient>
</defs>
</svg>
