<svg width="23" height="24" viewBox="0 0 23 24" fill="none" xmlns="http://www.w3.org/2000/svg">
<rect y="0.5" width="23" height="23" rx="11.5" fill="#EEF0FE"/>
<path d="M17.0167 9.96388L10.6528 16.3273C10.5791 16.4009 10.4917 16.4594 10.3955 16.4992C10.2993 16.5391 10.1962 16.5596 10.092 16.5596C9.98787 16.5596 9.88474 16.5391 9.78853 16.4992C9.69231 16.4594 9.60489 16.4009 9.53125 16.3273L5.98182 12.759C5.83338 12.6103 5.75 12.4088 5.75 12.1988C5.75 11.9887 5.83338 11.7872 5.98182 11.6385L7.17124 10.4491C7.31944 10.3008 7.5203 10.2173 7.7299 10.2167C7.93951 10.2162 8.14081 10.2986 8.28979 10.4461L10.1056 12.194L10.1111 12.1995L14.7067 7.67126C14.8553 7.52327 15.0565 7.44019 15.2663 7.44019C15.476 7.44019 15.6772 7.52327 15.8258 7.67126L17.0152 8.83888C17.0895 8.91248 17.1485 9.00004 17.1887 9.09652C17.229 9.19301 17.2499 9.29651 17.25 9.40107C17.2501 9.50563 17.2296 9.60918 17.1896 9.70577C17.1495 9.80236 17.0908 9.89008 17.0167 9.96388Z" fill="#3C4DF9"/>
</svg>
