<svg width="31" height="31" viewBox="0 0 31 31" fill="none" xmlns="http://www.w3.org/2000/svg">
<path d="M28.7 15.5659C28.7 14.5909 28.6125 13.6534 28.45 12.7534H15.5V18.0722H22.9C22.5813 19.7909 21.6125 21.2472 20.1563 22.2222V25.6722H24.6C27.2 23.2784 28.7 19.7534 28.7 15.5659Z" fill="#4285F4"/>
<path d="M15.5 29.0032C19.2125 29.0032 22.325 27.772 24.6 25.672L20.1563 22.222C18.925 23.047 17.35 23.5345 15.5 23.5345C11.9188 23.5345 8.88752 21.1157 7.80627 17.8657H3.21252V21.4282C5.47502 25.922 10.125 29.0032 15.5 29.0032Z" fill="#34A853"/>
<path d="M7.80625 17.8661C7.53125 17.0411 7.375 16.1599 7.375 15.2536C7.375 14.3474 7.53125 13.4661 7.80625 12.6411V9.07861H3.2125C2.25 10.9947 1.74915 13.1094 1.75 15.2536C1.75 17.4724 2.28125 19.5724 3.2125 21.4286L7.80625 17.8661Z" fill="#FBBC05"/>
<path d="M15.5 6.97217C17.5188 6.97217 19.3313 7.66592 20.7563 9.02842L24.7 5.08467C22.3188 2.86592 19.2063 1.50342 15.5 1.50342C10.125 1.50342 5.47502 4.58467 3.21252 9.07842L7.80627 12.6409C8.88752 9.39092 11.9188 6.97217 15.5 6.97217Z" fill="#EA4335"/>
</svg>
