<svg width="42" height="43" viewBox="0 0 42 43" fill="none" xmlns="http://www.w3.org/2000/svg">
<path d="M1.95325 33.5658L13.4275 12.891L18.0807 21.2455L10.5193 34.9406L10.1492 35.628H0.842834L1.95325 33.5658Z" fill="url(#paint0_linear_315_3211)"/>
<path d="M40.1304 33.5658L41.2408 35.628H31.9344L31.5643 34.9406L21.1476 16.1693L21.0418 15.9578L16.3886 7.55041L16.7588 6.86301L19.7728 1.36381L20.1429 0.623535H21.9407L22.258 1.36381L25.3248 6.86301L40.1304 33.5658Z" fill="url(#paint1_linear_315_3211)"/>
<path d="M20.2812 40.5653C19.9677 40.2559 19.9643 39.7509 20.2737 39.4374C20.583 39.1238 21.088 39.1204 21.4016 39.4298L23.0046 41.0114C23.3182 41.3208 23.3216 41.8258 23.0122 42.1394C22.7028 42.4529 22.1978 42.4563 21.8843 42.1469L20.2812 40.5653Z" fill="url(#paint2_linear_315_3211)"/>
<path d="M22.1 38.3468C21.7201 38.7319 21.7242 39.352 22.1093 39.7319L23.6863 41.2879C24.0714 41.6678 24.6915 41.6636 25.0714 41.2786C25.4513 40.8935 25.4471 40.2734 25.0621 39.8935L23.4851 38.3375C23.1 37.9576 22.4799 37.9617 22.1 38.3468Z" fill="url(#paint3_linear_315_3211)"/>
<path d="M23.9349 38.3882C23.5499 38.0083 23.5457 37.3882 23.9256 37.0031C24.3055 36.6181 24.9257 36.6139 25.3107 36.9938L26.8877 38.5498C27.2728 38.9297 27.2769 39.5498 26.897 39.9349C26.5171 40.3199 25.897 40.3241 25.5119 39.9442L23.9349 38.3882Z" fill="url(#paint4_linear_315_3211)"/>
<path d="M25.5173 35.4865C25.1374 35.8715 25.1415 36.4917 25.5266 36.8716L27.1036 38.4275C27.4887 38.8074 28.1088 38.8033 28.4887 38.4182C28.8686 38.0332 28.8645 37.413 28.4794 37.0331L26.9024 35.4772C26.5173 35.0973 25.8972 35.1014 25.5173 35.4865Z" fill="url(#paint5_linear_315_3211)"/>
<path fill-rule="evenodd" clip-rule="evenodd" d="M18.5888 33.5569C17.218 35.748 16.327 36.7961 14.4847 38.2972C12.0798 36.6222 11.2373 35.2607 10.1033 32.5236C9.03402 27.3214 9.57669 24.8427 12.4975 21.1732L14.4106 21.6571C11.885 25.8377 12.3433 27.7875 14.0044 31.0882L15.6242 30.6981C17.7413 30.0498 18.5546 30.1403 19.9361 30.2939L20.0651 30.3082C21.4657 30.7686 22.1932 31.1061 23.5135 31.9593L24.1252 32.6708C24.4528 34.0596 23.3859 34.9384 22.0029 34.693L18.5888 33.5569Z" fill="url(#paint6_linear_315_3211)"/>
<path d="M14.9428 38.4361C15.8479 37.523 17.6685 35.6862 18.8104 34.0594L22.2713 35.1924C23.0879 35.2358 23.4675 35.0168 24.1064 34.5059C24.6154 33.8367 24.6665 33.3837 24.5371 32.5024C23.0034 30.9437 21.9529 30.3891 19.7562 29.9056L22.1436 29.7466C25.4748 30.602 26.9581 31.5602 28.7501 34.3376C28.3944 32.5858 27.7309 31.794 26.2381 30.5082C29.1062 28.7632 29.5532 25.5158 28.6131 22.5854L32.3861 29.6285C32.1145 31.9035 30.9877 34.6467 28.8281 36.9185L26.5312 34.9086C25.1972 34.9232 24.9669 35.3618 24.7929 36.341C23.6881 36.4175 23.3752 36.744 23.1887 37.6704C21.9586 37.5829 21.6186 37.9446 21.2974 38.9249C19.6933 38.8436 19.4319 39.6546 20.1052 40.7911C19.0737 41.4544 18.5098 41.5265 17.5149 41.4338C18.651 40.4476 19.111 39.8449 19.8275 38.7407C18.7076 39.9397 18.0559 40.4803 16.8346 41.103C16.0285 41.0938 15.6634 41.0348 15.7579 40.4694C16.832 39.6352 17.302 39.0939 17.9457 38.0197L15.4521 40.1136C14.4846 40.4132 14.0852 39.3583 14.4347 38.9589C14.4651 38.9242 14.512 38.8744 14.5735 38.8109C14.6653 38.7162 14.7893 38.591 14.9385 38.4406L14.9424 38.4366L14.9428 38.4361Z" fill="url(#paint7_linear_315_3211)"/>
<defs>
<linearGradient id="paint0_linear_315_3211" x1="21.0418" y1="0.623535" x2="21.0418" y2="42.3768" gradientUnits="userSpaceOnUse">
<stop stop-color="white"/>
<stop offset="1" stop-color="#DEDEDE"/>
</linearGradient>
<linearGradient id="paint1_linear_315_3211" x1="21.0418" y1="0.623535" x2="21.0418" y2="42.3768" gradientUnits="userSpaceOnUse">
<stop stop-color="white"/>
<stop offset="1" stop-color="white"/>
</linearGradient>
<linearGradient id="paint2_linear_315_3211" x1="21.0418" y1="0.623535" x2="21.0418" y2="42.3768" gradientUnits="userSpaceOnUse">
<stop stop-color="white"/>
<stop offset="1" stop-color="#DEDEDE"/>
</linearGradient>
<linearGradient id="paint3_linear_315_3211" x1="21.0418" y1="0.623535" x2="21.0418" y2="42.3768" gradientUnits="userSpaceOnUse">
<stop stop-color="white"/>
<stop offset="1" stop-color="#DEDEDE"/>
</linearGradient>
<linearGradient id="paint4_linear_315_3211" x1="21.0418" y1="0.623535" x2="21.0418" y2="42.3768" gradientUnits="userSpaceOnUse">
<stop stop-color="white"/>
<stop offset="1" stop-color="#DEDEDE"/>
</linearGradient>
<linearGradient id="paint5_linear_315_3211" x1="21.0418" y1="0.623535" x2="21.0418" y2="42.3768" gradientUnits="userSpaceOnUse">
<stop stop-color="white"/>
<stop offset="1" stop-color="#DEDEDE"/>
</linearGradient>
<linearGradient id="paint6_linear_315_3211" x1="21.0418" y1="0.623535" x2="21.0418" y2="42.3768" gradientUnits="userSpaceOnUse">
<stop stop-color="white"/>
<stop offset="1" stop-color="#DEDEDE"/>
</linearGradient>
<linearGradient id="paint7_linear_315_3211" x1="21.0418" y1="0.623535" x2="21.0418" y2="42.3768" gradientUnits="userSpaceOnUse">
<stop stop-color="white"/>
<stop offset="1" stop-color="white"/>
</linearGradient>
</defs>
</svg>
