<svg width="17" height="19" viewBox="0 0 17 19" fill="none" xmlns="http://www.w3.org/2000/svg">
<path d="M16.2774 5.23906L11.3556 0.317188C11.2576 0.219118 11.1413 0.141316 11.0133 0.0882308C10.8852 0.0351459 10.748 0.00781896 10.6094 0.0078125H2.17188C1.70567 0.0078125 1.25857 0.19301 0.928914 0.522664C0.59926 0.852318 0.414062 1.29942 0.414062 1.76562V17.2344C0.414063 17.7006 0.59926 18.1477 0.928914 18.4773C1.25857 18.807 1.70567 18.9922 2.17188 18.9922H14.8281C15.2943 18.9922 15.7414 18.807 16.0711 18.4773C16.4007 18.1477 16.5859 17.7006 16.5859 17.2344V5.98438C16.5859 5.70487 16.475 5.43681 16.2774 5.23906ZM11.3125 3.25977L13.334 5.28125H11.3125V3.25977ZM2.52344 16.8828V2.11719H9.20312V6.33594C9.20312 6.61566 9.31424 6.88392 9.51204 7.08171C9.70983 7.27951 9.97809 7.39062 10.2578 7.39062H14.4766V16.8828H2.52344Z" fill="#3C4DF9"/>
</svg>
