<svg width="16" height="20" viewBox="0 0 16 20" fill="none" xmlns="http://www.w3.org/2000/svg">
<path d="M8 4.6875C7.32013 4.6875 6.65552 4.88911 6.09023 5.26682C5.52493 5.64454 5.08434 6.1814 4.82416 6.80953C4.56399 7.43765 4.49591 8.12881 4.62855 8.79562C4.76119 9.46243 5.08858 10.0749 5.56932 10.5557C6.05006 11.0364 6.66257 11.3638 7.32938 11.4964C7.99619 11.6291 8.68735 11.561 9.31547 11.3008C9.9436 11.0407 10.4805 10.6001 10.8582 10.0348C11.2359 9.46948 11.4375 8.80487 11.4375 8.125C11.4365 7.21364 11.074 6.33989 10.4295 5.69546C9.78511 5.05103 8.91136 4.68853 8 4.6875ZM8 9.6875C7.69097 9.6875 7.38887 9.59586 7.13192 9.42417C6.87497 9.25248 6.6747 9.00845 6.55644 8.72294C6.43818 8.43743 6.40723 8.12327 6.46752 7.82017C6.52781 7.51708 6.67663 7.23867 6.89515 7.02015C7.11367 6.80163 7.39208 6.65281 7.69517 6.59252C7.99827 6.53223 8.31243 6.56318 8.59794 6.68144C8.88345 6.7997 9.12748 6.99997 9.29917 7.25692C9.47086 7.51387 9.5625 7.81597 9.5625 8.125C9.5625 8.5394 9.39788 8.93683 9.10485 9.22985C8.81183 9.52288 8.4144 9.6875 8 9.6875ZM8 0.9375C6.09439 0.939568 4.26742 1.69748 2.91995 3.04495C1.57248 4.39242 0.814568 6.21939 0.8125 8.125C0.8125 14.1687 7.19063 18.7031 7.4625 18.893C7.62005 19.0032 7.8077 19.0624 8 19.0624C8.1923 19.0624 8.37995 19.0032 8.5375 18.893C9.74552 18.0027 10.8508 16.9808 11.8328 15.8461C14.0273 13.3258 15.1875 10.6539 15.1875 8.125C15.1854 6.21939 14.4275 4.39242 13.08 3.04495C11.7326 1.69748 9.90561 0.939568 8 0.9375ZM10.4453 14.5867C9.70042 15.4424 8.8822 16.2313 8 16.9445C7.1178 16.2313 6.29958 15.4424 5.55469 14.5867C4.25 13.0758 2.6875 10.7273 2.6875 8.125C2.6875 6.71604 3.24721 5.36478 4.2435 4.3685C5.23978 3.37221 6.59104 2.8125 8 2.8125C9.40896 2.8125 10.7602 3.37221 11.7565 4.3685C12.7528 5.36478 13.3125 6.71604 13.3125 8.125C13.3125 10.7273 11.75 13.0758 10.4453 14.5867Z" fill="#C0C0C0"/>
</svg>
