<svg width="27" height="29" viewBox="0 0 27 29" fill="none" xmlns="http://www.w3.org/2000/svg">
<path d="M24.5 3.27026H15V1.77026C15 1.37244 14.842 0.990908 14.5607 0.709604C14.2794 0.428299 13.8978 0.270264 13.5 0.270264C13.1022 0.270264 12.7206 0.428299 12.4393 0.709604C12.158 0.990908 12 1.37244 12 1.77026V3.27026H2.5C1.83696 3.27026 1.20107 3.53366 0.732233 4.0025C0.263392 4.47134 0 5.10722 0 5.77026V20.7703C0 21.4333 0.263392 22.0692 0.732233 22.538C1.20107 23.0069 1.83696 23.2703 2.5 23.2703H6.375L4.325 25.8328C4.07636 26.1434 3.9613 26.5401 4.00514 26.9356C4.04897 27.331 4.24812 27.6929 4.55875 27.9415C4.86938 28.1902 5.26607 28.3052 5.66154 28.2614C6.057 28.2175 6.41886 28.0184 6.6675 27.7078L10.2175 23.2703H16.775L20.325 27.7078C20.4481 27.8616 20.6003 27.9896 20.7729 28.0846C20.9455 28.1796 21.1351 28.2397 21.331 28.2614C21.5268 28.2831 21.725 28.266 21.9142 28.2111C22.1034 28.1562 22.2799 28.0646 22.4338 27.9415C22.5876 27.8184 22.7156 27.6662 22.8106 27.4936C22.9056 27.321 22.9657 27.1314 22.9874 26.9356C23.0091 26.7397 22.992 26.5416 22.9371 26.3523C22.8822 26.1631 22.7906 25.9866 22.6675 25.8328L20.625 23.2703H24.5C25.163 23.2703 25.7989 23.0069 26.2678 22.538C26.7366 22.0692 27 21.4333 27 20.7703V5.77026C27 5.10722 26.7366 4.47134 26.2678 4.0025C25.7989 3.53366 25.163 3.27026 24.5 3.27026ZM24 20.2703H3V6.27026H24V20.2703ZM10.5 13.7703V16.7703C10.5 17.1681 10.342 17.5496 10.0607 17.8309C9.77936 18.1122 9.39782 18.2703 9 18.2703C8.60218 18.2703 8.22064 18.1122 7.93934 17.8309C7.65804 17.5496 7.5 17.1681 7.5 16.7703V13.7703C7.5 13.3724 7.65804 12.9909 7.93934 12.7096C8.22064 12.4283 8.60218 12.2703 9 12.2703C9.39782 12.2703 9.77936 12.4283 10.0607 12.7096C10.342 12.9909 10.5 13.3724 10.5 13.7703ZM13.5 10.2703C13.8978 10.2703 14.2794 10.4283 14.5607 10.7096C14.842 10.9909 15 11.3724 15 11.7703V16.7703C15 17.1681 14.842 17.5496 14.5607 17.8309C14.2794 18.1122 13.8978 18.2703 13.5 18.2703C13.1022 18.2703 12.7206 18.1122 12.4393 17.8309C12.158 17.5496 12 17.1681 12 16.7703V11.7703C12 11.3724 12.158 10.9909 12.4393 10.7096C12.7206 10.4283 13.1022 10.2703 13.5 10.2703ZM16.5 16.7703V9.77026C16.5 9.37244 16.658 8.99091 16.9393 8.7096C17.2206 8.4283 17.6022 8.27026 18 8.27026C18.3978 8.27026 18.7794 8.4283 19.0607 8.7096C19.342 8.99091 19.5 9.37244 19.5 9.77026V16.7703C19.5 17.1681 19.342 17.5496 19.0607 17.8309C18.7794 18.1122 18.3978 18.2703 18 18.2703C17.6022 18.2703 17.2206 18.1122 16.9393 17.8309C16.658 17.5496 16.5 17.1681 16.5 16.7703Z" fill="white"/>
</svg>
