<svg width="23" height="21" viewBox="0 0 23 21" fill="none" xmlns="http://www.w3.org/2000/svg">
<path d="M12.6716 10.1094V19.0938C12.6716 19.4046 12.5482 19.7026 12.3284 19.9224C12.1086 20.1422 11.8106 20.2656 11.4998 20.2656C11.189 20.2656 10.8909 20.1422 10.6711 19.9224C10.4513 19.7026 10.3279 19.4046 10.3279 19.0938V10.1094C10.3279 9.79857 10.4513 9.5005 10.6711 9.28073C10.8909 9.06096 11.189 8.9375 11.4998 8.9375C11.8106 8.9375 12.1086 9.06096 12.3284 9.28073C12.5482 9.5005 12.6716 9.79857 12.6716 10.1094ZM18.531 16.75C18.2202 16.75 17.9221 16.8735 17.7024 17.0932C17.4826 17.313 17.3591 17.6111 17.3591 17.9219V19.0938C17.3591 19.4046 17.4826 19.7026 17.7024 19.9224C17.9221 20.1422 18.2202 20.2656 18.531 20.2656C18.8418 20.2656 19.1399 20.1422 19.3596 19.9224C19.5794 19.7026 19.7029 19.4046 19.7029 19.0938V17.9219C19.7029 17.6111 19.5794 17.313 19.3596 17.0932C19.1399 16.8735 18.8418 16.75 18.531 16.75ZM20.8748 12.8438H19.7029V1.90625C19.7029 1.59545 19.5794 1.29738 19.3596 1.07761C19.1399 0.85784 18.8418 0.734375 18.531 0.734375C18.2202 0.734375 17.9221 0.85784 17.7024 1.07761C17.4826 1.29738 17.3591 1.59545 17.3591 1.90625V12.8438H16.1873C15.8765 12.8438 15.5784 12.9672 15.3586 13.187C15.1388 13.4068 15.0154 13.7048 15.0154 14.0156C15.0154 14.3264 15.1388 14.6245 15.3586 14.8443C15.5784 15.064 15.8765 15.1875 16.1873 15.1875H20.8748C21.1856 15.1875 21.4836 15.064 21.7034 14.8443C21.9232 14.6245 22.0466 14.3264 22.0466 14.0156C22.0466 13.7048 21.9232 13.4068 21.7034 13.187C21.4836 12.9672 21.1856 12.8438 20.8748 12.8438ZM4.46851 13.625C4.15771 13.625 3.85963 13.7485 3.63986 13.9682C3.4201 14.188 3.29663 14.4861 3.29663 14.7969V19.0938C3.29663 19.4046 3.4201 19.7026 3.63986 19.9224C3.85963 20.1422 4.15771 20.2656 4.46851 20.2656C4.77931 20.2656 5.07738 20.1422 5.29715 19.9224C5.51692 19.7026 5.64038 19.4046 5.64038 19.0938V14.7969C5.64038 14.4861 5.51692 14.188 5.29715 13.9682C5.07738 13.7485 4.77931 13.625 4.46851 13.625ZM6.81226 9.71875H5.64038V1.90625C5.64038 1.59545 5.51692 1.29738 5.29715 1.07761C5.07738 0.85784 4.77931 0.734375 4.46851 0.734375C4.15771 0.734375 3.85963 0.85784 3.63986 1.07761C3.4201 1.29738 3.29663 1.59545 3.29663 1.90625V9.71875H2.12476C1.81396 9.71875 1.51588 9.84221 1.29612 10.062C1.07635 10.2818 0.952881 10.5798 0.952881 10.8906C0.952881 11.2014 1.07635 11.4995 1.29612 11.7193C1.51588 11.939 1.81396 12.0625 2.12476 12.0625H6.81226C7.12306 12.0625 7.42113 11.939 7.6409 11.7193C7.86067 11.4995 7.98413 11.2014 7.98413 10.8906C7.98413 10.5798 7.86067 10.2818 7.6409 10.062C7.42113 9.84221 7.12306 9.71875 6.81226 9.71875ZM13.8435 5.03125H12.6716V1.90625C12.6716 1.59545 12.5482 1.29738 12.3284 1.07761C12.1086 0.85784 11.8106 0.734375 11.4998 0.734375C11.189 0.734375 10.8909 0.85784 10.6711 1.07761C10.4513 1.29738 10.3279 1.59545 10.3279 1.90625V5.03125H9.15601C8.84521 5.03125 8.54713 5.15472 8.32736 5.37448C8.1076 5.59425 7.98413 5.89232 7.98413 6.20312C7.98413 6.51393 8.1076 6.812 8.32736 7.03177C8.54713 7.25153 8.84521 7.375 9.15601 7.375H13.8435C14.1543 7.375 14.4524 7.25153 14.6721 7.03177C14.8919 6.812 15.0154 6.51393 15.0154 6.20312C15.0154 5.89232 14.8919 5.59425 14.6721 5.37448C14.4524 5.15472 14.1543 5.03125 13.8435 5.03125Z" fill="#3C4DF9"/>
</svg>
