<svg width="40" height="40" viewBox="0 0 40 40" fill="none" xmlns="http://www.w3.org/2000/svg">
<rect width="40" height="40" rx="20" fill="#FF7575"/>
<path d="M14.612 26.112C13.876 26.112 13.2093 25.9467 12.612 25.616C12.0147 25.2747 11.5187 24.7893 11.124 24.16L12.084 23.088C12.5853 23.6427 13.0227 24.0213 13.396 24.224C13.7693 24.4267 14.1747 24.528 14.612 24.528C15.0493 24.528 15.444 24.432 15.796 24.24C16.148 24.048 16.4253 23.7867 16.628 23.456C16.8413 23.1253 16.948 22.7573 16.948 22.352C16.948 21.9253 16.8467 21.5467 16.644 21.216C16.452 20.8747 16.1907 20.608 15.86 20.416C15.5293 20.2133 15.156 20.112 14.74 20.112C14.5373 20.112 14.3453 20.128 14.164 20.16C13.9827 20.1813 13.764 20.24 13.508 20.336C13.252 20.432 12.916 20.5813 12.5 20.784L11.588 19.552L12.244 14.8H18.292V16.4H13.332L13.668 16.096L13.14 19.648L12.74 19.184C12.8467 19.0773 13.028 18.976 13.284 18.88C13.54 18.7733 13.8227 18.688 14.132 18.624C14.452 18.5493 14.756 18.512 15.044 18.512C15.7267 18.512 16.3347 18.672 16.868 18.992C17.412 19.3013 17.8387 19.7333 18.148 20.288C18.468 20.8427 18.628 21.4773 18.628 22.192C18.628 22.928 18.452 23.5947 18.1 24.192C17.748 24.7787 17.268 25.248 16.66 25.6C16.052 25.9413 15.3693 26.112 14.612 26.112ZM20.3138 22.24V20.8H28.3298V22.24H20.3138ZM23.4658 25.328V17.6H25.1458V25.328H23.4658Z" fill="#EEF0FE"/>
</svg>
